<svg width="503" height="443" viewBox="0 0 503 443" fill="none" xmlns="http://www.w3.org/2000/svg">
<path d="M191.089 395.629L233.292 371.232C237.641 368.72 239.815 365.435 239.815 362.138C239.815 358.84 239.815 356.268 239.815 356.268L196.041 331.581C194.818 330.79 193.8 329.722 193.069 328.462C192.339 327.203 191.917 325.788 191.838 324.334V272.291L118.156 314.877V366.896C118.241 368.349 118.665 369.761 119.396 371.02C120.126 372.278 121.141 373.348 122.36 374.143L159.611 395.593C168.284 400.653 182.392 400.653 191.089 395.629Z" fill="#414141"/>
<g opacity="0.6">
<path d="M191.089 395.629L233.292 371.232C237.641 368.72 239.815 365.435 239.815 362.138C239.815 358.84 239.815 356.268 239.815 356.268L196.041 331.581C194.818 330.79 193.8 329.722 193.069 328.462C192.339 327.203 191.917 325.788 191.838 324.334V272.291L118.156 314.877V366.896C118.241 368.349 118.665 369.761 119.396 371.02C120.126 372.278 121.141 373.348 122.36 374.143L159.611 395.593C168.284 400.653 182.392 400.653 191.089 395.629Z" fill="black"/>
</g>
<path opacity="0.3" d="M135.828 376.111V381.957L122.323 374.167C121.105 373.373 120.09 372.303 119.362 371.044C118.634 369.785 118.213 368.372 118.132 366.92V314.877L132.168 306.773C132.457 310.336 132.772 314.02 133.074 317.643L123.205 323.32V363.961C123.283 365.415 123.705 366.83 124.436 368.09C125.166 369.349 126.185 370.418 127.409 371.208L135.828 376.111Z" fill="black"/>
<path d="M123.205 363.973C123.288 365.426 123.712 366.839 124.442 368.098C125.172 369.357 126.188 370.427 127.409 371.22L159.563 389.747C168.259 394.759 182.368 394.772 191.077 389.747L233.353 365.35C242.062 360.326 242.062 352.186 233.353 347.161L201.175 328.634C199.957 327.838 198.944 326.768 198.216 325.51C197.488 324.251 197.066 322.839 196.983 321.387V280.734L123.302 323.32L123.205 363.973Z" fill="#414141"/>
<path opacity="0.3" d="M123.205 363.973C123.288 365.426 123.712 366.839 124.442 368.098C125.172 369.357 126.188 370.427 127.409 371.22L159.563 389.747C168.259 394.759 182.368 394.772 191.077 389.747L233.353 365.35C242.062 360.326 242.062 352.186 233.353 347.161L201.175 328.634C199.957 327.838 198.944 326.768 198.216 325.51C197.488 324.251 197.066 322.839 196.983 321.387V280.734L123.302 323.32L123.205 363.973Z" fill="black"/>
<path opacity="0.5" d="M209.69 333.598L201.126 328.658C199.909 327.863 198.896 326.792 198.168 325.534C197.44 324.275 197.017 322.863 196.935 321.412V280.734L123.253 323.32V363.973C123.336 365.426 123.76 366.839 124.49 368.098C125.221 369.357 126.237 370.427 127.457 371.22L135.912 376.051L209.69 333.598Z" fill="black"/>
<path d="M239.827 356.28V362.15C239.827 365.447 237.641 368.72 233.304 371.244L191.028 395.629C186.402 398.098 181.234 399.381 175.99 399.361V393.515C181.234 393.535 186.402 392.253 191.028 389.783L233.304 365.374C237.641 362.874 239.827 359.577 239.827 356.28Z" fill="#414141"/>
<path opacity="0.5" d="M239.827 356.28V362.15C239.827 365.447 237.641 368.72 233.304 371.244L191.028 395.629C186.402 398.098 181.234 399.381 175.99 399.361V393.515C181.234 393.535 186.402 392.253 191.028 389.783L233.304 365.374C237.641 362.874 239.827 359.577 239.827 356.28Z" fill="black"/>
<path d="M4.83157 414.494C6.42444 415.264 8.17576 415.648 9.94442 415.617C11.7131 415.585 13.4496 415.139 15.0141 414.313L300.077 249.754C301.605 248.757 302.877 247.415 303.79 245.835C304.703 244.255 305.231 242.482 305.331 240.66V10.072C305.277 8.29949 304.804 6.5649 303.952 5.00965C303.099 3.4544 301.892 2.12248 300.427 1.12246C298.836 0.352328 297.086 -0.0315505 295.319 0.00202768C293.551 0.0356059 291.817 0.485693 290.257 1.3157L5.19394 165.923C3.67075 166.926 2.40628 168.275 1.50365 169.86C0.601013 171.444 0.0857898 173.22 0 175.042V405.593C0.0538807 407.351 0.518997 409.072 1.35805 410.618C2.1971 412.164 3.38674 413.491 4.83157 414.494Z" fill="#414141"/>
<path d="M15.0504 414.301L300.113 249.742C301.644 248.748 302.917 247.405 303.83 245.825C304.744 244.244 305.27 242.47 305.367 240.648V10.0721C305.367 6.72652 303.012 5.36174 300.113 7.04055L15.0504 171.599C13.5212 172.596 12.2485 173.938 11.3355 175.518C10.4226 177.099 9.89514 178.872 9.79602 180.694V411.27C9.79602 414.615 12.1514 415.98 15.0504 414.301Z" fill="#414141"/>
<path opacity="0.5" d="M15.0504 414.301L300.113 249.742C301.644 248.748 302.917 247.405 303.83 245.825C304.744 244.244 305.27 242.47 305.367 240.648V10.0721C305.367 6.72652 303.012 5.36174 300.113 7.04055L15.0504 171.599C13.5212 172.596 12.2485 173.938 11.3355 175.518C10.4226 177.099 9.89514 178.872 9.79602 180.694V411.27C9.79602 414.615 12.1514 415.98 15.0504 414.301Z" fill="black"/>
<path d="M14.2773 420.292C12.7825 420.944 11.1639 421.265 9.53323 421.231C7.90254 421.198 6.29846 420.812 4.83157 420.099C3.38352 419.093 2.1919 417.761 1.35269 416.211C0.513476 414.661 0.0501413 412.935 0 411.173V390.182L9.84433 395.883V416.874C9.78393 419.929 11.7286 421.318 14.2773 420.292Z" fill="#414141"/>
<path opacity="0.5" d="M14.2773 420.292C12.7825 420.944 11.1639 421.265 9.53323 421.231C7.90254 421.198 6.29846 420.812 4.83157 420.099C3.38352 419.093 2.1919 417.761 1.35269 416.211C0.513476 414.661 0.0501413 412.935 0 411.173V390.182L9.84433 395.883V416.874C9.78393 419.929 11.7286 421.318 14.2773 420.292Z" fill="black"/>
<path d="M9.78394 395.883V416.874C9.78394 420.219 12.1997 421.572 15.0383 419.905L300.101 255.346C301.623 254.354 302.891 253.019 303.804 251.448C304.716 249.877 305.248 248.114 305.355 246.3V225.212L9.78394 395.883Z" fill="#414141"/>
<path opacity="0.3" d="M9.79602 395.834V416.874C9.79602 420.219 12.2118 421.572 15.0504 419.905L300.113 255.346C301.633 254.353 302.899 253.017 303.809 251.446C304.72 249.875 305.249 248.113 305.355 246.3V225.212L9.79602 395.834Z" fill="black"/>
<path d="M19.6404 369.493V183.967C19.6966 182.874 20.0104 181.81 20.5561 180.861C21.1019 179.912 21.8642 179.106 22.7809 178.508L292.31 22.8624C294.049 21.8599 295.463 22.6691 295.463 24.674V210.296C295.404 211.39 295.088 212.455 294.54 213.404C293.992 214.352 293.228 215.158 292.31 215.756L22.793 371.365C21.0536 372.367 19.6404 371.546 19.6404 369.493Z" fill="#414141"/>
<path d="M19.6404 369.493V183.967C19.6966 182.874 20.0104 181.81 20.5561 180.861C21.1019 179.912 21.8642 179.106 22.7809 178.508L292.31 22.8624C294.049 21.8599 295.463 22.6691 295.463 24.674V210.296C295.404 211.39 295.088 212.455 294.54 213.404C293.992 214.352 293.228 215.158 292.31 215.756L22.793 371.365C21.0536 372.367 19.6404 371.546 19.6404 369.493Z" fill="#263238"/>
<path d="M157.57 317.233C156.135 318.166 154.941 319.424 154.084 320.906C153.228 322.388 152.734 324.051 152.641 325.759C152.641 328.9 154.852 330.18 157.57 328.61C159.006 327.676 160.201 326.415 161.058 324.931C161.914 323.447 162.407 321.782 162.498 320.071C162.498 316.931 160.287 315.662 157.57 317.233Z" fill="#414141"/>
<path opacity="0.7" d="M11.3421 175.501C10.406 177.074 9.8709 178.853 9.78393 180.682V395.883L0 390.182V175.042C0.0633764 173.207 0.595654 171.419 1.5461 169.848L11.3421 175.501Z" fill="black"/>
<path opacity="0.3" d="M305.307 9.20246C304.932 6.49705 302.746 5.57915 300.101 7.04055L15.0383 171.599C13.4927 172.566 12.217 173.908 11.33 175.501L1.47363 169.812C2.36649 168.22 3.64593 166.878 5.19394 165.911L290.257 1.36402C291.819 0.533898 293.556 0.0837897 295.325 0.0502145C297.094 0.0166392 298.846 0.400543 300.439 1.17078C301.778 2.08308 302.906 3.27225 303.746 4.65788C304.585 6.04352 305.118 7.59331 305.307 9.20246Z" fill="black"/>
<path d="M320.684 37.5851C320.26 37.3726 319.787 37.2795 319.314 37.3157C318.842 37.3518 318.388 37.516 318.002 37.7904L49.0286 193.158C47.9673 193.86 47.0862 194.802 46.4567 195.908C45.8271 197.014 45.4668 198.252 45.4049 199.523V383.914C45.3673 384.536 45.4909 385.158 45.7639 385.718C46.0368 386.279 46.4499 386.76 46.9631 387.114C47.555 387.44 50.7197 389.276 51.6618 389.783C51.9952 389.953 52.3676 390.031 52.7411 390.01C53.1146 389.989 53.4757 389.869 53.7877 389.663L322.701 234.295C323.762 233.593 324.643 232.651 325.273 231.545C325.902 230.439 326.263 229.201 326.325 227.93V42.5853C326.379 42.1169 326.301 41.6428 326.1 41.2161C325.9 40.7894 325.584 40.427 325.189 40.1697C324.585 39.7712 321.36 37.9837 320.684 37.5851Z" fill="#414141"/>
<path d="M53.7271 195.767L322.713 40.4595C324.742 39.2518 326.336 40.2421 326.336 42.5852V227.93C326.274 229.201 325.914 230.439 325.285 231.545C324.655 232.651 323.774 233.593 322.713 234.295L53.7271 389.663C51.6978 390.87 50.1034 388.926 50.1034 386.583V202.132C50.1672 200.861 50.5283 199.624 51.1576 198.518C51.787 197.413 52.6671 196.47 53.7271 195.767Z" fill="#FAFAFA"/>
<path d="M324.355 41.1601C325.068 41.1601 325.177 42.0538 325.177 42.5852V227.93C325.112 228.994 324.799 230.028 324.265 230.951C323.73 231.873 322.988 232.659 322.097 233.244L53.1473 388.612C52.9668 388.729 52.7583 388.796 52.5433 388.805C51.8669 388.805 51.3354 387.766 51.3354 386.583V202.132C51.3937 201.068 51.6965 200.032 52.2202 199.104C52.7439 198.176 53.4745 197.381 54.3552 196.781L323.317 41.4982C323.628 41.2975 323.986 41.1809 324.355 41.1601ZM324.355 39.9523C323.773 39.9771 323.207 40.1518 322.713 40.4596L53.7271 195.767C52.6671 196.47 51.787 197.413 51.1576 198.518C50.5283 199.624 50.1672 200.861 50.1034 202.132V386.583C50.1034 388.443 51.1422 390.013 52.5192 390.013C52.9457 390.005 53.3624 389.884 53.7271 389.663L322.701 234.295C323.762 233.593 324.643 232.651 325.273 231.545C325.902 230.439 326.262 229.201 326.324 227.93V42.5852C326.324 40.9185 325.503 39.9523 324.295 39.9523H324.355Z" fill="#E0E0E0"/>
<path d="M46.8904 387.114C47.289 387.32 50.1517 388.95 51.4079 389.675C50.9568 389.301 50.5996 388.826 50.3647 388.289C50.1298 387.752 50.0237 387.168 50.0551 386.583V214.173L45.3443 211.42V383.914C45.3053 384.535 45.4271 385.156 45.6979 385.717C45.9687 386.277 46.3794 386.759 46.8904 387.114Z" fill="#F0F0F0"/>
<path d="M326.385 42.549C326.385 40.2301 324.73 39.288 322.761 40.4596L53.7271 195.767C52.6671 196.47 51.787 197.413 51.1576 198.518C50.5283 199.624 50.1672 200.861 50.1034 202.132V214.21L326.385 54.6267V42.549Z" fill="#414141"/>
<g opacity="0.4">
<path d="M322.713 40.4596L53.7271 195.755C52.6475 196.436 51.7582 197.379 51.1422 198.496L46.4677 195.779C47.0826 194.7 47.9644 193.798 49.0284 193.158L318.002 37.7904C318.387 37.514 318.84 37.3477 319.312 37.3094C319.785 37.2711 320.259 37.3622 320.683 37.573C321.336 37.9836 324.392 39.7107 325.177 40.1335C324.771 39.9829 324.334 39.9338 323.904 39.9907C323.475 40.0475 323.066 40.2085 322.713 40.4596Z" fill="white"/>
</g>
<path opacity="0.15" d="M45.3443 211.432V199.463C45.3939 198.158 45.781 196.889 46.4676 195.779L51.1543 198.484C50.4774 199.575 50.0984 200.825 50.0551 202.108V214.185L45.3443 211.432Z" fill="black"/>
<path d="M269.662 181.588L108.565 274.586C107.782 275.094 107.13 275.781 106.662 276.589C106.194 277.397 105.923 278.304 105.872 279.236V325.421C105.923 326.354 106.194 327.261 106.662 328.069C107.13 328.877 107.782 329.563 108.565 330.071L113.264 332.777C114.099 333.199 115.022 333.419 115.958 333.419C116.894 333.419 117.816 333.199 118.651 332.777L279.724 239.778C280.507 239.267 281.16 238.579 281.628 237.769C282.096 236.959 282.366 236.05 282.417 235.116V188.919C282.366 187.987 282.096 187.079 281.628 186.271C281.159 185.463 280.507 184.777 279.724 184.269L275.013 181.564C274.182 181.148 273.264 180.934 272.335 180.938C271.405 180.942 270.49 181.165 269.662 181.588Z" fill="#414141"/>
<path opacity="0.5" d="M282.417 188.508C282.224 187.119 281.101 186.612 279.748 187.397L118.651 280.396C117.857 280.889 117.204 281.58 116.755 282.4L106.669 276.579C107.121 275.771 107.769 275.09 108.553 274.598L269.662 181.6C270.495 181.177 271.416 180.956 272.35 180.956C273.284 180.956 274.205 181.177 275.037 181.6L279.748 184.305C280.466 184.776 281.076 185.394 281.536 186.119C281.996 186.844 282.297 187.658 282.417 188.508Z" fill="white"/>
<path d="M118.192 333.006C117.404 333.317 116.558 333.458 115.711 333.421C114.864 333.383 114.034 333.168 113.276 332.789L108.565 330.083C107.783 329.574 107.132 328.887 106.664 328.079C106.196 327.272 105.925 326.365 105.872 325.433V279.248C105.908 278.305 106.182 277.387 106.669 276.579L116.755 282.4C116.265 283.198 115.99 284.11 115.958 285.045V331.243C115.958 332.777 116.924 333.489 118.192 333.006Z" fill="#263238"/>
<path d="M118.651 280.396L279.748 187.397C281.234 186.54 282.442 187.228 282.442 188.943V235.14C282.39 236.074 282.12 236.983 281.652 237.793C281.184 238.603 280.532 239.291 279.748 239.802L118.675 332.801C117.19 333.658 115.982 332.958 115.982 331.243V285.057C116.03 284.126 116.297 283.218 116.761 282.408C117.225 281.599 117.872 280.909 118.651 280.396Z" fill="#414141"/>
<path d="M226.951 206.25L108.577 274.598C107.793 275.09 107.145 275.771 106.693 276.579L116.779 282.4C117.228 281.58 117.881 280.889 118.675 280.395L237.049 212.06L226.951 206.25Z" fill="#455A64"/>
<path d="M237.025 212.06L118.651 280.396C117.868 280.906 117.215 281.595 116.747 282.405C116.279 283.215 116.009 284.123 115.958 285.057V331.231C115.958 332.946 117.166 333.646 118.651 332.789L237.025 264.453V212.06Z" fill="#37474F"/>
<path d="M145.95 274.767L207.033 239.512C209.557 238.051 211.611 239.09 211.611 241.831C211.498 243.371 211.023 244.863 210.226 246.185C209.428 247.507 208.33 248.622 207.021 249.44L145.95 284.707C143.425 286.169 141.36 285.13 141.36 282.388C141.474 280.847 141.948 279.354 142.746 278.031C143.543 276.707 144.641 275.589 145.95 274.767Z" fill="#414141"/>
<path d="M158.463 286.446C158.475 286.434 158.489 286.423 158.504 286.416C158.52 286.409 158.537 286.406 158.554 286.406C158.571 286.406 158.588 286.409 158.604 286.416C158.619 286.423 158.633 286.434 158.645 286.446C158.699 286.528 158.724 286.626 158.717 286.724V293.596C158.718 294.26 158.661 294.923 158.548 295.577C158.448 296.175 158.278 296.759 158.041 297.316C157.824 297.827 157.54 298.307 157.195 298.742C156.855 299.145 156.446 299.484 155.987 299.744C155.628 299.978 155.208 300.104 154.779 300.106C154.615 300.093 154.456 300.047 154.31 299.97C154.165 299.893 154.037 299.788 153.934 299.659C153.669 299.304 153.495 298.89 153.427 298.452C153.311 297.867 153.258 297.272 153.27 296.676V289.792C153.269 289.671 153.294 289.552 153.342 289.442C153.372 289.342 153.436 289.256 153.523 289.2L154.284 288.753C154.309 288.73 154.341 288.718 154.375 288.718C154.408 288.718 154.441 288.73 154.465 288.753C154.521 288.835 154.547 288.933 154.538 289.031V295.819C154.529 296.192 154.565 296.565 154.647 296.93C154.68 297.163 154.781 297.381 154.936 297.558C154.991 297.623 155.059 297.674 155.137 297.707C155.215 297.741 155.299 297.756 155.383 297.751C155.59 297.738 155.79 297.671 155.963 297.558C156.178 297.43 156.373 297.271 156.543 297.087C156.731 296.87 156.886 296.625 157.002 296.362C157.138 296.052 157.239 295.728 157.304 295.396C157.374 294.997 157.407 294.593 157.4 294.188V287.388C157.404 287.267 157.433 287.148 157.485 287.038C157.515 286.939 157.579 286.853 157.666 286.797L158.463 286.446Z" fill="#FAFAFA"/>
<path d="M163.198 292.944C163.205 292.856 163.184 292.767 163.138 292.691C163.109 292.659 163.073 292.635 163.034 292.62C162.994 292.606 162.951 292.601 162.908 292.606C162.76 292.586 162.61 292.586 162.462 292.606L161.761 292.739C161.535 292.795 161.299 292.795 161.072 292.739C160.895 292.682 160.742 292.567 160.638 292.413C160.519 292.217 160.441 291.999 160.408 291.773C160.29 291.126 160.29 290.463 160.408 289.816C160.499 289.445 160.628 289.085 160.795 288.741C160.96 288.398 161.163 288.074 161.399 287.775C161.627 287.49 161.905 287.249 162.22 287.062C162.474 286.908 162.758 286.809 163.053 286.773C163.268 286.75 163.483 286.797 163.669 286.905C163.847 287.013 163.986 287.174 164.068 287.364C164.165 287.59 164.219 287.832 164.225 288.077C164.238 288.198 164.212 288.321 164.153 288.427C164.123 288.527 164.059 288.612 163.971 288.669L163.247 289.091C163.214 289.111 163.176 289.121 163.138 289.121C163.1 289.121 163.062 289.111 163.029 289.091L162.872 288.971C162.81 288.921 162.734 288.892 162.655 288.886C162.5 288.903 162.351 288.957 162.22 289.043C162.03 289.157 161.863 289.305 161.725 289.478C161.579 289.668 161.502 289.902 161.507 290.142C161.49 290.234 161.49 290.328 161.507 290.42C161.53 290.454 161.561 290.483 161.596 290.504C161.632 290.524 161.672 290.537 161.713 290.541C161.845 290.563 161.979 290.563 162.111 290.541L162.788 290.42C163.355 290.311 163.742 290.42 163.996 290.734C164.262 291.182 164.384 291.7 164.346 292.22C164.343 292.579 164.294 292.936 164.201 293.282C164.105 293.659 163.968 294.024 163.79 294.369C163.613 294.727 163.389 295.06 163.126 295.36C162.876 295.653 162.578 295.902 162.244 296.097C161.979 296.266 161.676 296.37 161.362 296.399C161.135 296.407 160.911 296.343 160.722 296.217C160.536 296.09 160.392 295.909 160.312 295.698C160.214 295.469 160.165 295.222 160.167 294.973C160.155 294.848 160.18 294.722 160.239 294.611C160.269 294.511 160.333 294.426 160.42 294.369L161.145 293.947C161.242 293.947 161.314 293.886 161.362 293.947L161.519 294.116C161.552 294.152 161.59 294.181 161.634 294.202C161.678 294.223 161.725 294.234 161.773 294.237C161.943 294.237 162.109 294.182 162.244 294.08C162.462 293.956 162.658 293.797 162.824 293.609C162.906 293.509 162.975 293.4 163.029 293.282C163.115 293.187 163.173 293.07 163.198 292.944Z" fill="#FAFAFA"/>
<path d="M165.662 289.671C165.66 289.044 165.713 288.417 165.82 287.799C165.92 287.217 166.078 286.647 166.291 286.096C166.468 285.603 166.712 285.135 167.015 284.707C167.269 284.339 167.598 284.03 167.982 283.801C168.262 283.613 168.603 283.54 168.936 283.596C169.231 283.664 169.49 283.841 169.661 284.091C169.888 284.419 170.048 284.788 170.132 285.178C170.248 285.685 170.304 286.204 170.301 286.724V287.473C170.305 287.599 170.275 287.724 170.216 287.835C170.187 287.935 170.122 288.021 170.035 288.077L166.895 289.901C166.887 290.113 166.916 290.326 166.979 290.529C167.026 290.665 167.109 290.787 167.221 290.879C167.32 290.958 167.445 290.996 167.571 290.988C167.717 290.97 167.857 290.921 167.982 290.843C168.164 290.744 168.328 290.613 168.465 290.456C168.588 290.317 168.694 290.163 168.779 289.997C168.83 289.902 168.887 289.809 168.948 289.72C169 289.658 169.061 289.605 169.129 289.563L169.878 289.128C169.904 289.107 169.936 289.096 169.969 289.096C170.002 289.096 170.034 289.107 170.059 289.128C170.091 289.166 170.114 289.211 170.126 289.259C170.139 289.307 170.141 289.357 170.132 289.406C170.118 289.641 170.07 289.873 169.987 290.094C169.883 290.429 169.745 290.753 169.576 291.06C169.387 291.414 169.16 291.746 168.9 292.051C168.64 292.362 168.329 292.627 167.982 292.836C167.696 293.023 167.354 293.104 167.015 293.065C166.718 292.994 166.459 292.812 166.291 292.558C166.053 292.192 165.893 291.781 165.82 291.35C165.71 290.797 165.657 290.235 165.662 289.671ZM167.982 285.818C167.796 285.918 167.635 286.059 167.511 286.229C167.377 286.398 167.267 286.585 167.184 286.785C167.1 286.984 167.031 287.19 166.979 287.401C166.937 287.591 166.908 287.785 166.895 287.98L169.02 286.773C169.008 286.606 168.984 286.441 168.948 286.277C168.929 286.131 168.871 285.994 168.779 285.879C168.743 285.827 168.696 285.783 168.642 285.749C168.588 285.716 168.528 285.694 168.465 285.686C168.293 285.671 168.122 285.718 167.982 285.818Z" fill="#FAFAFA"/>
<path d="M174.094 282.449C173.728 282.658 173.439 282.98 173.272 283.367C173.084 283.876 172.998 284.418 173.019 284.961V289.321C173.02 289.445 172.996 289.569 172.946 289.683C172.916 289.783 172.852 289.869 172.765 289.925L172.052 290.335C172.041 290.348 172.027 290.359 172.011 290.366C171.996 290.373 171.979 290.376 171.962 290.376C171.945 290.376 171.928 290.373 171.912 290.366C171.896 290.359 171.882 290.348 171.871 290.335C171.817 290.253 171.792 290.156 171.799 290.058V282.243C171.799 282.119 171.824 281.996 171.871 281.881C171.905 281.784 171.968 281.699 172.052 281.64L172.765 281.229C172.789 281.206 172.822 281.193 172.855 281.193C172.889 281.193 172.921 281.206 172.946 281.229C173.002 281.306 173.028 281.4 173.019 281.495V281.881C173.163 281.557 173.341 281.249 173.55 280.963C173.741 280.699 173.989 280.48 174.275 280.323L174.71 280.069C174.732 280.047 174.763 280.035 174.794 280.035C174.826 280.035 174.856 280.047 174.879 280.069C174.937 280.15 174.967 280.248 174.963 280.347V281.446C174.961 281.572 174.932 281.695 174.879 281.809C174.848 281.904 174.789 281.989 174.71 282.05L174.094 282.449Z" fill="#FAFAFA"/>
<path d="M183.104 281.869C183.116 281.856 183.13 281.846 183.145 281.839C183.161 281.832 183.178 281.828 183.195 281.828C183.212 281.828 183.229 281.832 183.245 281.839C183.26 281.846 183.274 281.856 183.286 281.869C183.34 281.951 183.365 282.049 183.358 282.147V283.355C183.357 283.479 183.333 283.602 183.286 283.717C183.244 283.807 183.182 283.885 183.104 283.946L178.973 286.362C178.949 286.385 178.916 286.398 178.883 286.398C178.849 286.398 178.817 286.385 178.792 286.362C178.738 286.284 178.713 286.19 178.72 286.096V275.226C178.72 275.102 178.745 274.979 178.792 274.864C178.826 274.77 178.89 274.689 178.973 274.634L179.734 274.188C179.759 274.165 179.791 274.152 179.825 274.152C179.859 274.152 179.891 274.165 179.916 274.188C179.97 274.265 179.995 274.359 179.988 274.453V283.644L183.104 281.869Z" fill="#FAFAFA"/>
<path d="M186.813 272.931C187.085 272.743 187.413 272.654 187.743 272.678C188.026 272.7 188.289 272.83 188.48 273.04C188.705 273.299 188.87 273.604 188.963 273.934C189.092 274.362 189.165 274.804 189.18 275.25C189.18 275.347 189.18 275.48 189.18 275.637V276.567C189.18 276.712 189.18 276.845 189.18 276.953C189.156 277.478 189.083 278 188.963 278.511C188.851 279.01 188.689 279.495 188.48 279.961C188.288 280.394 188.04 280.8 187.743 281.168C187.488 281.502 187.172 281.785 186.813 282.002C186.533 282.184 186.203 282.272 185.871 282.255C185.592 282.231 185.332 282.102 185.146 281.893C184.914 281.644 184.748 281.341 184.663 281.011C184.534 280.584 184.461 280.141 184.445 279.695C184.445 279.598 184.445 279.478 184.445 279.321V278.391C184.445 278.234 184.445 278.101 184.445 278.004C184.459 277.475 184.528 276.949 184.651 276.434C184.768 275.932 184.934 275.443 185.146 274.973C185.338 274.542 185.581 274.137 185.871 273.765C186.127 273.428 186.447 273.144 186.813 272.931ZM187.948 276.048C187.948 275.78 187.903 275.515 187.815 275.262C187.77 275.109 187.677 274.973 187.55 274.876C187.447 274.807 187.322 274.777 187.199 274.791C187.061 274.817 186.93 274.871 186.813 274.948C186.671 275.026 186.541 275.124 186.426 275.238C186.288 275.382 186.17 275.545 186.076 275.721C185.955 275.941 185.865 276.177 185.81 276.422C185.731 276.73 185.682 277.046 185.665 277.364C185.665 277.461 185.665 277.569 185.665 277.702V278.56C185.665 278.693 185.665 278.801 185.665 278.874C185.676 279.141 185.725 279.405 185.81 279.659C185.854 279.813 185.948 279.949 186.076 280.045C186.126 280.081 186.183 280.106 186.243 280.118C186.304 280.131 186.366 280.13 186.426 280.118C186.563 280.095 186.694 280.045 186.813 279.973C186.953 279.892 187.082 279.795 187.199 279.683C187.334 279.536 187.452 279.374 187.55 279.2C187.666 278.978 187.755 278.743 187.815 278.499C187.894 278.191 187.939 277.875 187.948 277.557C187.955 277.445 187.955 277.332 187.948 277.219V276.374C187.955 276.265 187.955 276.156 187.948 276.048Z" fill="#FAFAFA"/>
<path d="M192.876 279.997C193.031 279.903 193.169 279.784 193.287 279.647C193.432 279.476 193.558 279.29 193.661 279.091C193.781 278.848 193.875 278.593 193.939 278.33C194.014 278.034 194.05 277.73 194.048 277.424V276.808C194.048 276.929 193.927 277.074 193.843 277.243C193.76 277.42 193.663 277.59 193.553 277.751C193.427 277.92 193.289 278.082 193.142 278.234C192.991 278.392 192.815 278.527 192.623 278.632C192.499 278.717 192.359 278.776 192.211 278.805C192.064 278.834 191.912 278.833 191.765 278.801C191.497 278.717 191.266 278.542 191.113 278.306C190.916 277.994 190.773 277.651 190.69 277.292C190.587 276.835 190.53 276.37 190.521 275.903C190.521 275.746 190.521 275.552 190.521 275.323C190.521 275.093 190.521 274.9 190.521 274.731C190.536 274.2 190.593 273.671 190.69 273.149C190.789 272.635 190.931 272.13 191.113 271.639C191.284 271.213 191.502 270.808 191.765 270.431C191.988 270.099 192.28 269.818 192.623 269.61C192.783 269.514 192.959 269.444 193.142 269.405C193.278 269.38 193.417 269.38 193.553 269.405C193.66 269.435 193.759 269.489 193.843 269.562C193.92 269.621 193.989 269.69 194.048 269.767V269.381C194.049 269.256 194.073 269.133 194.12 269.018C194.154 268.924 194.218 268.844 194.302 268.789L195.014 268.366C195.039 268.343 195.071 268.33 195.105 268.33C195.139 268.33 195.171 268.343 195.195 268.366C195.254 268.447 195.284 268.544 195.28 268.644V276.494C195.313 277.67 195.094 278.84 194.64 279.924C194.283 280.778 193.666 281.496 192.876 281.978C192.607 282.145 192.299 282.241 191.982 282.255C191.732 282.271 191.483 282.207 191.27 282.074C191.066 281.922 190.9 281.723 190.787 281.495C190.669 281.219 190.603 280.924 190.593 280.625C190.582 280.5 190.607 280.374 190.666 280.263C190.695 280.163 190.76 280.077 190.847 280.021L191.487 279.659C191.502 279.643 191.52 279.631 191.539 279.622C191.559 279.613 191.58 279.609 191.602 279.609C191.624 279.609 191.645 279.613 191.665 279.622C191.684 279.631 191.702 279.643 191.717 279.659C191.776 279.721 191.829 279.79 191.874 279.864C191.947 279.994 192.069 280.089 192.212 280.13C192.357 280.239 192.574 280.118 192.876 279.997ZM191.741 274.139C191.741 274.461 191.741 274.775 191.741 275.081C191.706 275.564 191.843 276.043 192.127 276.434C192.235 276.527 192.372 276.578 192.514 276.578C192.656 276.578 192.793 276.527 192.9 276.434C193.251 276.206 193.525 275.878 193.686 275.492C193.906 274.988 194.029 274.447 194.048 273.898C194.048 273.717 194.048 273.499 194.048 273.246C194.048 272.992 194.048 272.774 194.048 272.617C194.073 272.185 193.944 271.757 193.686 271.41C193.579 271.311 193.438 271.257 193.293 271.257C193.148 271.257 193.008 271.311 192.9 271.41C192.557 271.637 192.288 271.96 192.127 272.34C191.879 272.908 191.748 273.52 191.741 274.139Z" fill="#FAFAFA"/>
<path d="M198.094 263.414C198.118 263.395 198.148 263.384 198.179 263.384C198.21 263.384 198.24 263.395 198.264 263.414C198.327 263.492 198.357 263.592 198.348 263.692V265.008C198.349 265.134 198.32 265.258 198.264 265.371C198.23 265.462 198.171 265.541 198.094 265.6L197.285 266.071C197.274 266.084 197.26 266.094 197.244 266.102C197.229 266.109 197.212 266.112 197.195 266.112C197.177 266.112 197.16 266.109 197.145 266.102C197.129 266.094 197.115 266.084 197.104 266.071C197.072 266.035 197.049 265.993 197.034 265.947C197.02 265.902 197.015 265.853 197.019 265.806V264.489C197.019 264.363 197.048 264.239 197.104 264.127C197.138 264.033 197.201 263.952 197.285 263.897L198.094 263.414ZM198.3 274.755C198.3 274.876 198.275 274.995 198.227 275.105C198.189 275.2 198.126 275.283 198.046 275.347L197.321 275.758C197.311 275.77 197.298 275.78 197.284 275.787C197.269 275.794 197.253 275.798 197.237 275.798C197.221 275.798 197.205 275.794 197.19 275.787C197.175 275.78 197.162 275.77 197.152 275.758C197.089 275.68 197.059 275.58 197.068 275.48V267.666C197.067 267.54 197.096 267.416 197.152 267.303C197.186 267.209 197.245 267.126 197.321 267.062L198.046 266.651C198.071 266.628 198.103 266.615 198.137 266.615C198.17 266.615 198.203 266.628 198.227 266.651C198.281 266.729 198.307 266.822 198.3 266.917V274.755Z" fill="#FAFAFA"/>
<path d="M204.653 271.071C204.653 271.196 204.628 271.319 204.581 271.434C204.547 271.528 204.483 271.609 204.4 271.663L203.675 272.086C203.652 272.108 203.622 272.121 203.59 272.121C203.559 272.121 203.528 272.108 203.506 272.086C203.443 272.008 203.412 271.908 203.421 271.808V267.557C203.458 267.055 203.367 266.552 203.155 266.095C202.986 265.794 202.721 265.745 202.346 265.963C201.973 266.214 201.696 266.584 201.561 267.013C201.359 267.583 201.261 268.184 201.271 268.789V273.052C201.271 273.177 201.246 273.3 201.199 273.415C201.169 273.514 201.105 273.6 201.017 273.656L200.305 274.067C200.294 274.08 200.28 274.09 200.264 274.097C200.248 274.104 200.231 274.108 200.214 274.108C200.197 274.108 200.18 274.104 200.165 274.097C200.149 274.09 200.135 274.08 200.124 274.067C200.068 273.99 200.042 273.896 200.051 273.801V265.987C200.049 265.862 200.074 265.739 200.124 265.624C200.153 265.525 200.218 265.439 200.305 265.383L201.017 264.972C201.029 264.959 201.043 264.949 201.058 264.942C201.074 264.935 201.091 264.931 201.108 264.931C201.125 264.931 201.142 264.935 201.158 264.942C201.173 264.949 201.187 264.959 201.199 264.972C201.253 265.054 201.278 265.152 201.271 265.25V265.624C201.43 265.256 201.624 264.904 201.851 264.574C202.05 264.269 202.319 264.016 202.636 263.837C202.911 263.636 203.253 263.55 203.59 263.595C203.724 263.629 203.849 263.691 203.957 263.776C204.066 263.861 204.155 263.968 204.218 264.091C204.394 264.417 204.508 264.774 204.557 265.141C204.621 265.622 204.653 266.106 204.653 266.591V271.071Z" fill="#FAFAFA"/>
<path d="M265.579 235.913L253.851 242.677L255.675 226.227C254.261 225.478 253.368 223.654 253.368 221.034C253.368 216.359 256.218 210.937 259.721 208.956C263.224 206.975 266.062 209.077 266.062 213.787C265.99 216.558 265.199 219.263 263.767 221.637L265.579 235.913Z" fill="#455A64"/>
<path d="M265.591 235.913L255.264 229.959L253.851 242.689L265.591 235.913Z" fill="#37474F"/>
<path d="M259.697 208.92C257.143 210.645 255.238 213.174 254.286 216.106L263.743 221.565C265.175 219.191 265.966 216.486 266.038 213.714C266.062 209.04 263.224 206.903 259.697 208.92Z" fill="#37474F"/>
<path d="M202.684 154.147C198.662 151.828 193.118 152.154 186.982 155.693C174.734 162.771 164.805 179.957 164.805 194.1C164.805 201.202 167.317 206.178 171.352 208.473L179.167 213.014C183.177 215.333 188.721 214.995 194.869 211.456C207.117 204.39 217.046 187.192 217.046 173.049C217.046 165.983 214.558 160.971 210.548 158.712" fill="#414141"/>
<path d="M194.857 160.246C182.609 167.324 172.68 184.523 172.68 198.654C172.68 212.784 182.609 218.533 194.857 211.456C207.105 204.378 217.046 187.192 217.034 173.049C217.022 158.906 207.093 153.181 194.857 160.246Z" fill="#414141"/>
<path d="M207.093 191.624V193.243C204.159 198.48 199.95 202.891 194.857 206.069C190.086 208.811 185.774 209.113 182.609 207.362V204.028C182.771 200.56 183.762 197.181 185.497 194.174C187.233 191.167 189.664 188.62 192.586 186.745L195.811 184.885C198.662 183.242 201.44 183.025 203.614 184.293C205.789 185.561 207.093 188.23 207.093 191.624Z" fill="#414141"/>
<path opacity="0.4" d="M202.684 154.147L210.536 158.712C206.526 156.381 200.981 156.708 194.833 160.246C186.813 164.884 179.783 173.858 175.893 183.472L168.03 178.919C171.931 169.256 178.901 160.331 186.97 155.693C193.13 152.166 198.674 151.828 202.684 154.147Z" fill="white"/>
<path opacity="0.2" d="M178.889 212.833L171.364 208.473C167.329 206.178 164.817 201.226 164.817 194.1L172.68 198.666C172.729 205.55 175.048 210.453 178.889 212.833Z" fill="black"/>
<path opacity="0.1" d="M168.054 178.919L175.918 183.472C173.903 188.285 172.821 193.437 172.729 198.654L164.865 194.088C164.962 188.876 166.044 183.729 168.054 178.919Z" fill="black"/>
<path d="M192.055 184.124C191.306 184.132 190.568 183.94 189.917 183.568C189.133 183.046 188.504 182.321 188.098 181.47C187.692 180.62 187.523 179.676 187.61 178.737C187.712 176.537 188.341 174.393 189.442 172.485C190.543 170.577 192.085 168.96 193.939 167.771C194.684 167.176 195.591 166.82 196.541 166.749C197.492 166.679 198.441 166.896 199.266 167.374C200.091 167.851 200.752 168.567 201.164 169.426C201.576 170.286 201.718 171.249 201.573 172.191C201.469 174.391 200.84 176.534 199.739 178.442C198.638 180.35 197.097 181.967 195.244 183.158C194.285 183.756 193.185 184.09 192.055 184.124Z" fill="white"/>
<path d="M203.614 184.281C201.44 183.013 198.662 183.23 195.811 184.873L192.586 186.733C189.662 188.609 187.231 191.158 185.495 194.167C183.759 197.177 182.769 200.558 182.609 204.028V207.374C185.774 209.125 190.086 208.823 194.857 206.081C199.95 202.904 204.159 198.492 207.093 193.255V191.636C207.093 188.23 205.837 185.561 203.614 184.281Z" fill="white"/>
<path d="M451.933 393.226C451.933 393.226 453.54 379.119 460.557 368.164C467.575 357.21 477.214 350.386 486.213 349.673C495.212 348.961 502.483 357.246 492.857 362.959C483.23 368.672 466.126 374.445 458.25 395.702L451.933 393.226Z" fill="#414141"/>
<path opacity="0.1" d="M451.933 393.226C451.933 393.226 453.54 379.119 460.557 368.164C467.575 357.21 477.214 350.386 486.213 349.673C495.212 348.961 502.483 357.246 492.857 362.959C483.23 368.672 466.126 374.445 458.25 395.702L451.933 393.226Z" fill="black"/>
<path d="M454.578 389.554H454.482C454.363 389.506 454.269 389.413 454.219 389.295C454.169 389.177 454.168 389.044 454.216 388.926C463.71 365.556 481.78 355.785 490.018 353.901C490.08 353.886 490.144 353.884 490.206 353.895C490.269 353.905 490.329 353.928 490.383 353.962C490.437 353.995 490.483 354.039 490.52 354.091C490.557 354.143 490.583 354.201 490.598 354.263C490.612 354.325 490.614 354.389 490.603 354.451C490.593 354.514 490.57 354.574 490.537 354.628C490.503 354.682 490.459 354.728 490.407 354.765C490.356 354.802 490.297 354.828 490.235 354.843C482.167 356.703 464.447 366.292 455.11 389.3C455.063 389.397 454.985 389.474 454.889 389.52C454.792 389.567 454.683 389.578 454.578 389.554Z" fill="white"/>
<path d="M502.628 389.832C501.819 391.668 499.814 392.634 497.954 393.383C496.094 394.131 494.064 394.941 493.05 396.68C491.021 400.182 494.354 405.134 492.18 408.528C491.668 409.211 491.023 409.784 490.284 410.212C489.545 410.639 488.728 410.913 487.88 411.016C486.491 411.27 485.078 411.27 483.677 411.39C483.005 411.382 482.336 411.329 481.671 411.233C479.72 410.798 477.679 411.014 475.861 411.849C473.071 413.42 472.238 416.934 470.523 419.652C469.475 421.252 468.094 422.607 466.474 423.624C464.854 424.641 463.034 425.297 461.137 425.546C459.929 425.703 457.514 425.932 456.306 425.219C456.211 425.173 456.122 425.116 456.04 425.05C455.859 424.857 455.641 424.603 455.545 424.471C455.539 424.443 455.539 424.414 455.545 424.386C455.05 422.562 455.859 420.678 455.895 418.794V418.456C455.81 416.27 455.75 414.096 455.702 411.922C455.597 407.896 455.557 403.87 455.581 399.844C455.581 397.235 455.291 394.385 456.402 391.933C457.61 389.228 460.654 389.167 461.802 386.522C462.261 385.46 462.502 384.336 462.949 383.261C463.64 381.699 464.746 380.355 466.148 379.378C467.549 378.4 469.192 377.826 470.897 377.718C476.2 377.452 480.947 381.74 486.249 381.341C487.614 381.232 488.955 380.81 490.308 380.568C494.596 379.759 499.56 380.979 501.976 384.614C502.506 385.363 502.843 386.231 502.957 387.141C503.071 388.051 502.958 388.976 502.628 389.832Z" fill="#414141"/>
<path d="M455.013 416.016C454.899 415.983 454.802 415.906 454.744 415.802C454.685 415.698 454.669 415.576 454.699 415.461C462.019 387.996 490.936 384.059 497.736 384.518C497.796 384.521 497.855 384.536 497.909 384.562C497.963 384.588 498.011 384.625 498.05 384.67C498.09 384.715 498.119 384.767 498.138 384.824C498.157 384.881 498.164 384.941 498.159 385.001C498.147 385.118 498.09 385.226 498 385.303C497.91 385.379 497.794 385.418 497.676 385.411C491.045 384.94 462.732 388.817 455.569 415.702C455.535 415.816 455.458 415.913 455.355 415.972C455.251 416.03 455.128 416.046 455.013 416.016Z" fill="white"/>
<path d="M487.179 402.103C487.088 402.09 487.003 402.048 486.938 401.982C484.264 399.665 481.112 397.967 477.707 397.009C474.302 396.051 470.727 395.856 467.237 396.438C467.119 396.449 467.002 396.415 466.908 396.344C466.814 396.272 466.75 396.168 466.73 396.052C466.712 395.933 466.742 395.813 466.811 395.716C466.881 395.619 466.986 395.553 467.104 395.532C470.744 394.927 474.472 395.133 478.022 396.138C481.572 397.142 484.856 398.919 487.638 401.342C487.681 401.383 487.715 401.433 487.738 401.488C487.761 401.543 487.773 401.602 487.773 401.662C487.773 401.722 487.761 401.781 487.738 401.836C487.715 401.891 487.681 401.94 487.638 401.982C487.584 402.047 487.51 402.094 487.428 402.115C487.346 402.137 487.259 402.133 487.179 402.103Z" fill="white"/>
<path d="M385.463 61.5111L389.304 62.9846V54.5302C389.304 47.8149 394.655 46.2086 400.465 49.5662C406.287 52.9238 410.998 61.0763 410.998 67.7915V68.9993C411.807 68.7519 412.662 68.6908 413.499 68.8204C414.336 68.9501 415.132 69.2672 415.829 69.7481C418.035 71.1865 419.871 73.125 421.187 75.4062C422.503 77.6874 423.262 80.2468 423.403 82.8766V83.4321L428.766 86.524C430.217 87.471 431.424 88.7462 432.291 90.2464C433.157 91.7466 433.659 93.4297 433.754 95.1596C433.754 98.3481 431.52 99.6404 428.766 98.0462L385.463 73.0332C384.011 72.0884 382.803 70.8135 381.938 69.3126C381.073 67.8118 380.576 66.1276 380.486 64.3977C380.486 61.2212 382.697 59.9289 385.463 61.5111Z" fill="#E6E6E6"/>
<path d="M436.907 54.82L443.876 58.8419C443.838 58.5374 443.818 58.2309 443.816 57.924V55.907C443.816 52.2837 446.328 50.8585 449.445 52.6581C450.784 53.4779 451.929 54.5781 452.803 55.8829C453.31 51.3658 456.861 49.687 461.161 52.1629C463.619 53.7617 465.665 55.9168 467.134 58.4538C468.603 60.9907 469.453 63.838 469.617 66.7649V69.7843C469.648 70.9908 469.404 72.1885 468.904 73.2869L474.702 76.6203C475.605 77.2195 476.356 78.0223 476.893 78.9641C477.43 79.9059 477.739 80.9605 477.794 82.0432C477.794 84.036 476.393 84.8452 474.666 83.8549L436.907 62.115C435.994 61.52 435.234 60.7175 434.69 59.7729C434.147 58.8283 433.834 57.7684 433.778 56.68C433.778 54.6389 435.18 53.8297 436.907 54.82Z" fill="#E6E6E6"/>
<path d="M409.922 238.124C404.849 246.699 399.969 254.151 396.539 257.726C390.029 260.745 374.737 265.407 368.758 266.18C367.707 266.314 366.644 266.065 365.762 265.48C363.407 263.934 361.583 263.68 359.106 262.822C357.162 262.158 356.34 261.228 355.978 261.615C355.604 262.053 355.416 262.621 355.454 263.196C355.492 263.772 355.754 264.309 356.183 264.695C357.112 265.577 358.142 266.347 359.251 266.989C356.599 267.647 353.833 267.697 351.159 267.134C345.977 265.769 343.537 268.257 347.04 273.886C348.247 275.891 353.224 279.115 363.225 278.246C366.793 278.053 370.347 277.65 373.867 277.038C383.458 274.985 394.123 273.004 400.682 270.999C403.122 270.04 405.305 268.527 407.06 266.579C418.088 254.006 421.748 245.044 426.579 236.904L426.169 223.618C418.342 223.353 414.162 230.949 409.922 238.124Z" fill="#FFA8A7"/>
<path d="M427.509 223.353C425.24 223.034 422.926 223.341 420.819 224.241C418.711 225.142 416.89 226.601 415.551 228.461C410.188 235.334 400.694 251.832 400.694 251.832C400.694 251.832 403.798 260.105 412.181 261.494L425.649 243.305C425.649 243.305 432.027 230.672 427.509 223.353Z" fill="#455A64"/>
<path d="M456.632 408.794H447.85V424.447H456.632V408.794Z" fill="#FFA8A7"/>
<path d="M426.193 407.96L417.423 408.274L416.977 391.704L426.193 391.39V407.96Z" fill="#FFA8A7"/>
<path d="M457.864 273.294C457.864 282.014 456.583 352.27 456.583 352.27C456.777 354.782 458.999 359.42 458.552 369.07C457.888 382.175 457.006 416.62 457.006 416.62C455.499 417.391 453.836 417.81 452.143 417.843C450.45 417.877 448.771 417.525 447.234 416.813C447.234 416.813 440.108 368.503 438.537 355.567C437.16 344.226 433.633 306.689 433.633 306.689L428.886 351.062C429.893 355.823 430.258 360.698 429.974 365.556C429.563 371.594 426.736 402.852 426.736 402.852C425.219 403.746 423.518 404.284 421.763 404.425C420.007 404.565 418.242 404.304 416.602 403.661C416.602 403.661 411.601 356.558 411.505 351.026C411.384 344.746 414.428 273.221 414.428 273.221L457.864 273.294Z" fill="#37474F"/>
<path d="M447.85 419.929V418.625C447.005 418.999 445.06 426.753 441.569 430.063C438.803 432.696 435.035 435.727 434.068 438.662C433.102 441.597 439.323 443.396 441.92 442.925C444.915 442.37 450.133 440.16 451.438 438.094C452.742 436.029 453.358 433.034 454.421 431.536C455.484 430.038 457.936 428.372 458.504 426.633C458.681 425.005 458.512 423.359 458.009 421.801C457.598 420.183 457.163 418.408 456.632 418.565V419.555C455.393 420.571 453.837 421.119 452.235 421.101C450.955 421.21 447.838 420.944 447.85 419.929Z" fill="#263238"/>
<path d="M417.327 405.448C416.868 405.448 416.493 406.137 415.491 407.272C414 408.84 412.257 410.146 410.333 411.137C407.048 412.852 400.67 415.485 397.759 416.85C395.947 417.695 396.032 419.966 397.904 421.258C399.776 422.55 404.282 423.48 409.693 422.224C412.64 421.536 416.481 418.698 418.921 418.855C421.361 419.012 425.891 418.963 427.691 417.647C429.49 416.33 428.766 413.601 428.258 411.246C427.703 408.661 427.05 404.639 426.193 404.82V405.726C425.142 407.393 419.694 408.069 417.375 406.849L417.327 405.448Z" fill="#263238"/>
<path d="M433.633 306.689C429.065 305.194 424.889 302.697 421.41 299.382C421.41 299.382 423.825 303.983 430.783 308.271L429.285 347.898L433.633 306.689Z" fill="#263238"/>
<path d="M452.96 224.633C452.96 224.633 460.207 226.299 459.688 239.392L458.178 260.226V291.507C451.728 298.826 423.149 298.295 413.305 290.927C413.305 290.927 414.416 253.909 415.08 239.657C415.551 229.536 417.883 224.44 427.836 223.328L440.071 223.86L452.96 224.633Z" fill="#414141"/>
<path d="M443.731 197.434C443.773 199.186 443.467 200.93 442.832 202.564C442.196 204.198 441.244 205.69 440.029 206.955C438.814 208.219 437.361 209.23 435.753 209.93C434.146 210.63 432.415 211.005 430.662 211.033C423.415 211.033 419.163 204.777 417.593 197.434C414.694 183.991 423.439 183.822 430.662 183.822C434.2 183.895 437.564 185.37 440.015 187.922C442.466 190.475 443.803 193.896 443.731 197.434Z" fill="#263238"/>
<path d="M450.399 202.929C450.399 202.929 448.394 212.736 447.585 214.355C447.076 215.329 446.21 216.069 445.169 216.42L445.314 209.524L450.399 202.929Z" fill="#263238"/>
<path d="M447.875 188.883C447.875 188.883 449.312 188.52 450.846 190.912C452.15 192.953 452.452 197.542 450.399 202.989L446.618 203.448L447.875 188.883Z" fill="#263238"/>
<path d="M449.264 190.876L453.902 190.96C453.934 190.66 453.903 190.357 453.812 190.07C453.721 189.782 453.572 189.517 453.373 189.29C453.175 189.063 452.931 188.88 452.659 188.752C452.386 188.623 452.089 188.553 451.788 188.544C451.154 188.554 450.545 188.797 450.08 189.227C449.614 189.657 449.323 190.244 449.264 190.876Z" fill="#263238"/>
<path d="M449.831 189.776L453.262 186.479C453.064 186.246 452.82 186.057 452.546 185.923C452.271 185.789 451.972 185.713 451.666 185.7C451.361 185.688 451.056 185.739 450.772 185.85C450.487 185.961 450.228 186.13 450.012 186.346C449.557 186.791 449.286 187.391 449.253 188.026C449.219 188.661 449.426 189.286 449.831 189.776Z" fill="#263238"/>
<path d="M445.483 203.388C446.244 203.859 447.319 202.349 448.261 201.323C449.203 200.296 452.126 199.354 453.648 202.688C455.17 206.021 452.573 209.318 450.399 210.405C446.497 212.338 445.265 209.524 445.265 209.524L444.939 225.056C439.455 233.51 427.014 233.244 431.495 224.645V219.922C429.652 220.229 427.78 220.326 425.915 220.212C422.871 219.729 420.963 217.229 420.033 213.799C418.559 208.292 417.991 203.847 419.247 193.013C420.624 181.153 433.887 181.02 440.989 185.767C448.092 190.513 445.483 203.388 445.483 203.388Z" fill="#FFA8A7"/>
<path d="M428.959 191.165C432.124 190.851 435.252 190.199 438.429 189.958C439.114 189.875 439.808 189.907 440.482 190.054C442.898 190.719 442.608 193.545 442.995 195.513C443.659 198.919 444.202 204.68 445.483 204.705C445.869 204.705 447.319 202.204 448.261 201.311C448.779 200.541 449.072 199.641 449.107 198.714C449.348 197.313 449.469 195.876 449.578 194.451C449.674 193.243 449.795 192.035 449.795 190.827C449.85 189.462 449.741 188.096 449.469 186.757C449.166 185.618 448.585 184.572 447.778 183.713L447.536 183.448C445.944 181.783 444.012 180.482 441.871 179.631C438.791 178.477 435.561 177.774 432.281 177.542C429.004 177.31 425.743 176.907 422.509 176.334C422.323 176.28 422.126 176.28 421.941 176.334C421.81 176.407 421.699 176.511 421.619 176.638C421.539 176.764 421.492 176.909 421.482 177.059C421.35 177.809 421.432 178.582 421.721 179.287C422.01 179.993 422.492 180.602 423.113 181.044C420.926 181.213 418.414 180.078 416.312 179.498C416.142 179.426 415.959 179.389 415.775 179.389C415.59 179.389 415.407 179.426 415.237 179.498C415.026 179.646 414.876 179.865 414.814 180.114C414.662 180.682 414.641 181.277 414.754 181.853C414.946 183.601 415.596 185.268 416.638 186.685C418.266 188.804 420.566 190.307 423.161 190.948C425.071 191.316 427.026 191.39 428.959 191.165Z" fill="#263238"/>
<path d="M431.508 219.922C431.508 219.922 438.296 218.497 440.663 217.181C442.074 216.409 443.219 215.231 443.949 213.799C443.592 215.238 442.956 216.592 442.077 217.785C440.349 220.104 431.508 221.794 431.508 221.794V219.922Z" fill="#F28F8F"/>
<path d="M433.138 201.613C433.125 201.985 433.26 202.348 433.513 202.622C433.767 202.896 434.118 203.058 434.491 203.074C434.787 203.098 435.083 203.033 435.341 202.886C435.599 202.739 435.807 202.517 435.937 202.25C436.067 201.983 436.113 201.684 436.07 201.39C436.026 201.096 435.895 200.822 435.693 200.605C435.492 200.387 435.229 200.235 434.939 200.169C434.65 200.103 434.347 200.126 434.071 200.235C433.795 200.344 433.558 200.534 433.391 200.78C433.225 201.025 433.137 201.316 433.138 201.613Z" fill="#263238"/>
<path d="M435.312 195.755L438.223 197.434C438.435 197.02 438.483 196.541 438.358 196.094C438.233 195.646 437.943 195.262 437.547 195.018C437.354 194.91 437.14 194.843 436.92 194.822C436.7 194.8 436.478 194.825 436.267 194.894C436.057 194.964 435.864 195.076 435.699 195.224C435.535 195.372 435.403 195.553 435.312 195.755Z" fill="#263238"/>
<path d="M432.111 211.408L429.007 212.615C429.07 212.828 429.175 213.026 429.317 213.196C429.459 213.367 429.635 213.506 429.833 213.606C430.031 213.706 430.248 213.763 430.47 213.776C430.691 213.788 430.913 213.755 431.121 213.678C431.544 213.496 431.881 213.16 432.065 212.739C432.249 212.317 432.266 211.841 432.111 211.408Z" fill="#F28F8F"/>
<path d="M420.649 196.999L423.306 194.873C423.187 194.688 423.03 194.529 422.846 194.408C422.661 194.287 422.454 194.207 422.236 194.171C422.018 194.136 421.796 194.147 421.583 194.203C421.369 194.26 421.171 194.36 420.999 194.499C420.644 194.8 420.412 195.221 420.347 195.682C420.283 196.143 420.39 196.612 420.649 196.999Z" fill="#263238"/>
<path d="M421.82 201.214C421.841 201.478 421.939 201.731 422.101 201.94C422.263 202.15 422.483 202.308 422.734 202.395C422.984 202.482 423.255 202.494 423.512 202.429C423.769 202.365 424.002 202.227 424.182 202.033C424.362 201.838 424.482 201.596 424.526 201.334C424.571 201.073 424.538 200.804 424.432 200.561C424.327 200.318 424.152 200.111 423.931 199.965C423.709 199.819 423.45 199.741 423.185 199.741C422.998 199.747 422.815 199.79 422.645 199.868C422.475 199.945 422.322 200.056 422.195 200.193C422.068 200.33 421.97 200.491 421.906 200.666C421.841 200.841 421.812 201.027 421.82 201.214Z" fill="#263238"/>
<path d="M429.104 200.079L428.947 208.666L424.067 207.555L429.104 200.079Z" fill="#F28F8F"/>
<path d="M313.219 272.002L320.792 267.629L323.788 263.994L316.226 268.366L313.219 272.002Z" fill="#414141"/>
<path opacity="0.4" d="M313.219 272.002L320.792 267.629L323.788 263.994L316.226 268.366L313.219 272.002Z" fill="black"/>
<path d="M333.813 283.886L341.387 279.514L347.704 273.922L340.143 278.282L333.813 283.886Z" fill="#414141"/>
<path opacity="0.4" d="M333.813 283.886L341.387 279.514L347.704 273.922L340.143 278.282L333.813 283.886Z" fill="black"/>
<path d="M398.146 298.971C399.936 301.371 401.02 304.224 401.274 307.208C399.491 304.804 398.408 301.953 398.146 298.971ZM415.745 299.201C413.196 281.869 403.883 264.731 392.795 258.318C387.468 255.238 382.54 255.129 378.59 257.436L371.463 261.542L371.065 261.784C370.747 261.959 370.441 262.152 370.147 262.364C369.561 262.766 369.012 263.219 368.504 263.716L368.262 263.946C368.045 264.163 367.815 264.417 367.61 264.658C367.405 264.9 367.091 265.274 366.849 265.6C366.336 266.275 365.872 266.986 365.46 267.726C365.243 268.1 365.037 268.499 364.844 268.934L302.601 233.015L295.04 237.375V242.206L295.68 242.568L296.284 242.918V243.885L295.076 244.597V247.399L304.22 266.724L313.255 271.953L316.263 268.33L324.235 273.101L328.813 280.939L333.862 283.85L340.179 278.246L347.933 282.727L350.543 293.488L363.576 301.024C364.22 303.763 365.027 306.461 365.991 309.104C366.076 309.37 366.185 309.648 366.293 309.95C370.618 321.303 377.491 331.025 385.245 335.506C386.175 336.057 387.148 336.53 388.156 336.919C388.689 337.131 389.234 337.313 389.787 337.463C390.27 337.592 390.753 337.7 391.236 337.789C392.762 338.067 394.325 338.067 395.851 337.789L396.479 337.632C396.779 337.571 397.074 337.487 397.36 337.378L398.037 337.113C398.276 337.026 398.507 336.917 398.725 336.786C398.949 336.69 399.166 336.581 399.378 336.46L399.692 336.267C399.749 336.248 399.802 336.22 399.849 336.183C401.576 335.192 405.828 332.728 406.987 332.076C412.737 328.743 416.457 320.312 416.457 308.392C416.447 305.315 416.209 302.242 415.745 299.201Z" fill="#414141"/>
<path d="M395.935 313.597C392.94 311.87 390.524 306.749 390.524 302.16C390.524 297.57 392.94 295.239 395.935 296.954C398.931 298.669 401.334 303.802 401.334 308.404C401.334 313.005 398.919 315.324 395.935 313.597ZM408.171 303.561C405.635 286.241 396.322 269.091 385.221 262.69C380.076 259.719 375.316 259.501 371.451 261.542L371.053 261.784C370.735 261.959 370.429 262.152 370.135 262.364C369.549 262.766 369 263.219 368.492 263.716L368.25 263.946C368.033 264.163 367.803 264.417 367.598 264.658C367.393 264.9 367.079 265.274 366.837 265.6C366.324 266.275 365.86 266.986 365.448 267.726C365.23 268.1 365.025 268.499 364.832 268.934C363.706 271.268 362.893 273.742 362.416 276.289L295.028 237.375V242.206L295.668 242.568L296.272 242.918V243.885L295.064 244.597V247.399L304.208 266.724L313.243 271.953L316.25 268.33L324.223 273.101L328.8 280.939L333.849 283.85L340.167 278.246L347.921 282.727L350.53 293.488L363.576 301.024C364.22 303.763 365.027 306.461 365.991 309.104C366.076 309.37 366.185 309.648 366.293 309.95C370.618 321.303 377.491 331.025 385.245 335.506C386.175 336.057 387.148 336.53 388.156 336.919C388.689 337.131 389.234 337.313 389.787 337.463C390.27 337.592 390.753 337.7 391.236 337.789C392.762 338.067 394.325 338.067 395.851 337.789L396.479 337.632C396.779 337.571 397.074 337.487 397.36 337.378L398.037 337.113C398.276 337.026 398.507 336.917 398.725 336.786C398.949 336.69 399.166 336.581 399.378 336.46L399.692 336.267C399.749 336.248 399.802 336.22 399.849 336.183C405.357 332.704 408.896 324.395 408.896 312.764C408.876 309.683 408.633 306.607 408.171 303.561Z" fill="#414141"/>
<path opacity="0.4" d="M401.334 308.392C401.334 312.993 398.919 315.324 395.935 313.597C392.952 311.87 390.524 306.761 390.524 302.16C390.524 297.558 392.94 295.227 395.935 296.954C396.798 297.479 397.549 298.169 398.146 298.983C398.405 301.966 399.488 304.817 401.274 307.22C401.318 307.609 401.338 308 401.334 308.392Z" fill="black"/>
<path opacity="0.4" d="M416.433 308.38C416.433 320.3 412.713 328.731 406.963 332.064C405.755 332.716 401.552 335.18 399.825 336.17C405.333 332.692 408.872 324.383 408.872 312.752C408.859 309.675 408.625 306.604 408.171 303.561C405.635 286.241 396.322 269.091 385.221 262.69C380.075 259.719 375.316 259.501 371.451 261.542L378.578 257.436C382.528 255.129 387.456 255.238 392.782 258.317C403.883 264.731 413.196 281.869 415.732 299.201C416.193 302.239 416.427 305.307 416.433 308.38Z" fill="white"/>
<path d="M408.872 312.728C408.872 324.359 405.333 332.668 399.825 336.146C401.552 335.156 405.804 332.692 406.963 332.04C412.713 328.706 416.433 320.276 416.433 308.356C416.433 307.921 416.433 307.474 416.433 307.027L408.872 311.399C408.86 311.87 408.872 312.305 408.872 312.728Z" fill="#414141"/>
<path opacity="0.1" d="M408.872 312.728C408.872 324.359 405.333 332.668 399.825 336.146C401.552 335.156 405.804 332.692 406.963 332.04C412.713 328.706 416.433 320.276 416.433 308.356C416.433 307.921 416.433 307.474 416.433 307.027L408.872 311.399C408.86 311.87 408.872 312.305 408.872 312.728Z" fill="black"/>
<path opacity="0.15" d="M362.706 281.229V283.681L295.04 244.621L296.284 243.897V242.882L362.706 281.229Z" fill="black"/>
<path opacity="0.15" d="M362.706 282.243V283.681L295.04 244.621L296.284 243.897V243.885L362.706 282.243Z" fill="black"/>
<path opacity="0.15" d="M392.13 332.052C389.566 331.985 387.065 331.239 384.883 329.89C373.855 323.525 364.88 304.587 364.88 287.678C364.88 277.811 367.864 270.444 373.07 267.436C376.693 265.335 380.981 265.6 385.487 268.197C396.503 274.562 405.477 293.56 405.477 310.469C405.477 320.325 402.494 327.704 397.288 330.699C395.718 331.596 393.939 332.063 392.13 332.052ZM378.3 267.255C376.69 267.246 375.107 267.663 373.71 268.463C368.963 271.204 366.124 278.391 366.124 287.666C366.124 304.189 374.821 322.692 385.523 328.827C389.618 331.243 393.495 331.46 396.72 329.6C401.467 326.859 404.306 319.684 404.306 310.409C404.306 293.874 395.609 275.383 384.919 269.236C382.921 268.02 380.638 267.354 378.3 267.303V267.255Z" fill="black"/>
<path opacity="0.4" d="M364.784 268.91C363.657 271.244 362.845 273.717 362.368 276.265L294.979 237.351L302.541 232.991L364.784 268.91Z" fill="white"/>
<path d="M452.368 272.69C455.895 266.011 459.929 251.01 461.934 243.438C464.785 232.689 460.171 225.925 454.929 225.647C451.655 226.155 440.869 265.371 440.869 265.371C439.661 266.325 423.27 274.647 418.003 276.736C417.062 277.092 416.022 277.092 415.08 276.736C412.556 275.818 410.828 275.987 408.352 275.746C406.408 275.552 405.429 274.864 405.176 275.275C404.945 275.784 404.915 276.362 405.092 276.893C405.269 277.423 405.64 277.868 406.13 278.137C407.196 278.758 408.331 279.252 409.512 279.611C407.395 280.253 405.189 280.55 402.977 280.492C397.904 280.383 396.08 282.582 400.018 287.739C402.434 290.952 406.432 291.966 415.358 288.886C417.919 287.992 421.397 286.265 424.647 285.094C431.338 282.678 433.102 282.388 438.199 280.661C445.628 278.149 450.798 275.661 452.368 272.69Z" fill="#FFA8A7"/>
<path d="M452.96 224.633C456.04 225.055 458.999 225.744 460.823 228.256C462.647 230.768 464.109 234.295 462.321 243.897C460.952 250.649 459.12 257.3 456.837 263.801C456.837 263.801 449.662 266.869 442.04 259.09L447.283 238.824C447.283 238.824 448.128 225.647 452.96 224.633Z" fill="#455A64"/>
</svg>
