<svg width="471" height="565" viewBox="0 0 471 565" fill="none" xmlns="http://www.w3.org/2000/svg">
<path d="M360.184 451.89C388.453 451.89 411.369 428.998 411.369 400.758C411.369 372.519 388.453 349.627 360.184 349.627C331.916 349.627 309 372.519 309 400.758C309 428.998 331.916 451.89 360.184 451.89Z" fill="white"/>
<path d="M360.184 452.52C349.936 452.523 339.916 449.49 331.393 443.804C322.87 438.119 316.226 430.036 312.302 420.578C308.378 411.12 307.349 400.712 309.347 390.67C311.344 380.628 316.278 371.404 323.524 364.163C330.77 356.923 340.002 351.991 350.054 349.993C360.105 347.994 370.524 349.018 379.993 352.936C389.462 356.853 397.556 363.487 403.25 372C408.944 380.512 411.983 390.52 411.983 400.758C411.97 414.48 406.509 427.635 396.799 437.339C387.088 447.043 373.92 452.503 360.184 452.52ZM360.184 350.272C350.185 350.272 340.41 353.235 332.096 358.785C323.782 364.334 317.302 372.223 313.476 381.452C309.65 390.681 308.65 400.836 310.602 410.633C312.554 420.43 317.371 429.429 324.443 436.491C331.514 443.553 340.524 448.362 350.332 450.308C360.139 452.255 370.305 451.253 379.542 447.428C388.78 443.603 396.674 437.128 402.227 428.82C407.78 420.513 410.742 410.748 410.739 400.758C410.726 387.37 405.395 374.533 395.917 365.068C386.438 355.602 373.587 350.281 360.184 350.272Z" fill="white"/>
<path d="M368.424 371.771H351.944V429.746H368.424V371.771Z" fill="white"/>
<path d="M389.202 409.006V392.543H331.167V409.006H389.202Z" fill="white"/>
<path d="M13.4587 14.2517L12.36 13.0735C19.8391 6.01061 29.3294 1.4424 39.5196 0L39.7458 1.61401C29.8841 3.00336 20.6983 7.41952 13.4587 14.2517Z" fill="white"/>
<path d="M1.50259 31.8928L0 31.3118C1.63097 27.2001 3.80444 23.3245 6.46274 19.7878L7.75529 20.7562C5.19186 24.1788 3.08964 27.9231 1.50259 31.8928Z" fill="white"/>
<path d="M46.5802 93.7255C71.0654 93.7255 90.9145 73.8969 90.9145 49.4371C90.9145 24.9773 71.0654 5.14868 46.5802 5.14868C22.095 5.14868 2.24579 24.9773 2.24579 49.4371C2.24579 73.8969 22.095 93.7255 46.5802 93.7255Z" fill="white"/>
<path d="M73.0612 29.488C71.3537 27.7172 69.3099 26.3043 67.0494 25.3318C64.7889 24.3593 62.3569 23.8469 59.8958 23.8243C57.4347 23.8018 54.9937 24.2696 52.7157 25.2005C50.4377 26.1314 48.3684 27.5067 46.6286 29.2459C44.8903 27.5071 42.8223 26.1322 40.5456 25.2015C38.269 24.2709 35.8294 23.8031 33.3695 23.8256C30.9097 23.8482 28.4791 24.3606 26.2199 25.3328C23.9607 26.3051 21.9183 27.7177 20.2122 29.488C16.8687 33.1009 15.0674 37.8739 15.1911 42.7926C15.3148 47.7113 17.3537 52.3879 20.8746 55.8286L41.8785 76.8107C42.5087 77.4402 43.2568 77.9396 44.0801 78.2803C44.9035 78.6211 45.7859 78.7964 46.6771 78.7964C47.5683 78.7964 48.4508 78.6211 49.2741 78.2803C50.0975 77.9396 50.8456 77.4402 51.4757 76.8107L72.4796 55.8286C75.9893 52.3773 78.0136 47.6948 78.1222 42.7762C78.2308 37.8576 76.4152 33.0905 73.0612 29.488Z" fill="white"/>
<path d="M46.5802 68.7891C46.2545 68.778 45.9399 68.6687 45.6775 68.4757C45.4151 68.2828 45.2172 68.015 45.1099 67.7077L35.7551 40.3825L31.8451 51.8097C31.734 52.1273 31.5263 52.4022 31.2511 52.5961C30.976 52.79 30.647 52.8931 30.3102 52.8911H14.6543C14.2258 52.8911 13.8148 52.721 13.5118 52.4184C13.2088 52.1157 13.0386 51.7051 13.0386 51.2771C13.0386 50.849 13.2088 50.4385 13.5118 50.1358C13.8148 49.8331 14.2258 49.6631 14.6543 49.6631H29.1954L34.2687 34.8626C34.3786 34.5455 34.5847 34.2704 34.8583 34.0758C35.132 33.8811 35.4595 33.7765 35.7955 33.7765C36.1314 33.7765 36.459 33.8811 36.7327 34.0758C37.0063 34.2704 37.2124 34.5455 37.3223 34.8626L46.8387 62.672L56.0804 40.9313C56.1972 40.6542 56.3892 40.4152 56.6347 40.2412C56.8802 40.0673 57.1695 39.9653 57.4699 39.9467C57.7724 39.9294 58.0737 39.9974 58.3394 40.1429C58.6051 40.2885 58.8245 40.5057 58.9725 40.7699L63.8518 49.6469H78.5707C78.9992 49.6469 79.4102 49.817 79.7132 50.1197C80.0162 50.4223 80.1864 50.8329 80.1864 51.2609C80.1864 51.689 80.0162 52.0995 79.7132 52.4022C79.4102 52.7049 78.9992 52.8749 78.5707 52.8749H62.9147C62.6257 52.8773 62.3413 52.8022 62.0912 52.6574C61.8412 52.5127 61.6346 52.3035 61.4929 52.0518L57.6638 45.2084L48.0666 67.8045C47.9429 68.0963 47.736 68.3452 47.4717 68.5203C47.2074 68.6953 46.8973 68.7888 46.5802 68.7891Z" fill="white"/>
<path d="M292.568 508.348H123.939C121.191 508.379 118.467 507.838 115.94 506.76C113.413 505.682 111.138 504.09 109.26 502.087C107.382 500.083 105.942 497.711 105.031 495.121C104.12 492.531 103.758 489.78 103.969 487.043L131.226 83.5411C131.702 77.7785 134.306 72.3986 138.531 68.4464C142.756 64.4942 148.3 62.252 154.088 62.1555H322.749C325.504 62.124 328.235 62.6671 330.768 63.75C333.301 64.8328 335.581 66.4316 337.46 68.4443C339.339 70.4569 340.778 72.8391 341.683 75.4386C342.589 78.0381 342.942 80.7977 342.719 83.5411L315.414 487.043C314.922 492.79 312.314 498.15 308.094 502.086C303.873 506.022 298.341 508.253 292.568 508.348Z" fill="#263238"/>
<path d="M329.955 226.478H325.706C324.936 226.487 324.173 226.336 323.466 226.034C322.759 225.731 322.122 225.285 321.597 224.723C321.073 224.16 320.671 223.495 320.419 222.769C320.166 222.043 320.069 221.272 320.132 220.506L325.35 143.372C325.472 141.759 326.195 140.25 327.377 139.145C328.559 138.039 330.113 137.416 331.732 137.401H335.981C336.751 137.391 337.514 137.543 338.221 137.845C338.929 138.147 339.565 138.594 340.09 139.156C340.615 139.718 341.016 140.383 341.268 141.109C341.521 141.836 341.619 142.606 341.556 143.372L336.337 220.506C336.216 222.119 335.492 223.628 334.311 224.734C333.129 225.84 331.574 226.462 329.955 226.478Z" fill="#263238"/>
<path d="M128.77 175.023H124.537C123.911 175.031 123.289 174.91 122.713 174.666C122.136 174.422 121.616 174.061 121.186 173.605C120.756 173.15 120.426 172.611 120.215 172.021C120.005 171.432 119.92 170.805 119.965 170.181L121.855 142.323C121.974 141.016 122.573 139.798 123.536 138.904C124.499 138.01 125.759 137.504 127.074 137.481H131.323C131.947 137.478 132.565 137.603 133.139 137.849C133.713 138.094 134.23 138.456 134.657 138.91C135.085 139.365 135.414 139.902 135.624 140.49C135.835 141.077 135.921 141.701 135.879 142.323L133.989 170.181C133.873 171.49 133.275 172.71 132.311 173.604C131.347 174.499 130.085 175.004 128.77 175.023Z" fill="white"/>
<path d="M125.409 224.767H121.16C120.535 224.773 119.916 224.65 119.341 224.405C118.766 224.159 118.248 223.798 117.82 223.343C117.392 222.888 117.063 222.35 116.853 221.761C116.644 221.173 116.559 220.548 116.604 219.925L118.494 192.067C118.614 190.759 119.212 189.542 120.175 188.648C121.139 187.754 122.398 187.247 123.713 187.225H127.994C128.619 187.221 129.237 187.346 129.811 187.592C130.385 187.838 130.901 188.2 131.329 188.654C131.757 189.108 132.086 189.646 132.296 190.233C132.506 190.821 132.593 191.445 132.551 192.067L130.66 219.925C130.544 221.239 129.942 222.464 128.971 223.359C128 224.254 126.73 224.756 125.409 224.767Z" fill="white"/>
<path d="M288.997 508.348H120.368C117.621 508.379 114.897 507.838 112.37 506.76C109.842 505.682 107.568 504.09 105.689 502.087C103.811 500.083 102.371 497.711 101.46 495.121C100.549 492.531 100.188 489.78 100.399 487.043L127.671 83.5411C128.164 77.7765 130.786 72.401 135.026 68.4603C139.267 64.5195 144.823 62.2953 150.614 62.2201H319.178C321.927 62.1894 324.653 62.7308 327.181 63.8097C329.71 64.8887 331.985 66.4816 333.864 68.4871C335.742 70.4926 337.182 72.8668 338.092 75.4586C339.002 78.0503 339.361 80.8029 339.148 83.5411L311.859 487.043C311.368 492.793 308.757 498.155 304.533 502.091C300.309 506.028 294.773 508.257 288.997 508.348Z" fill="white"/>
<path opacity="0.3" d="M102.176 482.524L128.802 88.7705H337.322L310.696 482.524H102.176Z" fill="white"/>
<path opacity="0.1" d="M184.495 482.524L258.913 88.7705H305.623L231.204 482.524H184.495Z" fill="white"/>
<path opacity="0.1" d="M149.208 482.524L223.627 88.7705H247.297L172.878 482.524H149.208Z" fill="white"/>
<path d="M213.852 72.1139H254.519C254.858 72.1081 255.195 72.1736 255.507 72.3062C255.82 72.4388 256.101 72.6354 256.333 72.8835C256.564 73.1315 256.741 73.4254 256.851 73.746C256.962 74.0666 257.004 74.4069 256.974 74.7448C256.918 75.4559 256.6 76.1208 256.08 76.61C255.56 77.0993 254.877 77.3779 254.163 77.3918H213.496C213.156 77.3953 212.819 77.3277 212.507 77.1933C212.194 77.0589 211.913 76.8607 211.682 76.6114C211.451 76.3622 211.274 76.0673 211.164 75.7458C211.053 75.4244 211.011 75.0834 211.041 74.7448C211.097 74.0352 211.416 73.3722 211.936 72.8856C212.456 72.399 213.139 72.1238 213.852 72.1139Z" fill="white"/>
<path d="M205.386 547.165L191.135 548.521L185.997 515.676L200.248 514.304L205.386 547.165Z" fill="#FFB573"/>
<path d="M189.504 541.565L204.432 536.932C204.69 536.843 204.972 536.857 205.219 536.971C205.466 537.086 205.659 537.292 205.757 537.546L210.604 549.376C210.725 549.693 210.778 550.032 210.761 550.371C210.744 550.709 210.657 551.041 210.505 551.344C210.353 551.648 210.14 551.916 209.879 552.133C209.618 552.35 209.315 552.51 208.989 552.604C203.592 554.218 198.454 554.59 191.943 557.446C184.333 560.674 181.15 565 172.959 565C167.094 565 165.769 559.625 168.257 558.883C179.567 555.461 178.081 552.653 186.288 543.824C187.142 542.801 188.251 542.021 189.504 541.565Z" fill="#263238"/>
<path opacity="0.2" d="M185.997 515.676L188.647 532.623L202.914 531.251L200.264 514.304L185.997 515.676Z" fill="black"/>
<path d="M196.306 100.65C177.612 98.4546 159.016 99.9233 140.354 103.539C137.245 104.142 134.408 105.718 132.255 108.04C130.103 110.361 128.746 113.307 128.382 116.451C126.363 134.302 124.052 174.313 133.068 233.999L209.457 227.543C209.603 216.713 201.896 167.373 208.262 116.176C208.522 114.369 208.418 112.528 207.954 110.762C207.491 108.996 206.678 107.34 205.563 105.893C204.449 104.445 203.056 103.236 201.466 102.335C199.876 101.435 198.121 100.862 196.306 100.65Z" fill="white"/>
<path d="M151.826 115.95L154.556 121.406C154.684 121.681 154.886 121.915 155.141 122.08C155.395 122.246 155.691 122.337 155.994 122.342L158.951 122.503C159.479 122.526 159.998 122.367 160.421 122.051L165.511 118.258L159.226 113.691L151.826 115.95Z" fill="#263238"/>
<path d="M159.048 120.938C157.97 120.439 156.75 120.342 155.606 120.663C153.199 129.137 150.566 153.46 150.291 164.242C157.594 185.498 159.985 187.645 159.985 187.645L163.685 162.063C163.685 162.063 159.533 135.9 159.048 120.938Z" fill="#263238"/>
<path d="M180.133 63.8502C178.388 74.3736 176.901 93.5964 184.463 100.391C178.921 106.202 171.666 112.932 159.226 113.691C146.785 114.449 148.708 105.847 151.858 101.247C163.475 98.1479 162.909 89.4968 160.631 81.4106L180.133 63.8502Z" fill="#FFB573"/>
<path d="M187.629 99.4714C186.749 99.0918 185.835 98.7946 184.899 98.5837C184.67 98.5232 184.427 98.5394 184.209 98.6297C183.99 98.7201 183.806 98.8797 183.687 99.084C182.491 101.118 178.84 110.205 159.226 113.691C162.457 115.595 166.739 121.503 168.58 124.343C174.462 121.293 189.762 112.174 188.308 100.375C188.278 100.18 188.201 99.9958 188.082 99.8381C187.964 99.6804 187.808 99.5544 187.629 99.4714Z" fill="#F5F5F5"/>
<path d="M151.971 101.731C152.013 101.547 152.007 101.356 151.956 101.175C151.905 100.994 151.809 100.829 151.677 100.694C151.545 100.559 151.382 100.46 151.202 100.404C151.022 100.348 150.831 100.338 150.646 100.375C149.967 100.507 149.298 100.685 148.643 100.908C148.492 100.967 148.35 101.049 148.223 101.15C146.72 102.538 138.529 114.353 146.203 123.907C147.819 121.309 153.393 115.418 159.226 113.691C153.7 111.205 150.986 106.573 151.971 101.731Z" fill="#F5F5F5"/>
<path opacity="0.2" d="M172.183 71.0164L160.647 81.4106C161.204 83.288 161.593 85.2108 161.811 87.1565C166.27 86.3979 172.264 81.3461 172.587 76.6655C172.806 74.7737 172.669 72.8579 172.183 71.0164Z" fill="black"/>
<path d="M156.77 32.0381C146.817 35.9279 146.171 44.0947 147.076 53.0202C147.98 61.9457 157.707 56.0384 159.872 50.4539C162.037 44.8695 170.552 26.6473 156.77 32.0381Z" fill="#263238"/>
<path d="M188.518 49.8406C185.755 63.8986 184.834 72.2431 176.788 78.7152C164.654 88.3993 148.223 80.0387 146.769 65.5449C145.46 52.4876 150.194 31.6507 164.687 27.5834C167.847 26.6539 171.196 26.5642 174.402 27.3232C177.608 28.0823 180.56 29.6638 182.967 31.9116C185.373 34.1594 187.151 36.9956 188.125 40.1399C189.099 43.2843 189.234 46.628 188.518 49.8406Z" fill="#FFB573"/>
<path d="M187.936 61.4776C176.093 62.1071 178.598 55.3928 180.747 51.5353C182.895 47.6778 178.517 41.3025 181.377 37.9938C176.271 40.0274 170.891 38.3489 164.057 33.6037C158.757 29.9076 152.117 44.6758 145.654 37.2675C139.547 30.2788 145.218 19.7393 159.888 18.0446C174.558 16.3499 177.224 26.7119 186.854 25.7919C196.483 24.8719 193.139 32.7967 191.248 34.4107C199.327 34.9433 203.738 42.6583 187.936 61.4776Z" fill="#263238"/>
<path d="M189.39 35.3952C191.243 34.38 192.791 32.8885 193.873 31.0753C194.956 29.262 195.533 27.1928 195.546 25.0817C198.745 30.6823 198.406 37.0415 189.39 35.3952Z" fill="#263238"/>
<path d="M158.692 64.8509C159.98 65.0735 161.299 65.0338 162.571 64.7342C163.842 64.4347 165.04 63.8814 166.092 63.1078C166.124 63.0776 166.149 63.0413 166.167 63.0011C166.184 62.9608 166.193 62.9175 166.193 62.8737C166.193 62.8299 166.184 62.7866 166.167 62.7464C166.149 62.7062 166.124 62.6699 166.092 62.6397C166.029 62.5795 165.945 62.5459 165.858 62.5459C165.771 62.5459 165.687 62.5795 165.624 62.6397C164.445 63.4741 163.089 64.0236 161.662 64.2448C160.235 64.4661 158.776 64.3531 157.4 63.9148C157.312 63.8929 157.219 63.9038 157.139 63.9454C157.059 63.987 156.996 64.0565 156.964 64.1407C156.938 64.2263 156.948 64.3184 156.99 64.397C157.033 64.4755 157.104 64.5342 157.19 64.5604C157.681 64.7019 158.184 64.7991 158.692 64.8509Z" fill="#263238"/>
<path d="M191.378 65.787C189.165 68.635 185.922 70.5013 182.346 70.9841C177.644 71.5975 176.077 67.2235 178.048 63.1401C179.842 59.4601 184.511 54.7149 188.841 55.99C193.171 57.2651 194.092 62.2362 191.378 65.787Z" fill="#FFB573"/>
<path d="M186.708 371.432C187.274 329.29 192.67 228.915 192.67 228.915L133.116 233.934C133.116 233.934 144.959 337.376 152.1 380.374C159.533 425.065 182.33 529.766 182.33 529.766L206.565 527.7C206.565 527.7 197.711 404.019 186.708 371.432Z" fill="#263238"/>
<path d="M180.876 530.428L209.619 527.991L208.488 518.726L178.533 520.728L180.876 530.428Z" fill="white"/>
<path d="M167.288 50.6799C167.142 51.8258 166.399 52.6974 165.672 52.6167C164.945 52.536 164.444 51.5353 164.606 50.3732C164.767 49.2111 165.494 48.3557 166.222 48.4364C166.949 48.5171 167.449 49.5339 167.288 50.6799Z" fill="#263238"/>
<path d="M154.104 49.6469C153.959 50.809 153.215 51.6644 152.488 51.5837C151.761 51.503 151.26 50.5024 151.422 49.3564C151.583 48.2105 152.311 47.3389 153.038 47.4196C153.765 47.5003 154.265 48.4364 154.104 49.6469Z" fill="#263238"/>
<path d="M157.82 51.0027C155.874 53.9894 153.537 56.7034 150.873 59.0727C152.585 60.8643 156.124 60.3801 156.124 60.3801L157.82 51.0027Z" fill="#ED893E"/>
<path opacity="0.4" d="M145.767 49.9374C145.525 51.7774 147.383 53.3107 149.952 53.6335C152.521 53.9563 154.896 52.5521 155.122 50.7122" fill="white"/>
<path opacity="0.4" d="M161.035 51.6483C160.68 53.4721 162.473 55.1184 164.994 55.6026C167.514 56.0868 169.986 54.7956 170.325 52.9879" fill="white"/>
<path d="M165.995 56.103C165.705 56.119 165.413 56.119 165.123 56.103C163.881 55.9546 162.714 55.4309 161.778 54.6019C161.37 54.2533 161.051 53.812 160.849 53.3149C160.647 52.8178 160.566 52.2795 160.615 51.7452C159.795 51.3885 158.922 51.1703 158.03 51.0995C157.134 50.8761 156.196 50.8761 155.3 51.0995C155.073 53.0686 152.617 54.4244 149.871 54.0855C148.629 53.9499 147.46 53.4308 146.526 52.6006C146.12 52.2502 145.803 51.8086 145.601 51.312C145.398 50.8154 145.317 50.2779 145.363 49.7438L146.139 49.8406C146.106 50.2533 146.173 50.6679 146.333 51.0497C146.493 51.4315 146.742 51.7695 147.06 52.0357C147.873 52.7513 148.89 53.1968 149.968 53.3107C152.294 53.6174 154.362 52.536 154.572 50.922C154.686 50.0182 156.56 50.0827 158.111 50.2764C159.662 50.4701 161.504 50.9059 161.342 51.7936C161.308 52.2064 161.374 52.6214 161.534 53.0034C161.695 53.3854 161.945 53.7234 162.263 53.9886C163.087 54.6947 164.1 55.1443 165.176 55.282C166.253 55.4197 167.347 55.2394 168.322 54.7633C168.698 54.5883 169.027 54.3254 169.28 53.9967C169.533 53.668 169.703 53.2832 169.776 52.875V52.4876L189.714 55.0539L189.617 55.8286L170.422 53.3592C170.283 53.8084 170.053 54.2247 169.748 54.5826C169.442 54.9405 169.067 55.2326 168.645 55.4412C167.829 55.8729 166.919 56.1 165.995 56.103Z" fill="#263238"/>
<path d="M172.361 45.6119C172.476 45.6122 172.588 45.5785 172.684 45.5151C172.841 45.4238 172.956 45.2747 173.005 45.0997C173.053 44.9247 173.031 44.7377 172.943 44.5789C172.442 43.6402 171.717 42.8396 170.832 42.2483C169.947 41.657 168.929 41.2933 167.87 41.1895C167.688 41.1806 167.51 41.2433 167.374 41.364C167.238 41.4847 167.155 41.6539 167.142 41.8351C167.134 42.0123 167.195 42.1859 167.312 42.3187C167.43 42.4515 167.595 42.5328 167.773 42.5453C168.611 42.6436 169.413 42.9449 170.108 43.4231C170.804 43.9013 171.372 44.5418 171.763 45.2891C171.824 45.3918 171.912 45.4761 172.018 45.5329C172.123 45.5897 172.242 45.617 172.361 45.6119Z" fill="#263238"/>
<path d="M149.839 43.7881C149.95 43.799 150.063 43.7827 150.167 43.7405C150.271 43.6984 150.364 43.6316 150.436 43.546C150.959 42.8625 151.634 42.3109 152.409 41.9353C153.183 41.5597 154.035 41.3706 154.896 41.3832C154.985 41.3921 155.075 41.3832 155.161 41.3572C155.246 41.3311 155.326 41.2883 155.395 41.2313C155.464 41.1743 155.521 41.1041 155.563 41.0249C155.605 40.9457 155.631 40.859 155.639 40.7699C155.65 40.6829 155.644 40.5945 155.621 40.5099C155.598 40.4253 155.558 40.3461 155.504 40.277C155.449 40.208 155.382 40.1503 155.305 40.1075C155.229 40.0646 155.144 40.0374 155.057 40.0274C153.972 39.9991 152.895 40.2252 151.913 40.6877C150.931 41.1501 150.071 41.8361 149.402 42.6905C149.287 42.8278 149.231 43.0049 149.246 43.1833C149.261 43.3617 149.346 43.5269 149.483 43.6428C149.588 43.7185 149.71 43.7683 149.839 43.7881Z" fill="#263238"/>
<path d="M236.326 364.637C223.966 301.174 221.187 251.543 209.457 227.446L151.761 233.902C151.761 233.902 186.127 328.467 202.914 368.833C220.347 410.798 254.761 482.492 254.761 482.492H283.585C283.585 482.492 256.684 393.544 236.326 364.637Z" fill="#263238"/>
<path d="M53.4468 124.392L47.2103 120.454C46.1979 119.802 44.9907 119.522 43.7945 119.66C42.5983 119.798 41.4871 120.347 40.6506 121.212L36.4175 125.667C35.9616 126.148 35.6092 126.717 35.3823 127.339C35.1553 127.961 35.0585 128.623 35.0979 129.284C35.1372 129.945 35.3119 130.591 35.6112 131.182C35.9104 131.773 36.3278 132.297 36.8376 132.72L39.8589 135.302C42.4869 137.527 45.5526 139.177 48.8583 140.144L57.9869 142.84L63.9811 136.384C65.8068 129.653 53.4468 124.392 53.4468 124.392Z" fill="#FFB573"/>
<path d="M145.767 121.374C143.505 126.893 141.292 132.026 138.884 137.271C136.477 142.517 134.037 147.698 131.339 152.847C128.641 157.995 125.765 163.112 122.501 168.244C120.885 170.794 119.092 173.345 117.056 175.911C114.868 178.741 112.375 181.322 109.624 183.61C107.807 185.093 105.803 186.33 103.662 187.29C102.984 187.548 102.354 187.806 101.61 188.032L100.479 188.339C99.9104 188.478 99.3329 188.581 98.7506 188.645C96.781 188.867 94.7875 188.725 92.8695 188.226C90.4715 187.555 88.193 186.515 86.1159 185.143C84.5603 184.173 83.0756 183.095 81.6728 181.915C77.01 177.848 72.712 173.382 68.8281 168.567C65.0636 164.048 61.5091 159.513 58.1 154.88C54.6909 150.248 51.411 145.697 48.0504 140.838L65.9199 129.314C71.5591 138.408 77.7987 147.116 84.5972 155.381C87.7224 159.209 91.1652 162.767 94.8891 166.017C95.6104 166.607 96.3716 167.146 97.1672 167.631C97.765 168.035 98.3628 168.196 97.9427 168.051C97.3746 167.895 96.7797 167.862 96.1978 167.954C95.9627 167.975 95.7302 168.019 95.503 168.083H95.3738C95.293 168.083 95.293 168.083 95.2769 168.083C95.6443 167.843 95.9951 167.579 96.327 167.292C97.8018 165.955 99.1388 164.473 100.318 162.87C101.691 161.03 103.064 158.964 104.373 156.817C107.048 152.354 109.486 147.753 111.676 143.034C113.938 138.191 116.119 133.349 118.139 128.314C120.158 123.278 122.081 118.162 123.713 113.271L145.767 121.374Z" fill="white"/>
<g opacity="0.6">
<path d="M145.767 121.374C143.505 126.893 141.292 132.026 138.884 137.271C136.477 142.517 134.037 147.698 131.339 152.847C128.641 157.995 125.765 163.112 122.501 168.244C120.885 170.794 119.092 173.345 117.056 175.911C114.868 178.741 112.375 181.322 109.624 183.61C107.807 185.093 105.803 186.33 103.662 187.29C102.984 187.548 102.354 187.806 101.61 188.032L100.479 188.339C99.9104 188.478 99.3329 188.581 98.7506 188.645C96.781 188.867 94.7875 188.725 92.8695 188.226C90.4715 187.555 88.193 186.515 86.1159 185.143C84.5603 184.173 83.0756 183.095 81.6728 181.915C77.01 177.848 72.712 173.382 68.8281 168.567C65.0636 164.048 61.5091 159.513 58.1 154.88C54.6909 150.248 51.411 145.697 48.0504 140.838L65.9199 129.314C71.5591 138.408 77.7987 147.116 84.5972 155.381C87.7224 159.209 91.1652 162.767 94.8891 166.017C95.6104 166.607 96.3716 167.146 97.1672 167.631C97.765 168.035 98.3628 168.196 97.9427 168.051C97.3746 167.895 96.7797 167.862 96.1978 167.954C95.9627 167.975 95.7302 168.019 95.503 168.083H95.3738C95.293 168.083 95.293 168.083 95.2769 168.083C95.6443 167.843 95.9951 167.579 96.327 167.292C97.8018 165.955 99.1388 164.473 100.318 162.87C101.691 161.03 103.064 158.964 104.373 156.817C107.048 152.354 109.486 147.753 111.676 143.034C113.938 138.191 116.119 133.349 118.139 128.314C120.158 123.278 122.081 118.162 123.713 113.271L145.767 121.374Z" fill="white"/>
</g>
<path d="M188.066 96.5985C182.007 107.897 160.437 150.942 157.82 177.509C148.271 153.299 150.356 99.7458 150.356 99.7458C143.55 100.408 136.875 102.039 130.531 104.588C128.487 105.427 126.715 106.815 125.411 108.598C124.108 110.382 123.325 112.491 123.147 114.692C121.288 142.401 122.164 170.227 125.765 197.765C132.47 249.897 138.69 330.969 138.69 330.969C138.69 330.969 192.089 328.741 233.289 320.058C228.264 280.208 211.073 213.42 210.911 195.537C210.718 172.521 211.251 127.523 211.978 108.736C212.1 106.083 211.268 103.475 209.632 101.382C207.996 99.2891 205.665 97.8499 203.059 97.3248C198.117 96.4098 193.073 96.1655 188.066 96.5985Z" fill="white"/>
<path opacity="0.7" d="M188.066 96.5984C182.007 107.897 160.437 150.942 157.82 177.509C148.271 153.299 150.356 99.7458 150.356 99.7458C143.55 100.408 136.875 102.039 130.531 104.588C128.487 105.427 126.715 106.815 125.411 108.598C124.108 110.382 123.325 112.491 123.147 114.691C121.288 142.401 122.164 170.227 125.765 197.765C132.47 249.897 138.69 330.969 138.69 330.969C138.69 330.969 192.089 328.741 233.289 320.058C228.264 280.208 211.073 213.42 210.911 195.537C210.718 172.521 211.251 127.507 211.978 108.72C212.13 106.148 211.37 103.605 209.83 101.538C208.29 99.4714 206.07 98.0136 203.56 97.4216C198.459 96.4229 193.243 96.1458 188.066 96.5984Z" fill="white"/>
<path d="M175.479 322.318C166.205 271.202 158.854 196.199 158.256 187.177H159.08C159.678 196.199 167.046 271.105 176.303 322.221L175.479 322.318Z" fill="white"/>
<path d="M170.859 231.384H121.613C120.618 231.34 119.665 230.974 118.896 230.343C118.127 229.711 117.584 228.848 117.347 227.882L100.883 151.426C100.763 151.009 100.743 150.569 100.826 150.143C100.909 149.716 101.092 149.315 101.36 148.974C101.628 148.632 101.974 148.358 102.368 148.176C102.763 147.993 103.195 147.907 103.63 147.924H152.86C153.857 147.965 154.814 148.329 155.586 148.961C156.358 149.593 156.904 150.458 157.141 151.426L173.605 227.882C173.726 228.299 173.745 228.739 173.663 229.166C173.58 229.592 173.397 229.993 173.128 230.335C172.86 230.677 172.515 230.95 172.12 231.133C171.725 231.315 171.293 231.401 170.859 231.384Z" fill="white"/>
<path d="M169.324 232.03H119.237C118.225 231.983 117.255 231.61 116.472 230.967C115.688 230.325 115.134 229.446 114.891 228.463L98.1366 150.716C98.0167 150.29 97.9992 149.842 98.0856 149.408C98.1721 148.974 98.36 148.566 98.634 148.218C98.9081 147.871 99.2606 147.592 99.6627 147.407C100.065 147.221 100.505 147.133 100.948 147.149H151.034C152.047 147.196 153.017 147.569 153.8 148.212C154.583 148.855 155.138 149.733 155.38 150.716L172.119 228.463C172.242 228.888 172.262 229.336 172.178 229.77C172.094 230.205 171.908 230.613 171.635 230.961C171.362 231.309 171.01 231.588 170.608 231.774C170.206 231.96 169.766 232.047 169.324 232.03Z" fill="white"/>
<path d="M175.059 188.161L162.602 187.693C161.105 187.642 159.613 187.906 158.224 188.468L151.761 191.05C151.155 191.29 150.603 191.65 150.139 192.108C149.675 192.566 149.309 193.112 149.061 193.715C148.814 194.318 148.691 194.964 148.7 195.616C148.708 196.267 148.848 196.91 149.111 197.506L151.697 203.091C152.218 204.174 153.097 205.044 154.186 205.556C155.275 206.067 156.507 206.189 157.675 205.899L164.8 204.124C164.8 204.124 178.178 203.058 178.662 196.054L175.059 188.161Z" fill="#FFB573"/>
<path d="M209.457 103.523C212.543 108.365 215.371 112.787 218.15 117.532C220.929 122.277 223.659 126.974 226.228 131.881C228.797 136.787 231.237 141.855 233.45 147.278C234.6 150.118 235.581 153.023 236.391 155.978C237.432 159.579 237.912 163.319 237.813 167.066V167.696C237.818 167.803 237.818 167.911 237.813 168.018C237.813 168.599 237.651 169.18 237.538 169.761C237.425 170.343 237.279 170.794 237.118 171.375C236.956 171.957 236.778 172.263 236.601 172.715C235.983 174.112 235.191 175.424 234.242 176.621C232.922 178.269 231.421 179.763 229.766 181.076C227.225 183.075 224.523 184.862 221.688 186.418C216.7 189.142 211.565 191.589 206.307 193.746C201.217 195.908 196.144 197.878 191.038 199.734C185.933 201.59 180.908 203.381 175.593 205.157L169.437 184.82C174.284 183.497 179.228 181.867 184.059 180.22C188.89 178.574 193.753 176.734 198.341 174.813C202.844 172.955 207.236 170.837 211.493 168.47C213.29 167.475 215.003 166.336 216.615 165.065C217.038 164.744 217.418 164.37 217.746 163.951C217.607 164.108 217.497 164.288 217.423 164.484C217.423 164.629 217.342 164.726 217.261 164.903C217.197 165.093 217.149 165.287 217.116 165.484C217.048 165.732 217.004 165.986 216.986 166.243C216.986 166.34 216.986 166.356 216.986 166.324V166.211C216.874 164.679 216.575 163.167 216.098 161.708C215.452 159.594 214.686 157.52 213.803 155.494C211.828 151.026 209.595 146.677 207.115 142.469C204.594 138.143 201.912 133.817 199.036 129.557C196.16 125.296 193.22 121.051 190.263 117.177L209.457 103.523Z" fill="white"/>
<g opacity="0.7">
<path d="M209.457 103.523C212.543 108.365 215.371 112.787 218.15 117.532C220.929 122.277 223.659 126.974 226.228 131.881C228.797 136.787 231.237 141.855 233.45 147.278C234.6 150.118 235.581 153.023 236.391 155.978C237.432 159.579 237.912 163.319 237.813 167.066V167.696C237.818 167.803 237.818 167.911 237.813 168.018C237.813 168.599 237.651 169.18 237.538 169.761C237.425 170.343 237.279 170.794 237.118 171.375C236.956 171.957 236.778 172.263 236.601 172.715C235.983 174.112 235.191 175.424 234.242 176.621C232.922 178.269 231.421 179.763 229.766 181.076C227.225 183.075 224.523 184.862 221.688 186.418C216.7 189.142 211.565 191.589 206.307 193.746C201.217 195.908 196.144 197.878 191.038 199.734C185.933 201.59 180.908 203.381 175.593 205.157L169.437 184.82C174.284 183.497 179.228 181.867 184.059 180.22C188.89 178.574 193.753 176.734 198.341 174.813C202.844 172.955 207.236 170.837 211.493 168.47C213.29 167.475 215.003 166.336 216.615 165.065C217.038 164.744 217.418 164.37 217.746 163.951C217.607 164.108 217.497 164.288 217.423 164.484C217.423 164.629 217.342 164.726 217.261 164.903C217.197 165.093 217.149 165.287 217.116 165.484C217.048 165.732 217.004 165.986 216.986 166.243C216.986 166.34 216.986 166.356 216.986 166.324V166.211C216.874 164.679 216.575 163.167 216.098 161.708C215.452 159.594 214.686 157.52 213.803 155.494C211.828 151.026 209.595 146.677 207.115 142.469C204.594 138.143 201.912 133.817 199.036 129.557C196.16 125.296 193.22 121.051 190.263 117.177L209.457 103.523Z" fill="white"/>
</g>
<path d="M193.106 159.529C192.999 159.527 192.893 159.498 192.8 159.445C192.707 159.391 192.629 159.314 192.573 159.222C192.526 159.152 192.493 159.072 192.477 158.989C192.462 158.906 192.463 158.82 192.481 158.737C192.499 158.654 192.534 158.576 192.583 158.506C192.632 158.437 192.695 158.379 192.767 158.334L195.288 156.72C197.64 155.238 199.487 153.077 200.583 150.524C201.679 147.97 201.974 145.144 201.427 142.42L196.354 116.757C195.983 114.839 194.974 113.101 193.492 111.826C192.009 110.55 190.14 109.812 188.185 109.73C186.23 109.648 184.305 110.227 182.721 111.373C181.136 112.52 179.985 114.166 179.454 116.047L172.264 141.21C171.479 143.87 171.522 146.705 172.388 149.34C173.254 151.975 174.901 154.284 177.111 155.962L179.502 157.769C179.637 157.875 179.725 158.029 179.746 158.198C179.767 158.367 179.72 158.538 179.616 158.673C179.565 158.739 179.502 158.795 179.429 158.836C179.357 158.878 179.277 158.904 179.195 158.915C179.112 158.925 179.028 158.919 178.948 158.897C178.868 158.875 178.792 158.838 178.727 158.786L176.465 156.995C174.035 155.167 172.219 152.644 171.258 149.762C170.298 146.879 170.237 143.773 171.085 140.855L178.291 115.692C178.909 113.544 180.233 111.665 182.048 110.358C183.864 109.05 186.066 108.39 188.302 108.483C190.538 108.576 192.678 109.417 194.379 110.871C196.079 112.324 197.241 114.307 197.679 116.499L202.752 142.178C203.351 145.154 203.031 148.242 201.833 151.032C200.636 153.822 198.618 156.183 196.047 157.802L193.51 159.416C193.454 159.461 193.389 159.494 193.32 159.514C193.251 159.533 193.178 159.538 193.106 159.529Z" fill="#263238"/>
<path d="M196.984 117.29L178.84 116.531C178.755 116.527 178.672 116.507 178.595 116.47C178.518 116.434 178.449 116.383 178.392 116.32C178.335 116.257 178.291 116.183 178.263 116.103C178.234 116.023 178.222 115.938 178.226 115.854C178.242 115.685 178.321 115.529 178.446 115.415C178.572 115.302 178.735 115.24 178.905 115.24L197.033 115.999C197.118 116.003 197.201 116.024 197.278 116.06C197.354 116.096 197.423 116.148 197.48 116.211C197.537 116.274 197.581 116.347 197.61 116.427C197.639 116.507 197.651 116.592 197.647 116.677C197.645 116.761 197.626 116.844 197.591 116.92C197.556 116.997 197.507 117.066 197.445 117.123C197.383 117.18 197.311 117.225 197.232 117.253C197.152 117.282 197.068 117.294 196.984 117.29Z" fill="#263238"/>
<path d="M188.163 109.769C187.995 109.765 187.835 109.698 187.715 109.581C187.596 109.464 187.524 109.306 187.516 109.139C187.516 105.911 186.515 100.311 183.493 99.084C183.41 99.056 183.333 99.0112 183.267 98.9523C183.201 98.8934 183.149 98.8217 183.112 98.7416C183.075 98.6616 183.055 98.5748 183.053 98.4868C183.051 98.3987 183.067 98.3111 183.1 98.2294C183.133 98.1478 183.183 98.0738 183.245 98.012C183.308 97.9501 183.383 97.9018 183.465 97.87C183.548 97.8382 183.636 97.8235 183.724 97.8269C183.812 97.8302 183.898 97.8516 183.978 97.8897C188.453 99.7296 188.825 108.155 188.825 109.188C188.825 109.358 188.76 109.521 188.642 109.645C188.525 109.768 188.365 109.841 188.195 109.849L188.163 109.769Z" fill="#263238"/>
<path d="M132.664 131.703H132.535C132.368 131.668 132.222 131.569 132.128 131.427C132.034 131.285 132 131.111 132.034 130.945C134.166 120.341 142.988 103.603 150.759 98.6644C150.83 98.6203 150.909 98.5908 150.992 98.5775C151.074 98.5642 151.158 98.5674 151.24 98.587C151.321 98.6065 151.397 98.6419 151.465 98.6912C151.532 98.7406 151.589 98.8027 151.632 98.8742C151.679 98.9434 151.711 99.0214 151.727 99.1036C151.743 99.1857 151.742 99.2702 151.723 99.3518C151.705 99.4334 151.671 99.5105 151.621 99.5782C151.572 99.646 151.51 99.703 151.438 99.7457C143.925 104.491 135.362 120.728 133.294 131.171C133.268 131.319 133.19 131.453 133.075 131.55C132.96 131.648 132.815 131.702 132.664 131.703Z" fill="#263238"/>
<path d="M137.963 133.366C136.961 135.932 134.732 137.481 133.116 136.82C131.5 136.158 130.87 133.592 131.872 130.961C132.874 128.33 135.103 126.845 136.719 127.523C138.335 128.201 138.981 130.799 137.963 133.366Z" fill="white"/>
<path d="M180.617 158.367C180.617 159.561 179.874 160.513 179.082 160.481C178.291 160.449 177.677 159.448 177.725 158.237C177.774 157.027 178.468 156.075 179.26 156.123C180.052 156.172 180.666 157.156 180.617 158.367Z" fill="white"/>
<path d="M194.545 158.948C194.545 160.142 193.817 161.094 193.01 161.062C192.202 161.03 191.62 160.029 191.669 158.819C191.717 157.608 192.396 156.672 193.284 156.704C194.173 156.736 194.593 157.786 194.545 158.948Z" fill="white"/>
<path d="M468.532 136.561L466.916 136.464C467.185 133.028 466.736 129.574 465.598 126.32C464.459 123.066 462.656 120.084 460.303 117.564C457.95 115.043 455.098 113.038 451.928 111.677C448.758 110.316 445.34 109.627 441.89 109.656V108.042C445.561 108.011 449.199 108.742 452.572 110.19C455.946 111.637 458.982 113.769 461.487 116.451C463.992 119.132 465.911 122.305 467.124 125.767C468.337 129.229 468.817 132.905 468.532 136.561Z" fill="white"/>
<path d="M469.384 143.328L468.448 156.692L470.063 156.805L471 143.441L469.384 143.328Z" fill="white"/>
<path d="M441.89 113.691H330.407C324.319 113.791 318.486 116.149 314.042 120.308C309.599 124.467 306.863 130.128 306.366 136.19L305.348 151.184C305.117 154.069 305.49 156.971 306.443 159.704C307.396 162.437 308.909 164.942 310.885 167.059C312.862 169.176 315.257 170.858 317.92 171.998C320.583 173.139 323.455 173.713 326.352 173.683H437.834L459.452 186.999L462.877 136.19C463.111 133.306 462.74 130.404 461.789 127.671C460.837 124.938 459.326 122.433 457.351 120.316C455.376 118.199 452.981 116.517 450.319 115.376C447.657 114.235 444.786 113.661 441.89 113.691Z" fill="white"/>
<path d="M436.235 135.173H332.976V138.918H436.235V135.173Z" fill="white"/>
<path d="M435.33 148.457H358.666V152.201H435.33V148.457Z" fill="white"/>
<path d="M274.182 193.907H388.12C391.082 193.875 394.018 194.46 396.741 195.626C399.465 196.791 401.915 198.51 403.935 200.675C405.956 202.839 407.502 205.4 408.476 208.195C409.45 210.99 409.83 213.957 409.592 216.907L408.558 232.24C408.046 238.435 405.248 244.219 400.707 248.469C396.165 252.72 390.205 255.132 383.983 255.239H270.029L246.085 268.878L249.607 216.907C250.115 210.71 252.913 204.924 257.454 200.673C261.996 196.422 267.959 194.01 274.182 193.907Z" fill="white"/>
<path opacity="0.15" d="M274.182 193.907H388.12C391.082 193.875 394.018 194.46 396.741 195.626C399.465 196.791 401.915 198.51 403.935 200.675C405.956 202.839 407.502 205.4 408.476 208.195C409.45 210.99 409.83 213.957 409.592 216.907L408.558 232.24C408.046 238.435 405.248 244.219 400.707 248.469C396.165 252.72 390.205 255.132 383.983 255.239H270.029L246.085 268.878L249.607 216.907C250.115 210.71 252.913 204.924 257.454 200.673C261.996 196.422 267.959 194.01 274.182 193.907Z" fill="white"/>
<path opacity="0.5" d="M382.335 215.874H276.734V219.715H382.335V215.874Z" fill="white"/>
<path opacity="0.5" d="M317.547 229.448H275.813V233.289H317.547V229.448Z" fill="white"/>
<path opacity="0.5" d="M354.433 229.448H327.774V233.289H354.433V229.448Z" fill="white"/>
</svg>
