<svg width="598" height="635" viewBox="0 0 598 635" fill="none" xmlns="http://www.w3.org/2000/svg">
<path fill-rule="evenodd" clip-rule="evenodd" d="M22.4392 48.475L309.304 421.82C311.567 425.78 314.962 428.75 319.488 430.731C324.014 432.711 328.54 433.701 333.066 433.701H412.84C419.064 433.701 424.58 432.287 429.389 429.458C434.198 426.629 437.734 422.668 439.997 417.576C445.655 405.695 444.524 394.946 436.603 385.327L152.284 11.9827C150.021 8.02227 146.626 5.05196 142.1 3.07176C137.574 1.09155 133.048 0.10144 128.522 0.10144H46.2017C40.544 0.10144 35.3106 1.65732 30.5015 4.76907C25.6924 7.88082 21.8735 11.9827 19.0446 17.0746C16.2157 22.1666 15.0842 27.5414 15.65 33.1992C16.2157 38.8569 18.4788 43.9488 22.4392 48.475Z" fill="url(#paint0_linear_11_6)"/>
<path fill-rule="evenodd" clip-rule="evenodd" d="M597.83 601.801C597.265 596.143 595.284 591.051 591.89 586.525L376.33 308.165L575.765 48.475C579.726 43.9488 581.989 38.8569 582.554 33.1992C583.12 27.5414 581.989 22.1666 579.16 17.0746C576.331 11.9827 572.512 7.88082 567.703 4.76907C562.894 1.65732 557.66 0.10144 552.003 0.10144H469.683C460.065 0.10144 452.144 4.06186 445.92 11.9827L6.31472 586.525C-1.04033 596.143 -1.88899 606.893 3.76874 618.774C6.03183 623.866 9.56791 627.826 14.377 630.655C19.1861 633.484 24.4195 634.899 30.0772 634.899H113.246C122.864 634.899 130.785 630.938 137.008 623.017L299.102 408.307L461.196 623.017C467.42 630.938 475.623 634.899 485.807 634.899H568.127C573.785 634.899 579.16 633.343 584.252 630.231C589.344 627.119 593.021 623.017 595.284 617.925C597.547 612.833 598.396 607.459 597.83 601.801Z" fill="white"/>
<defs>
<linearGradient id="paint0_linear_11_6" x1="83.6827" y1="54.8508" x2="298.981" y2="316.76" gradientUnits="userSpaceOnUse">
<stop stop-color="white"/>
<stop offset="0.31592" stop-color="#AEAEAE" stop-opacity="0.68408"/>
<stop offset="1" stop-opacity="0"/>
</linearGradient>
</defs>
</svg>
