<svg width="505" height="368" viewBox="0 0 505 368" fill="none" xmlns="http://www.w3.org/2000/svg">
<path d="M154.853 366.458L70.4069 317.406L213.242 234.936L154.853 366.458Z" fill="#E0E0E0"/>
<path d="M32.9598 314.395L67.3694 334.215C68.0846 334.577 68.8753 334.766 69.6772 334.766C70.4792 334.766 71.2698 334.577 71.985 334.215L119.447 306.547C119.726 306.455 119.969 306.277 120.141 306.038C120.313 305.8 120.406 305.513 120.406 305.22C120.406 304.926 120.313 304.639 120.141 304.401C119.969 304.162 119.726 303.984 119.447 303.892L85.037 284.06C84.3217 283.698 83.5311 283.509 82.7291 283.509C81.9272 283.509 81.1365 283.698 80.4213 284.06L32.9598 311.727C32.682 311.823 32.441 312.003 32.2704 312.242C32.0998 312.481 32.0081 312.767 32.0081 313.061C32.0081 313.355 32.0998 313.641 32.2704 313.88C32.441 314.119 32.682 314.299 32.9598 314.395Z" fill="#E0E0E0"/>
<path d="M36.6856 311.313C34.3125 307.496 26.9916 303.299 17.3806 301.225C7.76965 299.15 -1.88877 296.613 0.318194 291.006C2.69127 284.996 11.6378 284.7 20.3825 288.28C29.9342 292.192 36.9941 301.865 37.1246 307.958L36.6856 311.313Z" fill="white"/>
<g opacity="0.1">
<path d="M36.6856 311.313C34.3125 307.496 26.9916 303.299 17.3806 301.225C7.76965 299.15 -1.88877 296.613 0.318194 291.006C2.69127 284.996 11.6378 284.7 20.3825 288.28C29.9342 292.192 36.9941 301.865 37.1246 307.958L36.6856 311.313Z" fill="black"/>
</g>
<path d="M37.4331 309.582C37.2978 309.581 37.1658 309.541 37.0523 309.468C36.9388 309.394 36.8487 309.29 36.7923 309.167C29.1629 293.401 11.4716 290.852 5.94235 291.718C5.7537 291.745 5.56191 291.697 5.40862 291.584C5.25534 291.47 5.15293 291.301 5.12364 291.113C5.10843 291.021 5.11174 290.926 5.13337 290.834C5.15501 290.743 5.19455 290.657 5.2497 290.581C5.30486 290.505 5.37454 290.44 5.45473 290.391C5.53492 290.342 5.62403 290.31 5.71691 290.295C11.5784 289.394 30.1477 292.038 38.1331 308.551C38.2152 308.722 38.2264 308.919 38.1642 309.099C38.102 309.279 37.9715 309.427 37.8009 309.511C37.6858 309.564 37.5596 309.588 37.4331 309.582Z" fill="white"/>
<path d="M36.6856 311.313C36.6856 311.313 32.0937 293.14 20.4537 283.372C17.0009 280.468 13.3345 276.829 10.736 274.328C5.20674 268.946 7.52048 263.078 15.1736 263.197C26.5644 263.351 34.8939 272.929 38.501 285.459C42.108 297.989 36.6856 311.313 36.6856 311.313Z" fill="white"/>
<path d="M38.501 304.259C38.3207 304.26 38.1466 304.194 38.0128 304.073C37.8789 303.953 37.7949 303.787 37.7772 303.607C35.6414 280.492 17.9857 268.875 13.1803 267.642C12.9962 267.595 12.8384 267.477 12.7416 267.313C12.6448 267.15 12.6169 266.955 12.6641 266.771C12.7113 266.587 12.8297 266.429 12.9933 266.332C13.1568 266.236 13.3521 266.208 13.5362 266.255C19.374 267.749 37.0178 279.804 39.2129 303.477C39.2294 303.667 39.1701 303.856 39.0478 304.002C38.9256 304.149 38.7504 304.241 38.5603 304.259H38.501Z" fill="white"/>
<path d="M68.5322 331.299L36.116 312.593L36.1041 243.128L68.5322 261.833V331.299Z" fill="#263238"/>
<path d="M68.5322 261.833L114.855 235.114V304.579L68.5322 331.299V261.833Z" fill="#37474F"/>
<path d="M114.855 235.114L68.5322 261.833L36.1041 243.128L82.4384 216.408L114.855 235.114Z" fill="#455A64"/>
<path d="M88.5491 260.98L94.8496 257.341C95.6683 256.867 96.3328 257.08 96.3328 257.827C96.2726 258.281 96.1072 258.714 95.8497 259.093C95.5922 259.471 95.2497 259.785 94.8496 260.008L88.5491 263.647C87.7304 264.121 87.0659 263.908 87.0659 263.161C87.1261 262.707 87.2915 262.274 87.549 261.895C87.8065 261.516 88.149 261.203 88.5491 260.98Z" fill="#263238"/>
<path d="M72.3173 297.064L109.373 275.691L110.227 276.177L109.373 301.414L110.227 301.912L73.1716 323.285L72.3173 322.787V297.064Z" fill="#263238"/>
<path d="M73.1716 297.55L110.227 276.177V301.912L73.1716 323.285V297.55Z" fill="#455A64"/>
<path d="M87.6948 293.531L93.9953 289.904C94.814 289.43 95.4785 289.643 95.4785 290.378C95.4192 290.834 95.2542 291.269 94.9967 291.65C94.7392 292.031 94.3963 292.346 93.9953 292.571L87.6948 296.21C86.8761 296.685 86.2116 296.459 86.2116 295.724C86.2727 295.269 86.4384 294.835 86.6957 294.454C86.953 294.074 87.2949 293.758 87.6948 293.531Z" fill="#263238"/>
<path d="M72.3173 265.058L109.373 243.685L110.227 244.171L109.373 269.408L110.227 269.906L73.1716 291.279L72.3173 290.781V265.058Z" fill="#263238"/>
<path d="M73.1716 265.544L110.227 244.171V269.906L73.1716 291.279V265.544Z" fill="#455A64"/>
<path d="M87.6948 261.525L93.9953 257.898C94.814 257.424 95.4785 257.637 95.4785 258.372C95.4192 258.828 95.2542 259.263 94.9967 259.644C94.7392 260.025 94.3963 260.34 93.9953 260.565L87.6948 264.204C86.8761 264.678 86.2116 264.453 86.2116 263.718C86.2727 263.263 86.4384 262.828 86.6957 262.448C86.953 262.068 87.2949 261.752 87.6948 261.525Z" fill="#263238"/>
<path d="M68.5322 258.882L36.116 240.176L36.1041 170.699L68.5322 189.405V258.882Z" fill="#263238"/>
<path d="M68.5322 189.405L114.855 162.686V232.163L68.5322 258.882V189.405Z" fill="#37474F"/>
<path d="M114.855 162.686L68.5322 189.405L36.1041 170.699L82.4384 143.98L114.855 162.686Z" fill="#455A64"/>
<path d="M73.1716 192.072L110.227 170.699L111.081 171.197V196.92L74.0259 218.305L73.1716 217.807V192.072Z" fill="#263238"/>
<path d="M88.5491 188.551L94.8496 184.912C95.6683 184.438 96.3328 184.663 96.3328 185.398C96.2717 185.853 96.106 186.288 95.8487 186.668C95.5914 187.049 95.2494 187.365 94.8496 187.591L88.5491 191.218C87.7304 191.693 87.0659 191.479 87.0659 190.744C87.1252 190.289 87.2902 189.853 87.5477 189.472C87.8052 189.092 88.1481 188.776 88.5491 188.551Z" fill="#263238"/>
<path d="M72.3173 224.635L109.373 203.262V228.998L110.227 229.484L73.1716 250.857L72.3173 250.37V224.635Z" fill="#263238"/>
<path d="M73.1716 225.133L110.227 203.748V229.483L73.1716 250.856V225.133Z" fill="#455A64"/>
<path d="M87.6948 221.114L93.9953 217.475C94.814 217.001 95.4785 217.214 95.4785 217.961C95.4183 218.415 95.2529 218.849 94.9954 219.227C94.7379 219.606 94.3954 219.919 93.9953 220.142L87.6948 223.782C86.8761 224.256 86.2116 224.042 86.2116 223.296C86.2718 222.842 86.4372 222.408 86.6947 222.03C86.9522 221.651 87.2946 221.338 87.6948 221.114Z" fill="#263238"/>
<path d="M73.1716 192.072L110.227 170.699V196.434L73.1716 217.807V192.072Z" fill="#263238"/>
<path d="M128.761 183.407L108.471 171.718V194.383L128.761 206.083V183.407Z" fill="#263238"/>
<path d="M87.0659 221.47V189.405L95.0157 184.805L96.3328 186.738L119.494 173.366V202.764L87.0659 221.47Z" fill="white"/>
<g opacity="0.2">
<path d="M87.0659 221.47V189.405L95.0157 184.805L96.3328 186.738L119.494 173.366V202.764L87.0659 221.47Z" fill="black"/>
</g>
<path d="M87.0659 221.47L89.3797 193.411L121.808 174.706L119.494 202.764L87.0659 221.47Z" fill="white"/>
<path d="M91.6934 204.791L74.014 194.597V217.262L91.6934 227.456V204.791Z" fill="#37474F"/>
<path d="M91.6934 202.764L128.761 181.391V207.115L91.6934 228.5V202.764Z" fill="#455A64"/>
<path d="M106.228 198.746L112.529 195.107C113.348 194.632 114.012 194.858 114.012 195.593C113.951 196.048 113.785 196.482 113.528 196.863C113.271 197.243 112.929 197.559 112.529 197.786L106.228 201.413C105.41 201.887 104.745 201.674 104.745 200.939C104.806 200.484 104.972 200.049 105.229 199.668C105.487 199.288 105.829 198.972 106.228 198.746Z" fill="#263238"/>
<path d="M91.6934 202.764L90.4594 202.053V227.788L91.6934 228.5V202.764Z" fill="#263238"/>
<path d="M90.4594 202.053L127.527 180.68L128.761 181.391L91.6934 202.764L90.4594 202.053Z" fill="#37474F"/>
<path d="M401.249 17.2118L396.432 14.4142L150.593 156.19V361.539C150.528 362.174 150.631 362.816 150.894 363.399C151.156 363.982 151.568 364.485 152.088 364.858L156.906 367.655C157.49 367.924 158.135 368.032 158.775 367.97C159.415 367.907 160.027 367.676 160.548 367.3L396.076 231.416C397.571 230.441 398.815 229.128 399.708 227.584C400.6 226.039 401.116 224.306 401.214 222.525L401.249 17.2118Z" fill="#E6E6E6"/>
<path d="M155.411 364.336C155.411 367.608 157.701 368.935 160.548 367.3L396.076 231.416C397.571 230.441 398.815 229.128 399.708 227.584C400.6 226.039 401.116 224.306 401.214 222.525V17.2118L155.411 158.999V364.336Z" fill="#FAFAFA"/>
<path d="M400.063 19.227V222.549C399.965 224.122 399.504 225.652 398.716 227.018C397.927 228.383 396.833 229.548 395.518 230.42L159.991 366.268C159.477 366.593 158.889 366.781 158.282 366.814C156.787 366.814 156.633 365.083 156.633 364.336V159.675L400.063 19.227ZM401.249 17.1762L155.411 158.999V364.336C155.411 366.707 156.597 367.999 158.246 367.999C159.061 367.967 159.854 367.726 160.548 367.3L396.076 231.416C397.571 230.441 398.815 229.128 399.708 227.584C400.6 226.039 401.116 224.306 401.214 222.525V17.2118L401.249 17.1762Z" fill="#E0E0E0"/>
<path d="M155.411 158.999V181.225L401.214 39.4383V17.2118L155.411 158.999Z" fill="white"/>
<path d="M309.637 78.7466V83.4882C309.637 84.4603 310.337 84.8633 311.179 84.3773L386.75 40.7778V32.4799L311.179 76.1268C310.738 76.4161 310.37 76.8029 310.102 77.2571C309.835 77.7114 309.676 78.221 309.637 78.7466Z" fill="#FAFAFA"/>
<path d="M394.854 27.8212C395.708 27.3233 396.396 27.7264 396.396 28.7103V33.4519C396.368 33.9866 396.214 34.507 395.946 34.9706C395.678 35.4342 395.303 35.8278 394.854 36.1191L386.75 40.7896V32.4917L394.854 27.8212Z" fill="#455A64"/>
<path d="M394.261 34.3765L393.347 34.092C393.447 33.7048 393.499 33.3066 393.501 32.9066C393.542 32.542 393.487 32.1731 393.341 31.8364C393.195 31.4996 392.964 31.2066 392.671 30.9863C392.471 30.8684 392.244 30.8062 392.012 30.8062C391.78 30.8062 391.553 30.8684 391.354 30.9863C390.779 31.4272 390.316 31.9971 390.003 32.65C389.689 33.3028 389.534 34.0202 389.55 34.744C389.507 35.1088 389.561 35.4785 389.707 35.8157C389.853 36.1529 390.085 36.4457 390.381 36.6644C390.552 36.7688 390.749 36.8222 390.95 36.8185C391.21 36.8129 391.463 36.7394 391.686 36.6051C392.377 36.1341 392.891 35.4456 393.145 34.6492L394.059 34.9337H394.13C394.2 34.9349 394.269 34.9137 394.327 34.8733C394.385 34.8328 394.428 34.7751 394.45 34.7084C394.455 34.6406 394.44 34.5728 394.406 34.5137C394.372 34.4546 394.321 34.4069 394.261 34.3765ZM391.354 36.1072C391.263 36.1763 391.155 36.2185 391.042 36.229C390.928 36.2395 390.814 36.2178 390.713 36.1665C390.529 35.9995 390.389 35.7902 390.304 35.5568C390.219 35.3234 390.192 35.073 390.226 34.827C390.214 34.2218 390.339 33.6218 390.592 33.0717C390.845 32.5216 391.219 32.0356 391.686 31.6501C391.811 31.5725 391.954 31.5276 392.101 31.5197C392.185 31.5195 392.268 31.5442 392.338 31.5908C392.52 31.7597 392.658 31.9692 392.743 32.202C392.828 32.4349 392.856 32.6845 392.825 32.9303C392.834 33.5363 392.707 34.1367 392.452 34.6867C392.198 35.2367 391.822 35.7223 391.354 36.1072Z" fill="#FAFAFA"/>
<path d="M394.937 0.367146C394.352 0.0810479 393.7 -0.0392814 393.051 0.0192419C392.403 0.0777652 391.783 0.312906 391.259 0.699069L155.731 136.583C154.234 137.556 152.988 138.868 152.096 140.413C151.203 141.958 150.688 143.692 150.593 145.473V156.225L155.411 159.035L401.249 17.2119V6.46017C401.322 5.82669 401.222 5.18546 400.961 4.60361C400.7 4.02176 400.288 3.52069 399.766 3.15287C398.876 2.63129 395.779 0.876873 394.937 0.367146Z" fill="#263238"/>
<path d="M155.411 148.247C155.503 146.465 156.017 144.731 156.91 143.185C157.803 141.64 159.05 140.328 160.548 139.357L396.076 3.49658C398.912 1.86071 401.214 3.18837 401.214 6.46011V17.2118L155.411 158.999V148.247Z" fill="#37474F"/>
<path d="M399.778 3.17651C399.191 2.88405 398.535 2.75918 397.882 2.81565C397.229 2.87213 396.604 3.10777 396.076 3.49658L160.548 139.345C159.031 140.291 157.781 141.609 156.917 143.174L152.076 140.388C152.944 138.819 154.198 137.497 155.719 136.547L391.259 0.687145C391.784 0.302874 392.404 0.0698452 393.053 0.013414C393.701 -0.0430172 394.353 0.079305 394.937 0.367079C395.779 0.876806 398.864 2.64308 399.683 3.14095L399.778 3.17651Z" fill="#455A64"/>
<path d="M372.298 22.7833C371.603 23.2445 371.026 23.8624 370.614 24.5872C370.202 25.312 369.965 26.1233 369.925 26.9559C369.925 28.4851 371.004 29.1134 372.298 28.3428C372.993 27.8816 373.57 27.2637 373.982 26.5389C374.394 25.8141 374.63 25.0028 374.671 24.1702C374.706 22.6173 373.627 21.989 372.298 22.7833Z" fill="white"/>
<path d="M380.734 17.9112C380.039 18.3699 379.462 18.9856 379.05 19.7085C378.638 20.4313 378.402 21.241 378.361 22.072C378.361 23.613 379.441 24.2294 380.734 23.4708C381.428 23.0081 382.003 22.3899 382.416 21.6654C382.828 20.9409 383.064 20.1303 383.107 19.2981C383.143 17.7571 382.063 17.1407 380.734 17.9112Z" fill="white"/>
<path d="M389.158 13.051C388.463 13.5123 387.887 14.1302 387.474 14.855C387.062 15.5797 386.826 16.3911 386.785 17.2237C386.785 18.7647 387.865 19.3811 389.158 18.6106C389.855 18.1514 390.434 17.534 390.846 16.8088C391.259 16.0836 391.493 15.2712 391.531 14.4379C391.579 12.9088 390.499 12.2805 389.158 13.051Z" fill="white"/>
<path d="M160.548 367.3L203.608 342.465V153.416L155.411 181.225V364.336C155.411 367.608 157.701 368.924 160.548 367.3Z" fill="#F5F5F5"/>
<path d="M202.421 155.466V341.778L159.955 366.268C159.441 366.593 158.853 366.781 158.246 366.814C156.751 366.814 156.597 365.083 156.597 364.336V181.901L202.421 155.466ZM203.608 153.416L155.411 181.225V364.336C155.411 366.707 156.597 367.999 158.246 367.999C159.061 367.967 159.854 367.726 160.548 367.3L203.608 342.465V153.416Z" fill="#E0E0E0"/>
<path d="M171.405 183.11L194.471 169.774C195.314 169.276 196.002 169.679 196.002 170.663V172.667C195.972 173.2 195.819 173.718 195.553 174.181C195.287 174.645 194.917 175.039 194.471 175.334L171.405 188.646C170.551 189.144 169.863 188.741 169.863 187.757V185.777C169.894 185.244 170.05 184.725 170.318 184.262C170.586 183.799 170.958 183.404 171.405 183.11Z" fill="#E0E0E0"/>
<path d="M165.045 188.563V190.566C165.016 191.101 164.861 191.621 164.593 192.084C164.325 192.548 163.952 192.942 163.503 193.234L161.77 194.229C160.916 194.727 160.228 194.324 160.228 193.34V191.337C160.257 190.803 160.412 190.282 160.68 189.819C160.948 189.356 161.321 188.962 161.77 188.67L163.503 187.674C164.357 187.176 165.045 187.556 165.045 188.563Z" fill="white"/>
<path d="M171.405 194.194L194.471 180.882C195.314 180.384 196.002 180.787 196.002 181.759V183.762C195.972 184.297 195.819 184.817 195.553 185.282C195.287 185.747 194.917 186.144 194.471 186.441L171.405 199.753C170.551 200.239 169.863 199.848 169.863 198.864V196.861C169.892 196.327 170.048 195.807 170.316 195.344C170.584 194.88 170.957 194.487 171.405 194.194Z" fill="#E0E0E0"/>
<path d="M165.045 199.635V201.638C165.017 202.173 164.863 202.693 164.595 203.157C164.327 203.621 163.952 204.014 163.503 204.305L161.77 205.313C160.916 205.799 160.228 205.408 160.228 204.424V202.421C160.256 201.886 160.41 201.365 160.678 200.902C160.946 200.438 161.321 200.045 161.77 199.753L163.503 198.746C164.357 198.224 165.045 198.651 165.045 199.635Z" fill="white"/>
<path d="M171.405 205.266L194.471 191.953C195.314 191.467 196.002 191.859 196.002 192.843V194.846C195.974 195.379 195.821 195.899 195.555 196.362C195.29 196.825 194.918 197.22 194.471 197.513L171.405 210.825C170.551 211.323 169.863 210.92 169.863 209.948V207.933C169.895 207.399 170.052 206.881 170.319 206.418C170.587 205.955 170.959 205.56 171.405 205.266Z" fill="#E0E0E0"/>
<path d="M165.045 210.718V212.722C165.017 213.257 164.863 213.777 164.595 214.241C164.327 214.704 163.952 215.098 163.503 215.389L161.77 216.397C160.916 216.883 160.228 216.48 160.228 215.508V213.492C160.259 212.958 160.414 212.439 160.682 211.976C160.95 211.513 161.323 211.119 161.77 210.825L163.503 209.829C164.357 209.343 165.045 209.735 165.045 210.718Z" fill="white"/>
<path d="M171.405 242.013L194.471 228.689C195.314 228.203 196.002 228.595 196.002 229.578V231.582C195.974 232.115 195.821 232.635 195.555 233.098C195.29 233.561 194.918 233.956 194.471 234.249L171.405 247.573C170.551 248.059 169.863 247.668 169.863 246.684V244.681C169.892 244.146 170.048 243.627 170.316 243.163C170.584 242.7 170.957 242.306 171.405 242.013Z" fill="#E0E0E0"/>
<path d="M165.045 247.454V249.458C165.017 249.992 164.863 250.513 164.595 250.977C164.327 251.44 163.952 251.834 163.503 252.125L161.77 253.133C160.916 253.619 160.228 253.227 160.228 252.244V250.24C160.256 249.705 160.41 249.185 160.678 248.721C160.946 248.258 161.321 247.864 161.77 247.573L163.503 246.565C164.357 246.079 165.045 246.471 165.045 247.454Z" fill="white"/>
<path d="M171.405 251.817L194.471 238.528C195.314 238.042 196.002 238.433 196.002 239.417V241.421C195.974 241.954 195.821 242.473 195.555 242.937C195.29 243.4 194.918 243.795 194.471 244.088L171.405 257.376C170.551 257.874 169.863 257.471 169.863 256.487V254.484C169.895 253.95 170.052 253.432 170.319 252.969C170.587 252.506 170.959 252.112 171.405 251.817Z" fill="#E0E0E0"/>
<path d="M165.045 257.27V259.273C165.017 259.808 164.863 260.328 164.595 260.792C164.327 261.255 163.952 261.649 163.503 261.94L161.77 262.936C160.916 263.434 160.228 263.031 160.228 262.047V260.043C160.259 259.509 160.414 258.99 160.682 258.527C160.95 258.064 161.323 257.67 161.77 257.376L163.503 256.381C164.357 255.895 165.045 256.309 165.045 257.27Z" fill="white"/>
<path d="M171.405 261.632L194.471 248.32C195.314 247.822 196.002 248.225 196.002 249.209V251.212C195.972 251.745 195.819 252.264 195.553 252.727C195.287 253.19 194.917 253.585 194.471 253.879L171.405 267.192C170.551 267.689 169.863 267.286 169.863 266.303V264.299C169.894 263.765 170.05 263.246 170.318 262.783C170.586 262.32 170.958 261.926 171.405 261.632Z" fill="#E0E0E0"/>
<path d="M165.045 267.085V269.088C165.016 269.623 164.861 270.143 164.593 270.606C164.325 271.07 163.952 271.463 163.503 271.755L161.77 272.751C160.916 273.249 160.228 272.846 160.228 271.862V269.859C160.257 269.324 160.412 268.804 160.68 268.341C160.948 267.877 161.321 267.484 161.77 267.192L163.503 266.196C164.357 265.698 165.045 266.101 165.045 267.085Z" fill="white"/>
<path d="M169.863 217.369V220.818L172.864 217.369H169.863Z" fill="white"/>
<path d="M174.692 216.646C174.692 217.298 175.143 217.546 175.712 217.215L194.982 206.143C195.28 205.947 195.527 205.685 195.705 205.376C195.882 205.067 195.984 204.72 196.002 204.365C196.002 203.713 195.551 203.452 194.982 203.784L175.712 214.891C175.416 215.083 175.169 215.341 174.992 215.646C174.814 215.951 174.712 216.294 174.692 216.646Z" fill="#E0E0E0"/>
<path d="M169.863 222.916V226.378L172.864 222.916H169.863Z" fill="white"/>
<path d="M174.692 222.205C174.692 222.845 175.143 223.106 175.712 222.774L194.982 211.691C195.28 211.498 195.528 211.238 195.706 210.931C195.883 210.624 195.985 210.279 196.002 209.924C196.002 209.272 195.551 209.011 194.982 209.343L175.712 220.451C175.416 220.642 175.169 220.901 174.992 221.206C174.814 221.511 174.712 221.853 174.692 222.205Z" fill="#E0E0E0"/>
<path d="M169.863 228.476V231.937L172.864 228.476H169.863Z" fill="white"/>
<path d="M174.692 227.765C174.692 228.405 175.143 228.666 175.712 228.334L194.982 217.25C195.28 217.058 195.528 216.798 195.706 216.49C195.883 216.183 195.985 215.838 196.002 215.484C196.002 214.832 195.551 214.571 194.982 214.903L175.712 226.01C175.416 226.202 175.169 226.461 174.992 226.765C174.814 227.07 174.712 227.413 174.692 227.765Z" fill="#E0E0E0"/>
<path d="M169.863 234.036V237.497L172.864 234.036H169.863Z" fill="white"/>
<path d="M174.692 233.324C174.692 233.964 175.143 234.225 175.712 233.893L194.982 222.81C195.28 222.618 195.528 222.357 195.706 222.05C195.883 221.743 195.985 221.398 196.002 221.043C196.002 220.391 195.551 220.131 194.982 220.463L175.712 231.57C175.416 231.761 175.169 232.02 174.992 232.325C174.814 232.63 174.712 232.972 174.692 233.324Z" fill="#E0E0E0"/>
<path d="M218.06 160.042V189.014C218.06 190.199 218.914 190.721 219.97 190.116L251.852 171.718C252.409 171.359 252.872 170.873 253.204 170.3C253.537 169.728 253.728 169.084 253.763 168.423V144.608C253.763 143.423 252.908 142.901 251.852 143.506L233.354 154.174C232.298 154.779 231.444 154.293 231.444 153.084V152.325C231.444 151.14 230.601 150.618 229.545 151.223L219.97 156.735C219.414 157.097 218.951 157.586 218.619 158.16C218.287 158.735 218.095 159.38 218.06 160.042Z" fill="white"/>
<path d="M224.336 194.478V196.339C224.336 197.24 224.977 197.608 225.76 197.157L249.681 183.359C250.096 183.089 250.441 182.725 250.688 182.297C250.936 181.868 251.079 181.387 251.105 180.893V179.032C251.105 178.131 250.464 177.764 249.681 178.214L225.76 192.013C225.345 192.283 225 192.647 224.753 193.075C224.505 193.504 224.363 193.984 224.336 194.478Z" fill="#E0E0E0"/>
<path d="M262.424 134.615V163.586C262.424 164.772 263.279 165.282 264.323 164.677L296.205 146.291C296.76 145.93 297.222 145.444 297.553 144.871C297.885 144.299 298.078 143.656 298.115 142.996V119.169C298.115 117.984 297.261 117.462 296.205 118.067L277.707 128.735C276.651 129.34 275.808 128.842 275.808 127.633V126.874C275.808 125.689 274.954 125.179 273.898 125.784L264.323 131.308C263.768 131.671 263.307 132.16 262.977 132.734C262.647 133.309 262.458 133.953 262.424 134.615Z" fill="white"/>
<path d="M268.666 169.051V170.96C268.666 171.872 269.306 172.24 270.089 171.79L294.01 157.92C294.424 157.647 294.769 157.281 295.016 156.85C295.264 156.42 295.407 155.938 295.434 155.443V153.593C295.434 152.681 294.793 152.313 294.01 152.776L270.089 166.574C269.675 166.847 269.33 167.213 269.083 167.644C268.836 168.074 268.693 168.556 268.666 169.051Z" fill="#E0E0E0"/>
<path d="M218.06 218.246V247.217C218.06 248.403 218.914 248.924 219.97 248.32L251.852 229.922C252.401 229.566 252.86 229.087 253.192 228.524C253.523 227.96 253.719 227.327 253.763 226.674V202.847C253.763 201.662 252.908 201.152 251.852 201.757L233.354 212.425C232.298 213.03 231.444 212.544 231.444 211.335V210.576C231.444 209.391 230.601 208.869 229.545 209.474L219.97 214.998C219.421 215.354 218.962 215.833 218.631 216.396C218.299 216.96 218.104 217.593 218.06 218.246Z" fill="white"/>
<path d="M224.336 252.682V254.543C224.336 255.444 224.977 255.812 225.76 255.361L249.681 241.563C250.094 241.292 250.439 240.927 250.686 240.499C250.933 240.071 251.077 239.591 251.105 239.097V237.236C251.105 236.335 250.464 235.968 249.681 236.418L225.76 250.216C225.345 250.486 225 250.851 224.753 251.279C224.505 251.707 224.363 252.188 224.336 252.682Z" fill="#E0E0E0"/>
<path d="M262.424 192.807V221.778C262.424 222.964 263.279 223.485 264.323 222.881L296.205 204.483C296.76 204.125 297.223 203.641 297.555 203.07C297.887 202.5 298.079 201.859 298.115 201.2V177.373C298.115 176.187 297.261 175.666 296.205 176.27L277.707 186.939C276.651 187.544 275.808 187.046 275.808 185.837V185.078C275.808 183.893 274.954 183.371 273.898 183.987L264.323 189.511C263.769 189.873 263.308 190.359 262.979 190.932C262.649 191.505 262.459 192.147 262.424 192.807Z" fill="white"/>
<path d="M268.666 227.255V229.104C268.666 230.017 269.306 230.384 270.089 229.922L294.01 216.136C294.424 215.863 294.769 215.496 295.016 215.066C295.264 214.636 295.407 214.154 295.434 213.658V211.809C295.434 210.896 294.793 210.529 294.01 210.979L270.089 224.777C269.675 225.051 269.33 225.417 269.083 225.847C268.836 226.278 268.693 226.76 268.666 227.255Z" fill="#E0E0E0"/>
<path d="M307.252 107.777V136.749C307.252 137.934 308.106 138.456 309.15 137.851L341.044 119.454C341.597 119.092 342.057 118.605 342.387 118.032C342.717 117.46 342.907 116.818 342.943 116.158V92.3432C342.943 91.1578 342.088 90.6362 341.044 91.2408L322.534 101.91C321.49 102.526 320.636 102.028 320.636 100.819V100.06C320.636 98.8749 319.782 98.3533 318.726 98.9578L309.15 104.494C308.598 104.854 308.138 105.339 307.809 105.909C307.479 106.479 307.288 107.12 307.252 107.777Z" fill="white"/>
<path d="M312.995 143.612V145.473C312.995 146.374 313.635 146.742 314.43 146.291L338.363 132.493C338.78 132.225 339.128 131.862 339.378 131.433C339.628 131.005 339.772 130.523 339.798 130.027V128.178C339.798 127.265 339.158 126.898 338.363 127.348L314.454 141.147C314.032 141.412 313.679 141.774 313.425 142.203C313.171 142.632 313.024 143.115 312.995 143.612Z" fill="#E0E0E0"/>
<path d="M351.059 83.749V112.72C351.059 113.906 351.913 114.416 352.969 113.811L384.851 95.4253C385.404 95.0634 385.865 94.5765 386.194 94.004C386.524 93.4315 386.714 92.7895 386.75 92.1299V68.3031C386.75 67.1177 385.907 66.5961 384.851 67.2006L366.353 77.8693C365.297 78.4739 364.443 77.976 364.443 76.7669V76.0082C364.443 74.8228 363.6 74.3131 362.544 74.9177L352.969 80.4417C352.411 80.802 351.946 81.2899 351.614 81.865C351.282 82.44 351.092 83.0858 351.059 83.749Z" fill="white"/>
<path d="M357.347 118.185V119.987C357.347 120.9 357.976 121.267 358.771 120.817L382.692 107.019C383.105 106.747 383.448 106.382 383.696 105.954C383.943 105.526 384.087 105.046 384.116 104.553V102.692C384.116 101.779 383.475 101.412 382.692 101.874L358.771 115.66C358.349 115.937 357.999 116.31 357.752 116.75C357.504 117.189 357.365 117.681 357.347 118.185Z" fill="#E0E0E0"/>
<path d="M312.995 201.781V203.642C312.995 204.543 313.635 204.91 314.43 204.46L338.363 190.673C338.78 190.405 339.128 190.042 339.378 189.613C339.628 189.185 339.772 188.703 339.798 188.208V186.37C339.798 185.469 339.158 185.102 338.363 185.552L314.454 199.35C314.036 199.612 313.687 199.969 313.433 200.391C313.18 200.813 313.029 201.289 312.995 201.781Z" fill="#E0E0E0"/>
<path d="M313.6 161.074L338.363 146.766C339.49 146.114 340.415 146.647 340.415 147.951V176.567C340.377 177.279 340.171 177.972 339.814 178.59C339.458 179.208 338.96 179.733 338.363 180.123L313.6 194.431C312.413 195.083 311.547 194.561 311.547 193.246V164.63C311.586 163.918 311.793 163.225 312.149 162.607C312.506 161.99 313.003 161.464 313.6 161.074Z" fill="#FAFAFA"/>
<path d="M312.674 195.308C312.383 195.311 312.097 195.237 311.844 195.095C311.543 194.894 311.302 194.617 311.145 194.292C310.989 193.966 310.923 193.605 310.954 193.246V164.63C310.995 163.812 311.232 163.016 311.645 162.308C312.058 161.601 312.635 161.002 313.327 160.564L338.137 146.256C338.433 146.05 338.779 145.928 339.138 145.903C339.497 145.878 339.857 145.951 340.178 146.114C340.478 146.312 340.72 146.587 340.878 146.91C341.037 147.233 341.106 147.592 341.08 147.951V176.567C341.039 177.385 340.802 178.181 340.389 178.888C339.976 179.596 339.399 180.194 338.707 180.633L313.896 194.953C313.527 195.175 313.106 195.298 312.674 195.308ZM339.324 147.086C339.103 147.094 338.89 147.164 338.707 147.287L313.896 161.595C313.388 161.93 312.964 162.378 312.659 162.905C312.354 163.432 312.177 164.022 312.14 164.63V193.246C312.14 193.66 312.247 193.957 312.437 194.063C312.582 194.111 312.737 194.123 312.887 194.098C313.038 194.074 313.181 194.013 313.303 193.921L338.114 179.613C338.621 179.274 339.043 178.823 339.347 178.295C339.652 177.766 339.831 177.175 339.87 176.567V147.951C339.888 147.8 339.869 147.647 339.815 147.504C339.762 147.362 339.674 147.235 339.561 147.133C339.487 147.098 339.406 147.082 339.324 147.086Z" fill="#EBEBEB"/>
<path d="M341.329 150.63L335.8 153.819C335.2 154.207 334.7 154.732 334.342 155.35C333.983 155.968 333.775 156.662 333.735 157.375V163.752C333.735 165.068 334.661 165.602 335.8 164.938L341.329 161.749C341.927 161.359 342.424 160.834 342.781 160.216C343.137 159.598 343.343 158.905 343.382 158.193V151.815C343.382 150.511 342.456 149.978 341.329 150.63Z" fill="white"/>
<path d="M315.486 164.167L327.921 157.055C328.479 156.735 328.942 156.996 328.942 157.66V158.051C328.921 158.406 328.818 158.751 328.641 159.06C328.464 159.368 328.217 159.631 327.921 159.829L315.486 166.941C314.917 167.273 314.454 167.012 314.466 166.349V165.946C314.484 165.59 314.586 165.243 314.763 164.935C314.94 164.626 315.188 164.363 315.486 164.167Z" fill="#EBEBEB"/>
<path d="M315.486 169.774L327.921 162.662C328.479 162.33 328.942 162.603 328.942 163.255V163.646C328.924 164.001 328.822 164.348 328.644 164.657C328.467 164.966 328.219 165.229 327.921 165.424L315.486 172.536C314.917 172.868 314.454 172.536 314.466 171.944V171.529C314.488 171.177 314.591 170.836 314.768 170.531C314.946 170.226 315.191 169.967 315.486 169.774Z" fill="#EBEBEB"/>
<path d="M315.486 175.275L327.921 168.162C328.479 167.842 328.942 168.103 328.942 168.755V169.158C328.921 169.513 328.818 169.858 328.641 170.167C328.464 170.475 328.217 170.739 327.921 170.936L315.486 178.049C314.917 178.38 314.454 178.12 314.466 177.456V177.053C314.483 176.697 314.585 176.35 314.762 176.041C314.939 175.732 315.188 175.469 315.486 175.275Z" fill="#EBEBEB"/>
<path d="M315.486 180.822L336.132 168.968C336.702 168.648 337.164 168.968 337.164 169.561V169.964C337.144 170.321 337.04 170.667 336.861 170.976C336.681 171.285 336.432 171.547 336.132 171.742L315.486 183.596C314.917 183.916 314.454 183.656 314.466 183.004V182.589C314.486 182.235 314.589 181.891 314.766 181.584C314.943 181.277 315.19 181.017 315.486 180.822Z" fill="#EBEBEB"/>
<path d="M315.486 186.37L336.132 174.516C336.702 174.184 337.164 174.516 337.164 175.109V175.5C337.145 175.857 337.041 176.204 336.862 176.513C336.682 176.822 336.432 177.084 336.132 177.278L315.486 189.132C314.917 189.464 314.454 189.191 314.466 188.539V188.136C314.483 187.782 314.585 187.437 314.762 187.13C314.939 186.823 315.188 186.562 315.486 186.37Z" fill="#EBEBEB"/>
<path d="M356.374 176.78V178.629C356.374 179.542 357.015 179.91 357.798 179.459L381.719 165.661C382.135 165.389 382.48 165.023 382.728 164.593C382.975 164.162 383.117 163.679 383.143 163.183V161.334C383.143 160.421 382.514 160.054 381.719 160.504L357.798 174.303C357.384 174.576 357.039 174.942 356.792 175.372C356.545 175.803 356.402 176.285 356.374 176.78Z" fill="#E0E0E0"/>
<path d="M356.979 136.061L381.778 121.753C382.965 121.09 383.843 121.623 383.843 122.939V151.555C383.801 152.267 383.592 152.961 383.234 153.578C382.875 154.196 382.377 154.721 381.778 155.111L356.979 169.419C355.793 170.071 354.915 169.537 354.915 168.233V139.618C354.954 138.904 355.161 138.21 355.52 137.592C355.879 136.974 356.379 136.449 356.979 136.061Z" fill="#FAFAFA"/>
<path d="M356.054 170.284C355.763 170.287 355.477 170.213 355.223 170.071C354.923 169.872 354.682 169.597 354.523 169.274C354.365 168.951 354.295 168.592 354.322 168.233V139.617C354.361 138.797 354.597 137.999 355.01 137.289C355.423 136.58 356.001 135.98 356.695 135.54L381.493 121.232C381.782 121.006 382.132 120.871 382.499 120.845C382.865 120.82 383.23 120.904 383.548 121.088C383.866 121.271 384.121 121.546 384.282 121.876C384.442 122.205 384.5 122.576 384.448 122.939V151.555C384.407 152.373 384.171 153.169 383.758 153.877C383.345 154.584 382.768 155.182 382.075 155.621L357.276 169.928C356.907 170.151 356.485 170.274 356.054 170.284ZM357.241 136.571C356.729 136.907 356.303 137.357 355.996 137.886C355.69 138.414 355.51 139.007 355.473 139.617V168.233C355.455 168.384 355.473 168.538 355.527 168.68C355.581 168.822 355.668 168.95 355.781 169.051C355.927 169.099 356.082 169.111 356.234 169.084C356.385 169.057 356.527 168.993 356.647 168.897L381.446 154.589C381.956 154.255 382.382 153.807 382.689 153.28C382.995 152.754 383.175 152.163 383.214 151.555V122.939C383.278 122.784 383.284 122.611 383.229 122.452C383.175 122.294 383.065 122.161 382.919 122.078C382.773 121.995 382.602 121.968 382.438 122.002C382.274 122.036 382.128 122.129 382.027 122.263L357.241 136.571Z" fill="#EBEBEB"/>
<path d="M384.697 125.618L379.168 128.807C378.57 129.197 378.073 129.722 377.716 130.34C377.359 130.957 377.154 131.651 377.115 132.363V138.74C377.115 140.044 378.041 140.578 379.168 139.926L384.697 136.737C385.296 136.347 385.794 135.822 386.153 135.204C386.511 134.587 386.72 133.893 386.762 133.181V126.803C386.762 125.487 385.824 124.954 384.697 125.618Z" fill="white"/>
<path d="M358.866 139.143L371.289 132.031C371.859 131.699 372.321 132.031 372.321 132.623V133.027C372.304 133.384 372.201 133.732 372.021 134.041C371.842 134.35 371.591 134.612 371.289 134.805L358.866 141.917C358.297 142.249 357.834 141.976 357.834 141.324V140.91C357.856 140.555 357.961 140.211 358.14 139.904C358.319 139.597 358.568 139.337 358.866 139.143Z" fill="#EBEBEB"/>
<path d="M358.866 144.703L371.289 137.59C371.859 137.27 372.321 137.59 372.321 138.183V138.586C372.301 138.943 372.197 139.289 372.018 139.598C371.838 139.907 371.589 140.17 371.289 140.364L358.866 147.477C358.297 147.809 357.834 147.548 357.834 146.884V146.481C357.853 146.124 357.957 145.777 358.136 145.468C358.316 145.159 358.566 144.897 358.866 144.703Z" fill="#EBEBEB"/>
<path d="M358.866 150.251L371.289 143.138C371.859 142.806 372.321 143.138 372.321 143.731V144.122C372.302 144.479 372.198 144.826 372.019 145.135C371.839 145.444 371.589 145.706 371.289 145.9L358.866 153.013C358.297 153.333 357.834 153.072 357.834 152.42V151.993C357.86 151.643 357.966 151.303 358.145 151.001C358.324 150.699 358.571 150.442 358.866 150.251Z" fill="#EBEBEB"/>
<path d="M358.866 155.81L379.512 143.956C380.081 143.624 380.544 143.897 380.544 144.549V144.881C380.524 145.237 380.42 145.584 380.24 145.893C380.061 146.202 379.811 146.464 379.512 146.659L358.866 158.513C358.297 158.845 357.834 158.572 357.834 157.92V157.517C357.862 157.172 357.97 156.839 358.149 156.543C358.328 156.246 358.574 155.996 358.866 155.81Z" fill="#EBEBEB"/>
<path d="M358.866 161.358L379.512 149.504C380.081 149.184 380.544 149.445 380.544 150.097V150.5C380.524 150.856 380.42 151.203 380.24 151.512C380.061 151.821 379.811 152.083 379.512 152.278L358.866 164.132C358.297 164.452 357.834 164.191 357.834 163.539V163.124C357.856 162.77 357.961 162.425 358.14 162.119C358.319 161.812 358.568 161.551 358.866 161.358Z" fill="#EBEBEB"/>
<path d="M312.995 260.85V262.711C312.995 263.612 313.635 263.979 314.43 263.529L338.363 249.731C338.78 249.463 339.128 249.099 339.378 248.671C339.628 248.242 339.772 247.76 339.798 247.265V245.404C339.798 244.503 339.158 244.135 338.363 244.586L314.454 258.384C314.032 258.649 313.679 259.011 313.425 259.44C313.171 259.869 313.024 260.352 312.995 260.85Z" fill="#E0E0E0"/>
<path d="M313.6 220.131L338.363 205.823C339.49 205.171 340.415 205.704 340.415 207.008V235.624C340.375 236.336 340.168 237.028 339.812 237.646C339.455 238.263 338.959 238.789 338.363 239.18L313.552 253.488C312.366 254.14 311.5 253.619 311.5 252.303V223.687C311.542 222.97 311.755 222.274 312.12 221.656C312.485 221.037 312.993 220.515 313.6 220.131Z" fill="#FAFAFA"/>
<path d="M312.674 254.365C312.383 254.368 312.097 254.295 311.844 254.152C311.545 253.95 311.305 253.672 311.149 253.347C310.993 253.023 310.925 252.662 310.954 252.303V223.687C310.995 222.869 311.232 222.073 311.645 221.365C312.058 220.658 312.635 220.06 313.327 219.621L338.114 205.337C338.402 205.116 338.749 204.985 339.112 204.962C339.475 204.938 339.836 205.022 340.151 205.203C340.466 205.385 340.72 205.655 340.881 205.981C341.042 206.306 341.103 206.672 341.056 207.032V235.648C341.015 236.466 340.778 237.262 340.365 237.969C339.952 238.677 339.375 239.275 338.683 239.714L313.873 254.022C313.509 254.235 313.096 254.354 312.674 254.365ZM339.324 206.131C339.104 206.145 338.892 206.214 338.707 206.332L313.896 220.652C313.387 220.986 312.963 221.434 312.658 221.961C312.353 222.488 312.176 223.079 312.14 223.687V252.303C312.076 252.458 312.07 252.63 312.125 252.789C312.179 252.948 312.289 253.081 312.435 253.164C312.581 253.247 312.752 253.274 312.916 253.24C313.08 253.206 313.226 253.113 313.327 252.978L338.137 238.671C338.644 238.331 339.067 237.88 339.371 237.352C339.676 236.824 339.854 236.232 339.893 235.624V207.008C339.911 206.857 339.893 206.704 339.839 206.562C339.785 206.419 339.698 206.292 339.585 206.19C339.505 206.147 339.415 206.127 339.324 206.131Z" fill="#EBEBEB"/>
<path d="M341.329 209.687L335.8 212.876C335.2 213.265 334.7 213.789 334.342 214.407C333.983 215.025 333.775 215.719 333.735 216.432V222.81C333.735 224.126 334.661 224.647 335.8 223.995L341.329 220.806C341.927 220.416 342.424 219.891 342.781 219.273C343.137 218.655 343.343 217.962 343.382 217.25V210.873C343.382 209.569 342.456 209.035 341.329 209.687Z" fill="white"/>
<path d="M315.486 223.225L327.921 216.112C328.479 215.792 328.942 216.053 328.942 216.705V217.108C328.921 217.463 328.818 217.808 328.641 218.117C328.464 218.425 328.217 218.689 327.921 218.886L315.486 225.998C314.917 226.33 314.454 226.07 314.466 225.406V225.003C314.483 224.647 314.585 224.3 314.762 223.991C314.939 223.682 315.188 223.419 315.486 223.225Z" fill="#EBEBEB"/>
<path d="M315.486 228.772L327.921 221.66C328.479 221.328 328.942 221.601 328.942 222.253V222.644C328.923 222.999 328.82 223.345 328.643 223.654C328.466 223.963 328.219 224.226 327.921 224.422L315.486 231.534C314.917 231.854 314.454 231.594 314.466 230.942V230.527C314.488 230.175 314.591 229.833 314.768 229.529C314.946 229.224 315.191 228.965 315.486 228.772Z" fill="#EBEBEB"/>
<path d="M315.486 234.332L327.921 227.219C328.479 226.899 328.942 227.16 328.942 227.812V228.215C328.921 228.57 328.818 228.916 328.641 229.224C328.464 229.533 328.217 229.796 327.921 229.993L315.486 237.106C314.917 237.438 314.454 237.165 314.466 236.513V236.157C314.474 235.793 314.571 235.436 314.748 235.118C314.926 234.799 315.18 234.53 315.486 234.332Z" fill="#EBEBEB"/>
<path d="M315.486 239.88L336.132 228.026C336.702 227.706 337.164 227.966 337.164 228.618V229.045C337.144 229.402 337.04 229.748 336.861 230.057C336.681 230.366 336.432 230.628 336.132 230.823L315.486 242.677C314.917 242.997 314.454 242.737 314.466 242.085V241.67C314.482 241.312 314.583 240.963 314.761 240.652C314.938 240.341 315.187 240.076 315.486 239.88Z" fill="#EBEBEB"/>
<path d="M315.486 245.439L336.132 233.585C336.702 233.253 337.164 233.514 337.164 234.178V234.569C337.144 234.925 337.04 235.272 336.861 235.581C336.681 235.89 336.432 236.152 336.132 236.347L315.486 248.201C314.917 248.533 314.454 248.26 314.466 247.608V247.205C314.483 246.851 314.585 246.506 314.762 246.199C314.939 245.892 315.188 245.631 315.486 245.439Z" fill="#EBEBEB"/>
<path d="M356.374 235.826V237.687C356.374 238.599 357.015 238.967 357.798 238.505L381.719 224.718C382.135 224.446 382.48 224.08 382.728 223.65C382.975 223.219 383.117 222.737 383.143 222.241V220.391C383.143 219.479 382.514 219.111 381.719 219.562L357.798 233.36C357.385 233.632 357.042 233.996 356.794 234.424C356.547 234.853 356.403 235.332 356.374 235.826Z" fill="#E0E0E0"/>
<path d="M356.979 195.118L381.778 180.81C382.965 180.147 383.843 180.68 383.843 181.996V210.6C383.804 211.313 383.596 212.008 383.238 212.626C382.879 213.244 382.379 213.768 381.778 214.156L356.979 228.476C355.793 229.128 354.915 228.594 354.915 227.291V198.675C354.954 197.961 355.161 197.267 355.52 196.649C355.879 196.031 356.379 195.506 356.979 195.118Z" fill="#FAFAFA"/>
<path d="M356.054 229.341C355.763 229.344 355.477 229.27 355.223 229.128C354.923 228.929 354.682 228.654 354.523 228.331C354.365 228.008 354.295 227.649 354.322 227.291V198.675C354.36 197.855 354.596 197.056 355.009 196.346C355.422 195.636 356 195.036 356.695 194.597L381.493 180.289C381.782 180.063 382.132 179.928 382.499 179.903C382.865 179.877 383.23 179.961 383.548 180.145C383.866 180.329 384.121 180.603 384.282 180.933C384.442 181.263 384.5 181.633 384.448 181.996V210.6C384.409 211.42 384.174 212.219 383.761 212.929C383.347 213.639 382.769 214.239 382.075 214.678L357.276 229.045C356.901 229.247 356.48 229.349 356.054 229.341ZM357.241 195.628C356.729 195.964 356.303 196.414 355.996 196.943C355.69 197.472 355.51 198.065 355.473 198.675V227.291C355.452 227.44 355.47 227.592 355.524 227.733C355.578 227.874 355.666 227.999 355.781 228.097C355.926 228.148 356.081 228.161 356.232 228.136C356.384 228.111 356.526 228.049 356.647 227.954L381.481 213.635C381.993 213.299 382.419 212.849 382.726 212.32C383.032 211.791 383.212 211.198 383.249 210.588V181.996C383.314 181.841 383.319 181.668 383.265 181.51C383.211 181.351 383.1 181.218 382.955 181.135C382.809 181.052 382.638 181.025 382.474 181.059C382.309 181.093 382.163 181.186 382.063 181.32L357.241 195.628Z" fill="#EBEBEB"/>
<path d="M384.697 184.675L379.168 187.864C378.57 188.254 378.073 188.779 377.716 189.397C377.359 190.015 377.154 190.708 377.115 191.42V197.797C377.115 199.101 378.041 199.635 379.168 198.983L384.697 195.794C385.296 195.404 385.794 194.879 386.153 194.261C386.511 193.644 386.72 192.951 386.762 192.238V185.86C386.762 184.545 385.824 183.999 384.697 184.675Z" fill="white"/>
<path d="M358.866 198.224L371.289 191.112C371.859 190.78 372.321 191.053 372.321 191.705V192.096C372.302 192.452 372.198 192.8 372.019 193.109C371.839 193.418 371.589 193.68 371.289 193.874L358.866 200.986C358.297 201.306 357.834 200.986 357.834 200.394V199.979C357.858 199.626 357.964 199.284 358.143 198.98C358.322 198.675 358.57 198.417 358.866 198.224Z" fill="#EBEBEB"/>
<path d="M358.866 203.76L371.289 196.648C371.859 196.328 372.321 196.648 372.321 197.24V197.643C372.301 198 372.197 198.347 372.018 198.655C371.838 198.964 371.589 199.227 371.289 199.421L358.866 206.534C358.297 206.866 357.834 206.593 357.834 205.941V205.538C357.851 205.181 357.954 204.833 358.134 204.524C358.313 204.215 358.564 203.953 358.866 203.76Z" fill="#EBEBEB"/>
<path d="M358.866 209.308L371.289 202.195C371.859 201.863 372.321 202.124 372.321 202.788V203.179C372.301 203.536 372.197 203.883 372.018 204.191C371.838 204.5 371.589 204.763 371.289 204.957L358.866 212.07C358.297 212.39 357.834 212.129 357.834 211.477V211.062C357.858 210.71 357.964 210.368 358.143 210.063C358.322 209.759 358.57 209.5 358.866 209.308Z" fill="#EBEBEB"/>
<path d="M358.866 214.82L379.512 202.966C380.081 202.634 380.544 202.895 380.544 203.559V203.95C380.524 204.306 380.42 204.653 380.24 204.962C380.061 205.271 379.811 205.533 379.512 205.728L358.866 217.582C358.297 217.914 357.834 217.641 357.834 216.989V216.586C357.853 216.231 357.957 215.886 358.136 215.579C358.316 215.271 358.566 215.011 358.866 214.82Z" fill="#EBEBEB"/>
<path d="M358.866 220.415L379.512 208.561C380.081 208.229 380.544 208.502 380.544 209.154V209.545C380.527 209.902 380.424 210.25 380.244 210.559C380.065 210.869 379.813 211.13 379.512 211.323L358.866 223.177C358.297 223.497 357.834 223.236 357.834 222.584V222.17C357.858 221.817 357.964 221.475 358.143 221.171C358.322 220.866 358.57 220.608 358.866 220.415Z" fill="#EBEBEB"/>
<path d="M224.336 312.024V313.873C224.336 314.786 224.977 315.153 225.772 314.703L249.681 300.905C250.098 300.636 250.446 300.273 250.695 299.844C250.945 299.415 251.089 298.934 251.117 298.439V296.613C251.117 295.701 250.476 295.333 249.681 295.796L225.772 309.582C225.36 309.85 225.015 310.21 224.766 310.633C224.517 311.057 224.37 311.533 224.336 312.024Z" fill="#E0E0E0"/>
<path d="M224.942 271.305L249.752 256.997C250.939 256.345 251.805 256.867 251.805 258.182V286.798C251.764 287.51 251.556 288.202 251.2 288.819C250.844 289.437 250.348 289.962 249.752 290.354L224.942 304.662C223.755 305.314 222.889 304.781 222.889 303.477V274.861C222.926 274.148 223.131 273.455 223.487 272.837C223.844 272.218 224.343 271.693 224.942 271.305Z" fill="#FAFAFA"/>
<path d="M224.016 305.528C223.725 305.531 223.439 305.457 223.186 305.314C222.887 305.115 222.647 304.84 222.491 304.517C222.334 304.194 222.267 303.835 222.296 303.477V274.861C222.337 274.043 222.574 273.247 222.987 272.54C223.4 271.832 223.977 271.234 224.669 270.795L249.479 256.487C249.766 256.26 250.115 256.125 250.48 256.098C250.845 256.071 251.209 256.154 251.527 256.337C251.844 256.52 252.099 256.793 252.258 257.122C252.418 257.451 252.475 257.821 252.422 258.182V286.798C252.381 287.616 252.143 288.412 251.731 289.12C251.318 289.827 250.741 290.425 250.049 290.864L225.238 305.172C224.869 305.395 224.448 305.518 224.016 305.528ZM225.238 271.815C224.729 272.152 224.306 272.602 224.001 273.131C223.696 273.66 223.518 274.252 223.482 274.861V303.477C223.418 303.632 223.412 303.805 223.467 303.963C223.521 304.122 223.631 304.255 223.777 304.338C223.923 304.421 224.094 304.448 224.258 304.414C224.422 304.38 224.568 304.287 224.669 304.153L249.479 289.833C249.986 289.496 250.408 289.047 250.713 288.521C251.018 287.995 251.196 287.405 251.235 286.798V258.182C251.3 258.028 251.305 257.855 251.251 257.696C251.197 257.538 251.086 257.404 250.941 257.321C250.795 257.238 250.624 257.211 250.46 257.246C250.295 257.28 250.149 257.373 250.049 257.507L225.238 271.815Z" fill="#EBEBEB"/>
<path d="M252.671 260.861L247.142 264.05C246.541 264.438 246.041 264.963 245.682 265.581C245.323 266.199 245.116 266.893 245.077 267.606V273.984C245.077 275.288 246.003 275.821 247.142 275.169L252.671 271.981C253.267 271.589 253.764 271.064 254.12 270.446C254.477 269.829 254.683 269.136 254.724 268.424V262.047C254.724 260.731 253.798 260.209 252.671 260.861Z" fill="white"/>
<path d="M226.828 274.399L239.263 267.286C239.821 266.954 240.284 267.227 240.284 267.879V268.27C240.265 268.626 240.164 268.972 239.986 269.281C239.809 269.59 239.561 269.853 239.263 270.048L226.828 277.161C226.259 277.493 225.808 277.161 225.808 276.568V276.165C225.825 275.811 225.926 275.466 226.104 275.159C226.281 274.851 226.53 274.591 226.828 274.399Z" fill="#EBEBEB"/>
<path d="M226.828 279.947L239.263 272.834C239.821 272.514 240.284 272.775 240.284 273.439V273.83C240.263 274.185 240.16 274.53 239.983 274.839C239.806 275.147 239.559 275.411 239.263 275.608L226.828 282.72C226.259 283.041 225.808 282.72 225.808 282.128V281.713C225.828 281.359 225.93 281.015 226.108 280.708C226.285 280.402 226.532 280.141 226.828 279.947Z" fill="#EBEBEB"/>
<path d="M226.828 285.506L239.263 278.394C239.821 278.062 240.284 278.334 240.284 278.986V279.378C240.265 279.733 240.164 280.08 239.986 280.389C239.809 280.698 239.561 280.96 239.263 281.156L226.828 288.316C226.259 288.647 225.808 288.316 225.808 287.723V287.308C225.819 286.948 225.918 286.595 226.096 286.282C226.274 285.968 226.525 285.702 226.828 285.506Z" fill="#EBEBEB"/>
<path d="M226.828 291.054L247.474 279.2C248.044 278.868 248.506 279.2 248.506 279.792V280.184C248.489 280.541 248.386 280.889 248.206 281.198C248.027 281.507 247.776 281.769 247.474 281.962L226.828 293.816C226.259 294.148 225.808 293.887 225.808 293.223V292.82C225.828 292.466 225.93 292.122 226.108 291.816C226.285 291.509 226.532 291.248 226.828 291.054Z" fill="#EBEBEB"/>
<path d="M226.828 296.613L247.474 284.759C248.044 284.439 248.506 284.759 248.506 285.352V285.755C248.486 286.112 248.382 286.458 248.202 286.767C248.023 287.076 247.774 287.338 247.474 287.533L226.828 299.387C226.259 299.707 225.808 299.447 225.808 298.795V298.38C225.828 298.026 225.93 297.682 226.108 297.375C226.285 297.069 226.532 296.808 226.828 296.613Z" fill="#EBEBEB"/>
<path d="M267.716 287V288.861C267.716 289.762 268.357 290.141 269.14 289.679L293.061 275.881C293.478 275.613 293.824 275.249 294.072 274.82C294.32 274.391 294.461 273.91 294.485 273.415V271.566C294.485 270.653 293.856 270.285 293.061 270.736L269.14 284.534C268.727 284.805 268.382 285.17 268.135 285.598C267.888 286.026 267.744 286.506 267.716 287Z" fill="#E0E0E0"/>
<path d="M268.357 246.281L293.156 231.973C294.342 231.321 295.22 231.854 295.22 233.158V261.774C295.181 262.488 294.974 263.182 294.615 263.8C294.256 264.418 293.756 264.942 293.156 265.33L268.357 279.638C267.17 280.302 266.292 279.769 266.292 278.453V249.837C266.334 249.124 266.543 248.431 266.901 247.814C267.26 247.196 267.758 246.671 268.357 246.281Z" fill="#FAFAFA"/>
<path d="M267.396 280.516C267.105 280.518 266.819 280.445 266.565 280.302C266.265 280.101 266.024 279.823 265.866 279.499C265.707 279.174 265.638 278.813 265.664 278.453V249.837C265.706 249.019 265.943 248.224 266.356 247.516C266.769 246.809 267.345 246.211 268.037 245.771L292.823 231.416C293.112 231.191 293.46 231.057 293.825 231.031C294.19 231.005 294.554 231.089 294.871 231.271C295.189 231.453 295.444 231.725 295.606 232.053C295.767 232.38 295.827 232.749 295.778 233.111V261.727C295.74 262.545 295.504 263.343 295.091 264.051C294.677 264.759 294.099 265.356 293.405 265.793L268.606 280.113C268.245 280.35 267.828 280.489 267.396 280.516ZM294.046 232.293C293.821 232.299 293.603 232.369 293.417 232.495L268.618 246.826C268.108 247.16 267.682 247.608 267.375 248.135C267.068 248.662 266.889 249.253 266.85 249.861V278.477C266.829 278.628 266.846 278.782 266.9 278.925C266.954 279.068 267.043 279.195 267.159 279.295C267.304 279.342 267.458 279.354 267.609 279.33C267.76 279.305 267.903 279.244 268.025 279.152L292.823 264.844C293.334 264.508 293.759 264.058 294.066 263.529C294.373 263 294.553 262.408 294.591 261.798V233.158C294.609 233.007 294.591 232.854 294.537 232.712C294.483 232.569 294.396 232.442 294.283 232.34C294.208 232.307 294.127 232.29 294.046 232.293Z" fill="#EBEBEB"/>
<path d="M296.039 235.837L290.51 239.026C289.914 239.418 289.418 239.944 289.062 240.561C288.705 241.179 288.498 241.871 288.457 242.582V248.96C288.457 250.276 289.382 250.809 290.51 250.145L296.039 246.956C296.639 246.568 297.14 246.044 297.498 245.426C297.857 244.808 298.065 244.114 298.104 243.4V237.023C298.104 235.719 297.178 235.185 296.039 235.837Z" fill="white"/>
<path d="M270.208 249.375L282.631 242.262C283.201 241.942 283.663 242.203 283.663 242.867V243.27C283.643 243.626 283.539 243.973 283.36 244.282C283.18 244.591 282.931 244.853 282.631 245.048L270.208 252.161C269.638 252.481 269.176 252.22 269.176 251.556V251.153C269.196 250.796 269.3 250.45 269.479 250.141C269.659 249.832 269.908 249.57 270.208 249.375Z" fill="#EBEBEB"/>
<path d="M270.208 254.934L282.631 247.822C283.201 247.49 283.663 247.763 283.663 248.415V248.806C283.646 249.163 283.543 249.511 283.363 249.82C283.184 250.129 282.933 250.391 282.631 250.584L270.208 257.696C269.638 258.028 269.176 257.756 269.176 257.104V256.689C269.197 256.336 269.302 255.993 269.481 255.688C269.66 255.383 269.91 255.125 270.208 254.934Z" fill="#EBEBEB"/>
<path d="M270.208 260.482L282.631 253.37C283.201 253.05 283.663 253.31 283.663 253.962V254.365C283.643 254.722 283.539 255.069 283.36 255.378C283.18 255.686 282.931 255.949 282.631 256.144L270.208 263.256C269.638 263.588 269.176 263.327 269.176 262.663V262.237C269.2 261.884 269.305 261.542 269.485 261.238C269.664 260.933 269.911 260.675 270.208 260.482Z" fill="#EBEBEB"/>
<path d="M270.208 266.03L290.854 254.176C291.423 253.856 291.886 254.116 291.886 254.768V255.124C291.866 255.481 291.762 255.827 291.582 256.136C291.403 256.445 291.153 256.707 290.854 256.902L270.208 268.756C269.638 269.076 269.176 268.816 269.176 268.164V267.749C269.205 267.402 269.313 267.068 269.492 266.77C269.671 266.472 269.916 266.219 270.208 266.03Z" fill="#EBEBEB"/>
<path d="M270.208 271.589L290.854 259.735C291.423 259.403 291.886 259.676 291.886 260.328V260.719C291.867 261.076 291.763 261.423 291.584 261.732C291.404 262.041 291.154 262.303 290.854 262.497L270.208 274.351C269.638 274.683 269.176 274.351 269.176 273.759V273.356C269.195 273.001 269.299 272.655 269.478 272.348C269.658 272.041 269.908 271.781 270.208 271.589Z" fill="#EBEBEB"/>
<path d="M155.41 158.999L150.593 156.19V178.44L155.41 181.225V158.999Z" fill="white"/>
<path opacity="0.1" d="M155.41 158.999L150.593 156.19V178.44L155.41 181.225V158.999Z" fill="black"/>
<path d="M440.085 250.94C439.536 250.691 438.931 250.591 438.332 250.649C437.732 250.708 437.158 250.922 436.667 251.272C435.267 252.18 434.1 253.404 433.259 254.846C432.419 256.287 431.928 257.905 431.826 259.57C431.763 260.168 431.859 260.773 432.105 261.323C432.351 261.872 432.738 262.347 433.226 262.699L493.289 300.632C494.475 301.462 496.267 301.415 498.225 300.288C500.192 299.016 501.832 297.297 503.009 295.272C504.186 293.248 504.868 290.974 505 288.636C505 286.384 504.169 284.831 502.841 284.179L440.085 250.94Z" fill="white"/>
<path opacity="0.15" d="M431.826 259.617C431.826 262.687 433.974 263.944 436.644 262.414C438.044 261.506 439.211 260.282 440.052 258.841C440.892 257.399 441.383 255.781 441.485 254.117C441.485 251.046 439.337 249.79 436.667 251.319C435.267 252.228 434.1 253.452 433.259 254.893C432.419 256.334 431.928 257.952 431.826 259.617Z" fill="black"/>
<path d="M418.537 242.962C417.685 243.513 416.975 244.258 416.466 245.136C415.956 246.013 415.662 246.999 415.606 248.012C415.569 248.372 415.627 248.736 415.775 249.067C415.922 249.398 416.155 249.684 416.449 249.897L434.579 260.411C434.908 260.564 435.272 260.626 435.633 260.59C435.994 260.555 436.339 260.424 436.632 260.21C437.493 259.658 438.209 258.909 438.721 258.024C439.233 257.139 439.526 256.145 439.574 255.124C439.617 254.762 439.561 254.394 439.413 254.061C439.265 253.727 439.029 253.439 438.732 253.228L420.602 242.713C420.266 242.567 419.898 242.513 419.535 242.557C419.173 242.601 418.828 242.74 418.537 242.962Z" fill="#263238"/>
<path opacity="0.1" d="M438.91 260.447L500.705 298.38C499.973 299.139 499.143 299.796 498.237 300.336C496.279 301.462 494.523 301.521 493.289 300.68L433.238 262.746C433.784 262.999 434.387 263.101 434.986 263.042C435.585 262.984 436.157 262.767 436.644 262.414C437.506 261.893 438.273 261.228 438.91 260.447Z" fill="black"/>
<path d="M449.28 206.439C449.28 205.93 449.28 205.444 449.209 204.946C449.138 204.448 449.15 203.962 449.09 203.476C449.031 202.99 449.031 202.836 448.995 202.516C448.912 201.662 448.782 200.832 448.651 200.038C448.58 199.682 448.521 199.303 448.45 198.947C448.378 198.592 448.307 198.272 448.236 197.928C448.022 197.015 447.809 196.114 447.548 195.261C447.405 194.858 447.287 194.443 447.144 194.075C447.121 194.013 447.101 193.95 447.085 193.886C446.931 193.483 446.8 193.103 446.646 192.7C446.486 192.265 446.304 191.837 446.1 191.42C445.971 191.108 445.824 190.803 445.661 190.507C445.576 190.284 445.469 190.069 445.341 189.867C445.222 189.606 445.08 189.346 444.937 189.097L444.831 188.919C444.712 188.694 444.57 188.48 444.439 188.255C444.309 188.03 444.249 187.971 444.166 187.828C443.527 186.828 442.813 185.877 442.03 184.983C441.888 184.841 441.758 184.687 441.627 184.545C441.497 184.402 441.402 184.308 441.295 184.189L440.856 183.762C440.452 183.339 440.02 182.943 439.562 182.577C439.355 182.394 439.137 182.224 438.91 182.067C438.684 181.889 438.459 181.723 438.222 181.569C437.869 181.306 437.5 181.065 437.118 180.846L436.822 180.657H436.762L423.71 173.082L423.615 173.022C420.237 171.14 416.424 170.176 412.557 170.225C406.79 170.225 400.288 172.122 393.394 176.093C369.664 189.749 350.513 222.964 350.513 250.3C350.513 263.92 355.259 273.498 362.995 277.991H363.066L376.118 285.554H376.19L376.403 285.672C376.747 285.862 377.079 286.04 377.424 286.206C377.768 286.372 378.278 286.597 378.717 286.775C379.156 286.952 379.5 287.083 379.903 287.201C380.112 287.281 380.326 287.344 380.544 287.391C380.762 287.48 380.989 287.547 381.22 287.593L381.92 287.77C382.088 287.817 382.258 287.853 382.431 287.877L383.356 288.043H383.57L384.685 288.185C391.081 288.861 398.508 287.059 406.458 282.483C430.189 268.816 449.34 235.589 449.34 208.277C449.316 207.708 449.304 207.091 449.28 206.439ZM420.554 187.117C421.482 190.516 421.938 194.026 421.907 197.549C421.907 221.648 404.251 252.184 383.368 264.228C380.319 266.041 377.027 267.411 373.591 268.294C372.662 264.892 372.207 261.377 372.238 257.851C372.238 233.751 389.882 203.215 410.777 191.171C413.825 189.359 417.118 187.994 420.554 187.117Z" fill="white"/>
<path opacity="0.1" d="M375.501 285.257L362.924 277.979C355.212 273.474 350.442 263.884 350.442 250.288C350.442 238.102 354.262 224.754 360.587 212.485L373.638 220.06C367.302 232.317 363.482 245.676 363.482 257.862C363.529 271.186 368.026 280.634 375.501 285.257Z" fill="black"/>
<path opacity="0.4" d="M449.28 206.439C449.28 205.93 449.28 205.443 449.209 204.946C449.138 204.448 449.15 203.962 449.09 203.476C449.031 202.99 449.031 202.836 448.995 202.516C448.912 201.662 448.782 200.832 448.651 200.038C448.58 199.682 448.521 199.303 448.45 198.947C448.378 198.592 448.307 198.272 448.236 197.928C448.022 197.015 447.809 196.114 447.548 195.261C447.405 194.858 447.287 194.443 447.144 194.075C447.121 194.013 447.101 193.95 447.085 193.886C446.931 193.483 446.8 193.103 446.646 192.7C446.486 192.265 446.304 191.837 446.1 191.42C445.971 191.108 445.824 190.803 445.661 190.507C445.576 190.284 445.469 190.069 445.341 189.867C445.222 189.606 445.08 189.346 444.937 189.097L444.831 188.919C444.712 188.694 444.57 188.48 444.439 188.255C444.309 188.03 444.249 187.971 444.166 187.828C443.527 186.828 442.813 185.877 442.03 184.983C441.888 184.841 441.758 184.687 441.627 184.545C441.496 184.402 441.402 184.308 441.295 184.189L440.856 183.762C440.452 183.339 440.02 182.943 439.562 182.577C439.355 182.394 439.137 182.224 438.91 182.067C438.684 181.889 438.459 181.723 438.222 181.569C437.869 181.306 437.5 181.065 437.118 180.846C429.335 176.105 418.134 176.223 406.434 183.608C382.929 198.402 363.66 231.202 363.541 257.815C363.482 271.661 368.453 281.322 376.391 285.72C376.735 285.909 377.068 286.087 377.412 286.253C377.756 286.419 378.266 286.644 378.705 286.822C379.144 287 379.488 287.13 379.891 287.249C380.1 287.328 380.314 287.392 380.532 287.438C380.751 287.527 380.977 287.595 381.209 287.64L381.909 287.818C382.076 287.865 382.247 287.9 382.419 287.925L383.344 288.09H383.558L384.673 288.233C391.069 288.908 398.496 287.107 406.446 282.531C430.177 268.863 449.328 235.636 449.328 208.324C449.316 207.708 449.304 207.091 449.28 206.439ZM402.08 275.075C396.764 278.145 391.65 279.757 387.272 279.757C379.061 279.757 375.288 274.162 373.591 268.294C372.662 264.892 372.207 261.377 372.238 257.851C372.238 233.751 389.882 203.215 410.777 191.171C413.825 189.359 417.118 187.994 420.554 187.117C422.201 186.714 423.889 186.503 425.585 186.489C439.159 186.489 440.607 201.804 440.607 208.395C440.607 232.495 422.975 263.031 402.08 275.075Z" fill="white"/>
<path opacity="0.1" d="M440.607 208.395C440.607 232.483 422.975 263.031 402.08 275.075C396.764 278.145 391.65 279.757 387.284 279.757C385.375 279.834 383.474 279.475 381.725 278.709C379.975 277.943 378.423 276.789 377.186 275.335C376.973 275.086 376.771 274.826 376.569 274.565C376.368 274.304 376.178 274.031 376.012 273.747C375.878 273.552 375.755 273.351 375.644 273.142C375.561 273.012 375.478 272.882 375.406 272.751C375.335 272.621 375.24 272.419 375.145 272.253C375.05 272.087 374.991 271.945 374.92 271.791C374.849 271.637 374.766 271.483 374.694 271.317L374.339 270.463C374.196 270.108 374.066 269.752 373.947 269.385C373.828 269.017 373.698 268.662 373.603 268.294C377.039 267.411 380.331 266.041 383.38 264.228C404.263 252.184 421.919 221.648 421.919 197.549C421.95 194.026 421.494 190.516 420.566 187.117C422.213 186.714 423.901 186.503 425.597 186.489C426.259 186.491 426.921 186.531 427.578 186.607L428.195 186.702C439.337 188.551 440.607 202.255 440.607 208.395Z" fill="black"/>
<path opacity="0.7" d="M433.108 204.151C433.108 228.251 415.476 258.787 394.581 270.831C389.265 273.901 384.151 275.572 379.773 275.572C378.902 275.576 378.033 275.505 377.174 275.359C376.961 275.11 376.759 274.849 376.557 274.589C376.356 274.328 376.166 274.055 376 273.771C375.866 273.576 375.743 273.374 375.632 273.166C375.549 273.036 375.466 272.905 375.395 272.775C375.323 272.645 375.228 272.443 375.133 272.277C375.039 272.111 374.979 271.969 374.908 271.815C374.837 271.661 374.754 271.507 374.683 271.341L374.327 270.487C374.184 270.131 374.054 269.776 373.935 269.408C373.816 269.041 373.686 268.685 373.591 268.318C377.027 267.434 380.319 266.065 383.368 264.252C404.251 252.208 421.907 221.672 421.907 197.572C421.938 194.05 421.482 190.539 420.554 187.141C422.201 186.738 423.889 186.527 425.585 186.512C426.247 186.515 426.909 186.554 427.567 186.631L428.184 186.726C432.479 191.752 433.108 199.848 433.108 204.151Z" fill="white"/>
</svg>
