<svg width="502" height="546" viewBox="0 0 502 546" fill="none" xmlns="http://www.w3.org/2000/svg">
<path d="M270.96 80.6796H232.067C231.211 80.6796 230.39 80.3405 229.784 79.7365C229.177 79.1326 228.834 78.3129 228.83 77.4567V59.1324C228.83 53.1165 231.219 47.3471 235.472 43.0932C239.724 38.8394 245.492 36.4496 251.506 36.4496C257.52 36.4496 263.288 38.8394 267.54 43.0932C271.793 47.3471 274.182 53.1165 274.182 59.1324V77.4567C274.182 78.3114 273.842 79.1312 273.238 79.7356C272.634 80.34 271.815 80.6796 270.96 80.6796ZM235.305 74.2185H267.723V59.1324C267.79 56.9612 267.42 54.7986 266.635 52.7731C265.851 50.7475 264.667 48.9002 263.156 47.3407C261.644 45.7813 259.835 44.5414 257.835 43.6947C255.835 42.848 253.685 42.4117 251.514 42.4117C249.342 42.4117 247.193 42.848 245.193 43.6947C243.193 44.5414 241.383 45.7813 239.872 47.3407C238.36 48.9002 237.177 50.7475 236.392 52.7731C235.608 54.7986 235.238 56.9612 235.305 59.1324V74.2185Z" fill="white" stroke="#263238" stroke-linecap="round" stroke-linejoin="round"/>
<path d="M275.946 71.855H226.437V113.706H275.946V71.855Z" fill="#263238" stroke="#263238" stroke-linecap="round" stroke-linejoin="round"/>
<path d="M256.339 89.2278C256.343 88.2712 256.092 87.3307 255.614 86.5026C255.135 85.6744 254.445 84.9882 253.615 84.5141C252.784 84.0401 251.842 83.7952 250.886 83.8045C249.93 83.8138 248.993 84.0769 248.172 84.567C247.35 85.0571 246.674 85.7565 246.211 86.5938C245.749 87.4311 245.517 88.3763 245.539 89.3327C245.562 90.289 245.838 91.2223 246.339 92.0371C246.84 92.8518 247.548 93.5189 248.392 93.97L247.486 103.485H254.421L253.516 93.97C254.371 93.509 255.086 92.8245 255.583 91.9894C256.08 91.1542 256.341 90.1998 256.339 89.2278Z" fill="white" stroke="#263238" stroke-miterlimit="10"/>
<path d="M451.984 287.265H413.091C412.667 287.265 412.246 287.181 411.854 287.019C411.463 286.856 411.107 286.617 410.807 286.316C410.508 286.015 410.271 285.658 410.11 285.265C409.949 284.872 409.867 284.452 409.869 284.027V265.718C409.79 262.691 410.318 259.678 411.422 256.858C412.526 254.038 414.183 251.468 416.296 249.299C418.409 247.13 420.934 245.406 423.724 244.229C426.513 243.052 429.51 242.445 432.537 242.445C435.565 242.445 438.562 243.052 441.351 244.229C444.14 245.406 446.666 247.13 448.779 249.299C450.891 251.468 452.549 254.038 453.652 256.858C454.756 259.678 455.284 262.691 455.205 265.718V284.027C455.208 284.452 455.126 284.872 454.965 285.265C454.804 285.658 454.567 286.015 454.267 286.316C453.968 286.617 453.612 286.856 453.22 287.019C452.828 287.181 452.408 287.265 451.984 287.265ZM416.328 280.804H448.746V265.718C448.813 263.547 448.443 261.384 447.659 259.359C446.874 257.333 445.691 255.486 444.179 253.926C442.667 252.367 440.858 251.127 438.858 250.28C436.858 249.434 434.709 248.997 432.537 248.997C430.366 248.997 428.216 249.434 426.216 250.28C424.217 251.127 422.407 252.367 420.895 253.926C419.383 255.486 418.2 257.333 417.416 259.359C416.631 261.384 416.261 263.547 416.328 265.718V280.804Z" fill="white" stroke="#263238" stroke-linecap="round" stroke-linejoin="round"/>
<path d="M456.97 278.441H407.46V320.292H456.97V278.441Z" fill="#263238" stroke="#263238" stroke-linecap="round" stroke-linejoin="round"/>
<path d="M437.362 295.89C437.366 294.934 437.116 293.993 436.637 293.165C436.159 292.337 435.469 291.651 434.638 291.177C433.808 290.703 432.866 290.458 431.91 290.467C430.953 290.476 430.017 290.739 429.195 291.229C428.374 291.719 427.698 292.419 427.235 293.256C426.773 294.094 426.541 295.039 426.563 295.995C426.585 296.951 426.861 297.885 427.362 298.699C427.863 299.514 428.572 300.181 429.415 300.632L428.51 310.132H435.46L434.539 300.494C435.374 300.043 436.074 299.38 436.569 298.572C437.065 297.763 437.339 296.838 437.362 295.89Z" fill="white" stroke="#263238" stroke-miterlimit="10"/>
<path d="M87.7579 287.265H48.8345C48.4088 287.267 47.9869 287.185 47.5933 287.023C47.1996 286.861 46.8419 286.622 46.5409 286.321C46.2399 286.02 46.0015 285.662 45.8396 285.269C45.6776 284.875 45.5952 284.453 45.5973 284.027V265.718C45.5973 259.702 47.9863 253.933 52.2389 249.679C56.4914 245.425 62.2591 243.035 68.2732 243.035C74.2872 243.035 80.0549 245.425 84.3074 249.679C88.56 253.933 90.949 259.702 90.949 265.718V284.027C90.9531 284.879 90.6197 285.698 90.0217 286.305C89.4236 286.912 88.6097 287.257 87.7579 287.265ZM52.1024 280.804H84.536V265.718C84.536 261.416 82.8274 257.29 79.7862 254.248C76.745 251.205 72.6201 249.496 68.3192 249.496C64.0182 249.496 59.8934 251.205 56.8522 254.248C53.8109 257.29 52.1024 261.416 52.1024 265.718V280.804Z" fill="white" stroke="#263238" stroke-linecap="round" stroke-linejoin="round"/>
<path d="M92.7595 278.441H43.2499V320.292H92.7595V278.441Z" fill="#263238" stroke="#263238" stroke-linecap="round" stroke-linejoin="round"/>
<path d="M73.152 295.89C73.1544 294.935 72.9033 293.996 72.4244 293.169C71.9455 292.342 71.256 291.657 70.4261 291.184C69.5962 290.711 68.6557 290.466 67.7005 290.475C66.7453 290.484 65.8096 290.746 64.9888 291.235C64.168 291.724 63.4915 292.422 63.0284 293.258C62.5652 294.093 62.3319 295.037 62.3523 295.992C62.3727 296.948 62.646 297.88 63.1444 298.696C63.6428 299.511 64.3485 300.179 65.1894 300.632L64.2842 310.132H71.2189L70.3137 300.494C71.1516 300.047 71.8559 299.385 72.3545 298.576C72.8531 297.767 73.1283 296.84 73.152 295.89Z" fill="white" stroke="#263238" stroke-miterlimit="10"/>
<path d="M481.886 257.523C475.749 263.938 472.097 273.76 472.159 283.751C472.22 293.742 476.071 303.702 482.438 310.056C482.924 310.542 483.584 310.815 484.271 310.815C484.959 310.815 485.619 310.542 486.105 310.056C486.348 309.815 486.54 309.528 486.669 309.212C486.798 308.895 486.862 308.556 486.857 308.214C486.852 307.531 486.582 306.876 486.105 306.388C480.674 301.001 477.406 292.575 477.344 283.735C477.283 274.896 480.413 266.593 485.629 261.129C485.865 260.884 486.05 260.594 486.174 260.276C486.297 259.959 486.357 259.62 486.35 259.28C486.343 258.939 486.269 258.603 486.132 258.291C485.995 257.979 485.798 257.697 485.553 257.461C485.307 257.226 485.017 257.041 484.7 256.917C484.382 256.793 484.044 256.733 483.703 256.74C483.363 256.747 483.027 256.821 482.715 256.958C482.403 257.095 482.122 257.292 481.886 257.538V257.523Z" fill="white"/>
<path d="M489.45 264.506C485.135 269.972 482.817 276.749 482.882 283.713C482.946 290.678 485.388 297.411 489.802 302.796C490.253 303.318 490.892 303.639 491.579 303.691C492.266 303.743 492.945 303.52 493.469 303.073C493.754 302.826 493.982 302.519 494.136 302.174C494.29 301.829 494.366 301.455 494.359 301.078C494.362 300.469 494.143 299.88 493.745 299.42C490.124 294.963 488.123 289.407 488.07 283.664C488.017 277.92 489.915 272.329 493.454 267.805C493.891 267.274 494.1 266.591 494.034 265.906C493.967 265.221 493.632 264.59 493.101 264.153C492.57 263.715 491.887 263.507 491.202 263.573C490.517 263.639 489.887 263.974 489.45 264.506Z" fill="white"/>
<path d="M496.921 271.581C494.131 275.039 492.649 279.371 492.736 283.814C492.823 288.258 494.474 292.528 497.397 295.875C497.738 296.293 498.2 296.595 498.721 296.738C499.241 296.881 499.793 296.858 500.3 296.672C500.806 296.486 501.242 296.147 501.547 295.701C501.852 295.256 502.01 294.726 502 294.187C502.001 293.583 501.783 292.999 501.386 292.545C499.245 290.098 498.036 286.974 497.972 283.723C497.907 280.472 498.991 277.303 501.033 274.773C501.421 274.229 501.584 273.556 501.488 272.895C501.392 272.234 501.045 271.636 500.519 271.224C499.993 270.813 499.328 270.62 498.664 270.686C497.999 270.753 497.386 271.073 496.952 271.581H496.921Z" fill="white"/>
<path d="M20.7428 257.523C26.8797 263.938 30.5465 273.76 30.4698 283.751C30.3931 293.742 26.5575 303.702 20.1905 310.056C19.9487 310.295 19.6621 310.485 19.3469 310.614C19.0318 310.743 18.6944 310.809 18.3539 310.807C18.0134 310.806 17.6765 310.738 17.3625 310.606C17.0485 310.474 16.7634 310.282 16.5237 310.04C16.2839 309.798 16.0941 309.512 15.9651 309.196C15.8361 308.881 15.7705 308.544 15.7719 308.203C15.7733 307.862 15.8418 307.525 15.9734 307.211C16.105 306.897 16.2972 306.612 16.539 306.372C21.9548 300.985 25.2227 292.56 25.2841 283.72C25.3455 274.88 22.2156 266.578 16.9993 261.114C16.5167 260.626 16.2462 259.967 16.2462 259.28C16.2462 258.593 16.5167 257.934 16.9993 257.446C17.2453 257.196 17.5397 257 17.8643 256.868C18.189 256.736 18.5372 256.671 18.8875 256.678C19.2379 256.686 19.5832 256.764 19.9021 256.909C20.2211 257.055 20.5072 257.263 20.7428 257.523Z" fill="white"/>
<path d="M13.1944 264.506C17.5096 269.972 19.826 276.751 19.759 283.716C19.692 290.681 17.2457 297.414 12.8262 302.796C12.3781 303.317 11.742 303.638 11.0575 303.69C10.373 303.741 9.69593 303.519 9.17471 303.073C8.88982 302.824 8.66157 302.518 8.5054 302.173C8.34923 301.829 8.26879 301.456 8.26951 301.078C8.27404 300.468 8.49725 299.879 8.89854 299.42C12.5201 294.963 14.5211 289.407 14.5741 283.664C14.6271 277.92 12.7288 272.329 9.19005 267.805C8.75263 267.274 8.54407 266.591 8.61024 265.906C8.67642 265.221 9.01191 264.59 9.54292 264.153C10.0739 263.715 10.7569 263.507 11.4417 263.573C12.1265 263.639 12.757 263.974 13.1944 264.506Z" fill="white"/>
<path d="M5.7227 271.581C8.50891 275.045 9.98674 279.38 9.89697 283.825C9.8072 288.27 8.15554 292.542 5.23174 295.89C5.01427 296.153 4.74687 296.37 4.44502 296.528C4.14318 296.687 3.81288 296.784 3.47327 296.814C3.13366 296.844 2.79148 296.806 2.46655 296.703C2.14161 296.6 1.84036 296.433 1.58027 296.213C1.28902 295.965 1.05561 295.657 0.896547 295.31C0.737481 294.962 0.656637 294.584 0.659739 294.202C0.664972 293.6 0.882258 293.018 1.27343 292.56C3.43328 290.123 4.65627 286.998 4.72373 283.742C4.79118 280.486 3.69871 277.312 1.64164 274.788C1.43048 274.521 1.2744 274.214 1.18241 273.886C1.09043 273.558 1.06437 273.215 1.10574 272.877C1.14712 272.539 1.25509 272.212 1.42345 271.916C1.5918 271.619 1.81719 271.36 2.08657 271.151C2.62761 270.731 3.3123 270.54 3.99269 270.62C4.67307 270.701 5.2945 271.046 5.7227 271.581Z" fill="white"/>
<path d="M277.557 20.1204C271.129 26.2592 261.325 29.9118 251.322 29.8504C241.319 29.789 231.408 25.9369 225.041 19.6446C224.554 19.1582 224.281 18.4985 224.281 17.8107C224.281 17.1228 224.554 16.4631 225.041 15.9767C225.537 15.4917 226.203 15.2216 226.897 15.2247C227.235 15.2245 227.569 15.2923 227.88 15.4242C228.191 15.556 228.473 15.7491 228.707 15.992C234.093 21.4095 242.515 24.6784 251.353 24.7398C259.668 24.9395 267.749 21.978 273.967 16.4524C274.464 15.9762 275.129 15.7168 275.816 15.7312C276.504 15.7456 277.158 16.0326 277.634 16.5292C278.11 17.0258 278.369 17.6912 278.355 18.379C278.341 19.0669 278.054 19.7209 277.557 20.1971V20.1204Z" fill="white"/>
<path d="M270.53 12.5543C265.07 16.8783 258.293 19.2015 251.329 19.1373C244.364 19.0731 237.632 16.6253 232.251 12.2013C231.973 11.9861 231.741 11.7165 231.571 11.4088C231.4 11.1012 231.293 10.762 231.258 10.4118C231.222 10.0617 231.258 9.70799 231.363 9.37221C231.469 9.03643 231.641 8.72562 231.871 8.4587C232.1 8.19178 232.381 7.97434 232.697 7.81961C233.013 7.66488 233.357 7.57611 233.709 7.55869C234.06 7.54127 234.411 7.59557 234.741 7.71829C235.071 7.84101 235.372 8.02957 235.627 8.27251C240.083 11.8951 245.637 13.8968 251.378 13.9498C257.12 14.0028 262.71 12.1039 267.232 8.5641C267.765 8.17468 268.427 8.00361 269.083 8.08582C269.738 8.16803 270.337 8.49732 270.758 9.00647C271.179 9.51563 271.39 10.1663 271.348 10.8256C271.305 11.4849 271.013 12.1032 270.53 12.5543Z" fill="white"/>
<path d="M263.442 5.09568C259.98 7.87871 255.65 9.35461 251.21 9.26482C246.769 9.17503 242.502 7.52528 239.156 4.60458C238.737 4.26369 238.436 3.80071 238.293 3.28019C238.15 2.75968 238.173 2.20755 238.359 1.70077C238.544 1.19399 238.884 0.757813 239.329 0.453031C239.774 0.148249 240.304 -0.00995256 240.843 0.000485179C241.452 -0.00199043 242.04 0.216096 242.5 0.614367C244.937 2.76865 248.059 3.9868 251.311 4.05145C254.562 4.11611 257.731 3.02306 260.251 0.967352C260.794 0.544044 261.483 0.353924 262.167 0.438828C262.85 0.523733 263.472 0.876704 263.895 1.42009C264.318 1.96347 264.508 2.65275 264.423 3.3363C264.338 4.01986 263.986 4.64169 263.442 5.06499V5.09568Z" fill="white"/>
<path d="M247.333 546C383.931 546 494.666 511.37 494.666 468.651C494.666 425.933 383.931 391.302 247.333 391.302C110.735 391.302 0 425.933 0 468.651C0 511.37 110.735 546 247.333 546Z" fill="white"/>
<path opacity="0.5" d="M247.333 546C383.931 546 494.666 511.37 494.666 468.651C494.666 425.933 383.931 391.302 247.333 391.302C110.735 391.302 0 425.933 0 468.651C0 511.37 110.735 546 247.333 546Z" fill="white"/>
<path d="M249.818 528.903C374.274 528.903 475.166 498.252 475.166 460.441C475.166 422.63 374.274 391.978 249.818 391.978C125.362 391.978 24.4709 422.63 24.4709 460.441C24.4709 498.252 125.362 528.903 249.818 528.903Z" fill="#263238" stroke="#263238" stroke-miterlimit="10"/>
<path d="M249.818 501.77C360.785 501.77 450.741 475.777 450.741 443.712C450.741 411.648 360.785 385.655 249.818 385.655C138.852 385.655 48.8958 411.648 48.8958 443.712C48.8958 475.777 138.852 501.77 249.818 501.77Z" fill="white" stroke="#263238" stroke-miterlimit="10"/>
<path d="M249.818 492.838C351.024 492.838 433.067 469.985 433.067 441.794C433.067 413.603 351.024 390.75 249.818 390.75C148.613 390.75 66.5702 413.603 66.5702 441.794C66.5702 469.985 148.613 492.838 249.818 492.838Z" fill="white" stroke="#263238" stroke-miterlimit="10"/>
<path d="M249.818 492.823C349.685 492.823 430.643 473.687 430.643 450.081C430.643 426.476 349.685 407.34 249.818 407.34C149.952 407.34 68.9943 426.476 68.9943 450.081C68.9943 473.687 149.952 492.823 249.818 492.823Z" fill="white" stroke="#263238" stroke-miterlimit="10"/>
<path d="M77.2791 485.379C77.4479 486.645 77.226 487.932 76.6431 489.068C76.0602 490.203 75.1441 491.134 74.0177 491.734C72.8913 492.334 71.6083 492.576 70.3408 492.426C69.0732 492.277 67.8817 491.743 66.926 490.897C65.9702 490.051 65.2958 488.933 64.9932 487.692C64.6907 486.452 64.7743 485.149 65.2331 483.957C65.6918 482.766 66.5037 481.743 67.5598 481.026C68.616 480.31 69.8659 479.933 71.1422 479.947C72.6729 479.866 74.1739 480.391 75.3218 481.407C76.4696 482.423 77.1725 483.85 77.2791 485.379Z" fill="white" stroke="#263238" stroke-miterlimit="10"/>
<path d="M160.358 514.523C163.781 514.523 166.556 512.091 166.556 509.091C166.556 506.09 163.781 503.658 160.358 503.658C156.934 503.658 154.159 506.09 154.159 509.091C154.159 512.091 156.934 514.523 160.358 514.523Z" fill="white" stroke="#263238" stroke-miterlimit="10"/>
<path d="M272.832 512.973C273.001 514.239 272.779 515.526 272.196 516.661C271.613 517.797 270.697 518.728 269.57 519.328C268.444 519.928 267.161 520.17 265.894 520.02C264.626 519.87 263.434 519.337 262.479 518.491C261.523 517.645 260.849 516.526 260.546 515.286C260.243 514.046 260.327 512.743 260.786 511.551C261.245 510.36 262.056 509.337 263.113 508.62C264.169 507.903 265.419 507.527 266.695 507.54C268.226 507.46 269.727 507.985 270.875 509.001C272.022 510.017 272.725 511.444 272.832 512.973Z" fill="white" stroke="#263238" stroke-miterlimit="10"/>
<path d="M372.02 509.091C375.443 509.091 378.218 506.658 378.218 503.658C378.218 500.657 375.443 498.225 372.02 498.225C368.596 498.225 365.821 500.657 365.821 503.658C365.821 506.658 368.596 509.091 372.02 509.091Z" fill="white" stroke="#263238" stroke-miterlimit="10"/>
<path d="M440.247 484.274C443.67 484.274 446.445 481.842 446.445 478.842C446.445 475.841 443.67 473.409 440.247 473.409C436.824 473.409 434.048 475.841 434.048 478.842C434.048 481.842 436.824 484.274 440.247 484.274Z" fill="white" stroke="#263238" stroke-miterlimit="10"/>
<path d="M468.016 448.946C466.988 450.91 463.414 451.064 460.008 449.299C456.602 447.534 454.684 444.495 455.712 442.531C456.74 440.566 460.314 440.413 463.72 442.178C467.126 443.943 469.044 446.981 468.016 448.946Z" fill="white" stroke="#263238" stroke-miterlimit="10"/>
<path d="M31.6204 448.946C32.6484 450.91 36.2231 451.064 39.6291 449.299C43.0351 447.534 44.9529 444.495 43.925 442.531C42.897 440.566 39.3223 440.413 35.9163 442.178C32.5103 443.943 30.5925 446.981 31.6204 448.946Z" fill="white" stroke="#263238" stroke-miterlimit="10"/>
<path d="M66.2787 430.667V378.304" stroke="#263238" stroke-miterlimit="10"/>
<path d="M100.093 468.851V442.669" stroke="#263238" stroke-miterlimit="10"/>
<path d="M100.093 436.116V383.752" stroke="#263238" stroke-miterlimit="10"/>
<path d="M402.198 471.03V418.666" stroke="#263238" stroke-miterlimit="10"/>
<path d="M370.409 480.115V364.967" stroke="#263238" stroke-miterlimit="10"/>
<path d="M238.603 491.764V467.761" stroke="#263238" stroke-miterlimit="10"/>
<path d="M137.973 483.062V424.36" stroke="#263238" stroke-miterlimit="10"/>
<path d="M316.849 490.214V478.351" stroke="#263238" stroke-miterlimit="10"/>
<path d="M316.849 474.652V450.434" stroke="#263238" stroke-miterlimit="10"/>
<path d="M238.603 456.849V443.758" stroke="#263238" stroke-miterlimit="10"/>
<path d="M402.198 406.665V382.662" stroke="#263238" stroke-miterlimit="10"/>
<path d="M432.744 448.117V331.388" stroke="#263238" stroke-miterlimit="10"/>
<path d="M66.2787 370.661V342.33" stroke="#263238" stroke-miterlimit="10"/>
<path d="M350.54 284.595H343.253V303.871H350.54V284.595Z" fill="#263238" stroke="#263238" stroke-miterlimit="10"/>
<path d="M345.662 141.469H153.837V183.029H345.662V141.469Z" fill="#263238" stroke="#263238" stroke-miterlimit="10"/>
<path d="M350.54 398.316H343.253V417.592H350.54V398.316Z" fill="#263238" stroke="#263238" stroke-miterlimit="10"/>
<path d="M155.586 398.316H148.299V417.592H155.586V398.316Z" fill="#263238" stroke="#263238" stroke-miterlimit="10"/>
<path d="M154.527 173.068H147.24V192.344H154.527V173.068Z" fill="#263238" stroke="#263238" stroke-miterlimit="10"/>
<path d="M154.527 342.177H147.24V361.453H154.527V342.177Z" fill="#263238" stroke="#263238" stroke-miterlimit="10"/>
<path d="M154.527 284.472H147.24V303.748H154.527V284.472Z" fill="#263238" stroke="#263238" stroke-miterlimit="10"/>
<path d="M352.412 173.068H345.125V192.344H352.412V173.068Z" fill="#263238" stroke="#263238" stroke-miterlimit="10"/>
<path d="M352.412 342.177H345.125V361.453H352.412V342.177Z" fill="#263238" stroke="#263238" stroke-miterlimit="10"/>
<path d="M154.527 228.67H147.24V247.946H154.527V228.67Z" fill="#263238" stroke="#263238" stroke-miterlimit="10"/>
<path d="M352.412 228.67H345.125V247.946H352.412V228.67Z" fill="#263238" stroke="#263238" stroke-miterlimit="10"/>
<path d="M345.662 162.402H153.837V203.962H345.662V162.402Z" fill="white" stroke="#263238" stroke-miterlimit="10"/>
<path d="M205.372 173.007H194.417V193.357H205.372V173.007Z" fill="white" stroke="#263238" stroke-miterlimit="10"/>
<path d="M188.572 173.007H177.618V193.357H188.572V173.007Z" fill="white" stroke="#263238" stroke-miterlimit="10"/>
<path d="M171.788 173.007H163.058V193.357H171.788V173.007Z" fill="white" stroke="#263238" stroke-miterlimit="10"/>
<path d="M222.172 173.007H211.217V193.357H222.172V173.007Z" fill="white" stroke="#263238" stroke-miterlimit="10"/>
<path d="M295.247 173.007H228.002V193.357H295.247V173.007Z" fill="white" stroke="#263238" stroke-miterlimit="10"/>
<path d="M313.167 187.418C315.997 187.418 318.291 185.123 318.291 182.292C318.291 179.461 315.997 177.166 313.167 177.166C310.337 177.166 308.042 179.461 308.042 182.292C308.042 185.123 310.337 187.418 313.167 187.418Z" fill="white" stroke="#263238" stroke-miterlimit="10"/>
<path d="M338.374 182.323C338.374 181.305 338.072 180.311 337.507 179.465C336.941 178.619 336.138 177.96 335.198 177.571C334.258 177.183 333.223 177.082 332.226 177.281C331.229 177.481 330.313 177.972 329.595 178.693C328.876 179.413 328.388 180.331 328.192 181.329C327.995 182.327 328.099 183.362 328.49 184.301C328.882 185.24 329.543 186.042 330.39 186.605C331.237 187.168 332.233 187.467 333.25 187.464C334.61 187.46 335.914 186.916 336.874 185.953C337.835 184.989 338.374 183.684 338.374 182.323Z" fill="white" stroke="#263238" stroke-miterlimit="10"/>
<path d="M283.249 187.418C286.079 187.418 288.374 185.123 288.374 182.292C288.374 179.461 286.079 177.166 283.249 177.166C280.419 177.166 278.125 179.461 278.125 182.292C278.125 185.123 280.419 187.418 283.249 187.418Z" fill="white" stroke="#263238" stroke-miterlimit="10"/>
<path d="M338.374 203.962H161.109V218.188H338.374V203.962Z" fill="#263238" stroke="#263238" stroke-miterlimit="10"/>
<path d="M345.662 218.204H153.837V259.763H345.662V218.204Z" fill="white" stroke="#263238" stroke-miterlimit="10"/>
<path d="M188.572 228.809H177.618V249.159H188.572V228.809Z" fill="white" stroke="#263238" stroke-miterlimit="10"/>
<path d="M222.172 228.809H211.217V249.159H222.172V228.809Z" fill="white" stroke="#263238" stroke-miterlimit="10"/>
<path d="M205.372 228.809H194.417V249.159H205.372V228.809Z" fill="white" stroke="#263238" stroke-miterlimit="10"/>
<path d="M171.788 228.809H163.058V249.159H171.788V228.809Z" fill="white" stroke="#263238" stroke-miterlimit="10"/>
<path d="M295.247 228.809H228.002V249.159H295.247V228.809Z" fill="white" stroke="#263238" stroke-miterlimit="10"/>
<path d="M313.167 243.219C315.997 243.219 318.291 240.924 318.291 238.094C318.291 235.263 315.997 232.968 313.167 232.968C310.337 232.968 308.042 235.263 308.042 238.094C308.042 240.924 310.337 243.219 313.167 243.219Z" fill="white" stroke="#263238" stroke-miterlimit="10"/>
<path d="M338.374 238.094C338.377 237.075 338.078 236.079 337.514 235.231C336.951 234.384 336.148 233.722 335.208 233.331C334.269 232.94 333.234 232.837 332.235 233.035C331.237 233.233 330.32 233.723 329.6 234.443C328.88 235.163 328.391 236.08 328.193 237.079C327.995 238.078 328.098 239.113 328.489 240.053C328.88 240.993 329.541 241.796 330.388 242.359C331.236 242.923 332.232 243.222 333.25 243.219C334.609 243.219 335.912 242.679 336.873 241.718C337.834 240.757 338.374 239.453 338.374 238.094Z" fill="white" stroke="#263238" stroke-miterlimit="10"/>
<path d="M283.249 243.219C286.079 243.219 288.374 240.924 288.374 238.094C288.374 235.263 286.079 232.968 283.249 232.968C280.419 232.968 278.125 235.263 278.125 238.094C278.125 240.924 280.419 243.219 283.249 243.219Z" fill="white" stroke="#263238" stroke-miterlimit="10"/>
<path d="M338.374 259.763H161.109V273.99H338.374V259.763Z" fill="#263238" stroke="#263238" stroke-miterlimit="10"/>
<path d="M345.662 273.99H153.837V315.55H345.662V273.99Z" fill="white" stroke="#263238" stroke-miterlimit="10"/>
<path d="M205.372 284.595H194.417V304.945H205.372V284.595Z" fill="white" stroke="#263238" stroke-miterlimit="10"/>
<path d="M222.172 284.595H211.217V304.945H222.172V284.595Z" fill="white" stroke="#263238" stroke-miterlimit="10"/>
<path d="M188.572 284.595H177.618V304.945H188.572V284.595Z" fill="white" stroke="#263238" stroke-miterlimit="10"/>
<path d="M295.247 284.595H228.002V304.945H295.247V284.595Z" fill="white" stroke="#263238" stroke-miterlimit="10"/>
<path d="M171.788 284.595H163.058V304.945H171.788V284.595Z" fill="white" stroke="#263238" stroke-miterlimit="10"/>
<path d="M313.167 299.006C315.997 299.006 318.291 296.711 318.291 293.88C318.291 291.049 315.997 288.754 313.167 288.754C310.337 288.754 308.042 291.049 308.042 293.88C308.042 296.711 310.337 299.006 313.167 299.006Z" fill="white" stroke="#263238" stroke-miterlimit="10"/>
<path d="M338.374 293.88C338.374 292.862 338.072 291.868 337.507 291.022C336.941 290.176 336.138 289.517 335.198 289.129C334.258 288.74 333.223 288.639 332.226 288.839C331.229 289.038 330.313 289.529 329.595 290.25C328.876 290.97 328.388 291.888 328.192 292.886C327.995 293.885 328.099 294.919 328.49 295.858C328.882 296.797 329.543 297.599 330.39 298.162C331.237 298.725 332.233 299.024 333.25 299.021C334.61 299.017 335.914 298.474 336.874 297.51C337.835 296.546 338.374 295.241 338.374 293.88Z" fill="white" stroke="#263238" stroke-miterlimit="10"/>
<path d="M283.249 299.006C286.079 299.006 288.374 296.711 288.374 293.88C288.374 291.049 286.079 288.754 283.249 288.754C280.419 288.754 278.125 291.049 278.125 293.88C278.125 296.711 280.419 299.006 283.249 299.006Z" fill="white" stroke="#263238" stroke-miterlimit="10"/>
<path d="M338.374 315.55H161.109V329.776H338.374V315.55Z" fill="#263238" stroke="#263238" stroke-miterlimit="10"/>
<path d="M345.662 329.792H153.837V371.351H345.662V329.792Z" fill="white" stroke="#263238" stroke-miterlimit="10"/>
<path d="M222.172 340.396H211.217V360.747H222.172V340.396Z" fill="white" stroke="#263238" stroke-miterlimit="10"/>
<path d="M188.572 340.396H177.618V360.747H188.572V340.396Z" fill="white" stroke="#263238" stroke-miterlimit="10"/>
<path d="M205.372 340.396H194.417V360.747H205.372V340.396Z" fill="white" stroke="#263238" stroke-miterlimit="10"/>
<path d="M171.788 340.396H163.058V360.747H171.788V340.396Z" fill="white" stroke="#263238" stroke-miterlimit="10"/>
<path d="M295.247 340.396H228.002V360.747H295.247V340.396Z" fill="white" stroke="#263238" stroke-miterlimit="10"/>
<path d="M313.167 354.807C315.997 354.807 318.291 352.512 318.291 349.681C318.291 346.85 315.997 344.556 313.167 344.556C310.337 344.556 308.042 346.85 308.042 349.681C308.042 352.512 310.337 354.807 313.167 354.807Z" fill="white" stroke="#263238" stroke-miterlimit="10"/>
<path d="M338.374 349.681C338.377 348.663 338.078 347.667 337.514 346.819C336.951 345.972 336.148 345.31 335.208 344.919C334.269 344.528 333.234 344.425 332.235 344.623C331.237 344.821 330.32 345.311 329.6 346.031C328.88 346.751 328.391 347.668 328.193 348.667C327.995 349.666 328.098 350.701 328.489 351.641C328.88 352.581 329.541 353.384 330.388 353.947C331.236 354.511 332.232 354.81 333.25 354.807C334.609 354.807 335.912 354.267 336.873 353.306C337.834 352.345 338.374 351.041 338.374 349.681Z" fill="white" stroke="#263238" stroke-miterlimit="10"/>
<path d="M283.249 354.807C286.079 354.807 288.374 352.512 288.374 349.681C288.374 346.85 286.079 344.556 283.249 344.556C280.419 344.556 278.125 346.85 278.125 349.681C278.125 352.512 280.419 354.807 283.249 354.807Z" fill="white" stroke="#263238" stroke-miterlimit="10"/>
<path d="M338.374 371.351H161.109V385.578H338.374V371.351Z" fill="#263238" stroke="#263238" stroke-miterlimit="10"/>
<path d="M345.662 385.578H153.837V427.138H345.662V385.578Z" fill="white" stroke="#263238" stroke-miterlimit="10"/>
<path d="M188.572 396.183H177.618V416.533H188.572V396.183Z" fill="white" stroke="#263238" stroke-miterlimit="10"/>
<path d="M205.372 396.183H194.417V416.533H205.372V396.183Z" fill="white" stroke="#263238" stroke-miterlimit="10"/>
<path d="M222.172 396.183H211.217V416.533H222.172V396.183Z" fill="white" stroke="#263238" stroke-miterlimit="10"/>
<path d="M171.788 396.183H163.058V416.533H171.788V396.183Z" fill="white" stroke="#263238" stroke-miterlimit="10"/>
<path d="M295.247 396.183H228.002V416.533H295.247V396.183Z" fill="white" stroke="#263238" stroke-miterlimit="10"/>
<path d="M313.167 410.594C315.997 410.594 318.291 408.299 318.291 405.468C318.291 402.637 315.997 400.342 313.167 400.342C310.337 400.342 308.042 402.637 308.042 405.468C308.042 408.299 310.337 410.594 313.167 410.594Z" fill="white" stroke="#263238" stroke-miterlimit="10"/>
<path d="M338.374 405.468C338.374 404.45 338.072 403.456 337.507 402.61C336.941 401.764 336.138 401.105 335.198 400.716C334.258 400.328 333.223 400.227 332.226 400.426C331.229 400.626 330.313 401.117 329.595 401.838C328.876 402.558 328.388 403.476 328.192 404.474C327.995 405.473 328.099 406.507 328.49 407.446C328.882 408.385 329.543 409.187 330.39 409.75C331.237 410.313 332.233 410.612 333.25 410.609C334.61 410.605 335.914 410.062 336.874 409.098C337.835 408.134 338.374 406.829 338.374 405.468Z" fill="white" stroke="#263238" stroke-miterlimit="10"/>
<path d="M283.249 410.594C286.079 410.594 288.374 408.299 288.374 405.468C288.374 402.637 286.079 400.342 283.249 400.342C280.419 400.342 278.125 402.637 278.125 405.468C278.125 408.299 280.419 410.594 283.249 410.594Z" fill="white" stroke="#263238" stroke-miterlimit="10"/>
</svg>
