<svg width="503" height="362" viewBox="0 0 503 362" fill="none" xmlns="http://www.w3.org/2000/svg">
<path d="M386.111 321.899C391.411 324.96 401.815 323.904 409.346 319.546L452.79 294.282C460.332 289.924 462.138 283.91 456.838 280.838C451.539 277.766 441.145 278.855 433.604 283.213L390.181 308.499C382.639 312.824 380.822 318.838 386.111 321.899Z" fill="#EBEBEB"/>
<path d="M124.465 345.202L80.2592 319.655L124.465 294.107V345.202Z" fill="#EBEBEB"/>
<path d="M249.411 360.487L178.161 319.284L249.422 278.158L249.411 360.487Z" fill="#EBEBEB"/>
<path d="M64.6641 285.468C64.7947 275.118 57.5685 253.58 47.0012 240.016C36.434 226.453 19.6526 216.419 7.68149 220.374C-3.52785 224.067 -2.49398 238.731 10.9463 248.612C24.3867 258.493 44.5744 270.935 50.3314 287.832L62.5746 308.531L64.6641 285.468Z" fill="white"/>
<path opacity="0.1" d="M64.6641 285.468C64.7947 275.118 57.5685 253.58 47.0012 240.016C36.434 226.453 19.6526 216.419 7.68149 220.374C-3.52785 224.067 -2.49398 238.731 10.9463 248.612C24.3867 258.493 44.5744 270.935 50.3314 287.832L62.5746 308.531L64.6641 285.468Z" fill="black"/>
<path d="M65.2627 299.642C65.0975 299.627 64.9417 299.558 64.8197 299.446C64.6976 299.334 64.6161 299.184 64.5879 299.021C58.0582 263.603 29.8716 234.536 12.8617 227.989C12.7589 227.961 12.6632 227.912 12.5806 227.844C12.498 227.777 12.4305 227.693 12.3824 227.598C12.3342 227.503 12.3066 227.398 12.3012 227.292C12.2957 227.185 12.3127 227.079 12.3509 226.979C12.3892 226.88 12.4479 226.789 12.5232 226.714C12.5985 226.639 12.6888 226.58 12.7882 226.541C12.8876 226.503 12.9939 226.486 13.1003 226.491C13.2067 226.497 13.3108 226.524 13.4059 226.573C30.7422 233.251 59.473 262.797 66.068 298.748C66.0869 298.846 66.0864 298.946 66.0665 299.043C66.0466 299.14 66.0078 299.232 65.9521 299.314C65.8965 299.396 65.8252 299.466 65.7424 299.521C65.6595 299.575 65.5668 299.612 65.4694 299.631L65.2627 299.642Z" fill="white"/>
<path d="M59.7233 322.193C58.1344 316.354 51.1476 306.668 39.7641 298.596C27.1618 289.673 11.1422 285.446 7.51824 278.572C3.1651 270.314 10.1628 262.644 23.1895 264.409C36.2163 266.174 58.9397 284.302 62.2916 311.168L59.7233 322.193Z" fill="white"/>
<path d="M62.3243 316.114C62.1789 316.102 62.0401 316.048 61.9244 315.959C61.8086 315.87 61.7208 315.75 61.6713 315.613C51.2129 285.206 28.2718 274.301 17.6066 272.787C17.4089 272.759 17.2302 272.654 17.1098 272.495C16.9894 272.336 16.9371 272.135 16.9645 271.937C16.992 271.739 17.0968 271.56 17.256 271.44C17.4152 271.319 17.6157 271.267 17.8134 271.294C29.6104 272.972 52.4317 284.084 63.1078 315.112C63.171 315.303 63.1574 315.51 63.0701 315.691C62.9827 315.872 62.8284 316.012 62.6399 316.081C62.5379 316.113 62.4306 316.124 62.3243 316.114Z" fill="white"/>
<path d="M450.537 255.977C450.537 255.977 451.985 234.188 464.827 217.955C477.668 201.722 476.885 195.077 468.026 191.808C459.167 188.54 438.642 208.096 443.17 234.188C447.697 260.28 450.537 255.977 450.537 255.977Z" fill="white"/>
<path opacity="0.1" d="M450.537 255.977C450.537 255.977 451.985 234.188 464.827 217.955C477.668 201.722 476.885 195.077 468.026 191.808C459.167 188.54 438.642 208.096 443.17 234.188C447.697 260.28 450.537 255.977 450.537 255.977Z" fill="black"/>
<path d="M446.609 243.535C446.48 243.536 446.356 243.488 446.262 243.401C446.167 243.314 446.108 243.195 446.097 243.067C444.606 219.034 461.551 199.315 467.863 194.848C467.916 194.809 467.977 194.781 468.041 194.765C468.105 194.75 468.172 194.748 468.237 194.759C468.302 194.77 468.364 194.795 468.419 194.831C468.475 194.866 468.522 194.913 468.559 194.968C468.636 195.078 468.667 195.214 468.644 195.346C468.622 195.479 468.548 195.597 468.44 195.676C462.215 200.034 445.586 219.393 447.066 243.001C447.072 243.134 447.027 243.263 446.939 243.363C446.852 243.462 446.73 243.524 446.598 243.535H446.609Z" fill="white"/>
<path d="M447.044 274.018C452.827 275.91 458.752 277.338 464.761 278.289C474.708 279.857 479.105 275.096 479.105 275.096C479.105 275.096 475.187 265.76 469.539 263.113C475.65 264.487 481.486 266.885 486.799 270.205C486.799 270.205 492.872 270.303 495.288 261.021C495.288 261.021 491.696 255.432 479.616 252.414C479.616 252.414 486.962 250.562 497.551 253.264C498.346 253.58 501.73 241.585 502.753 236.051C503.776 230.516 501.556 230.604 497.247 229.416C492.937 228.229 478.648 225.058 475.949 227.422C473.25 229.786 471.879 237.914 471.879 237.914C470.81 234.587 470.67 231.03 471.476 227.629C471.476 227.629 467.602 226.115 461.573 227.869C456.654 229.296 456.414 232.652 456.632 236.443C456.923 239.736 457.655 242.976 458.808 246.074C458.808 246.074 454.967 241.149 454.847 230.462C454.847 230.462 444.769 235.473 443.05 245.496C442.049 250.933 440.721 266.871 447.044 274.018Z" fill="white"/>
<path d="M448.938 272.079C449.044 272.078 449.147 272.048 449.238 271.993C449.328 271.937 449.401 271.857 449.449 271.763C457.47 255.062 487.321 235.659 498.008 233.578C498.081 233.565 498.15 233.537 498.212 233.497C498.273 233.457 498.327 233.405 498.368 233.344C498.41 233.284 498.439 233.215 498.454 233.143C498.468 233.071 498.469 232.996 498.455 232.924C498.423 232.778 498.336 232.65 498.213 232.567C498.089 232.484 497.938 232.451 497.791 232.477C486.908 234.602 456.588 254.266 448.437 271.273C448.373 271.407 448.365 271.561 448.413 271.702C448.462 271.843 448.565 271.958 448.698 272.024C448.774 272.058 448.855 272.076 448.938 272.079Z" fill="white"/>
<path d="M60.7681 329.906C59.5383 329.906 58.7983 328.893 58.7983 327.183V143.927L283.018 14.3598V196.874C282.94 198.398 282.506 199.882 281.75 201.207C280.994 202.532 279.937 203.66 278.665 204.5L62.5529 329.351C62.0167 329.689 61.4013 329.881 60.7681 329.906Z" fill="#FAFAFA"/>
<path d="M282.343 15.4601V196.874C282.252 198.288 281.836 199.661 281.128 200.887C280.421 202.114 279.44 203.16 278.262 203.945L62.2373 328.795C61.7975 329.08 61.2911 329.245 60.7681 329.274C59.5601 329.274 59.4295 327.804 59.4295 327.183V144.298L282.343 15.4601ZM283.616 13.2812L58.1562 143.557V327.183C58.1562 329.362 59.2445 330.549 60.7681 330.549C61.5122 330.522 62.2364 330.3 62.8685 329.906L278.904 205.045C280.275 204.149 281.416 202.943 282.235 201.523C283.054 200.104 283.527 198.511 283.616 196.874V13.2485V13.2812Z" fill="#E0E0E0"/>
<path d="M58.1671 143.557V174.225L283.616 43.9164V13.2485L58.1671 143.557Z" fill="white"/>
<path d="M75.8408 145.191V149.549C75.8408 150.442 76.4829 150.813 77.2556 150.366L146.568 110.307V102.681L77.2556 142.74C76.8462 143.011 76.5052 143.373 76.2597 143.799C76.0142 144.224 75.8708 144.701 75.8408 145.191Z" fill="#FAFAFA"/>
<path d="M154.001 98.3886C154.785 97.9311 155.416 98.3015 155.416 99.2057V103.563C155.388 104.054 155.245 104.532 155 104.957C154.754 105.383 154.412 105.745 154.001 106.015L146.568 110.307V102.681L154.001 98.3886Z" fill="#455A64"/>
<path d="M58.1562 133.676C58.2455 132.039 58.7187 130.446 59.5374 129.027C60.3561 127.607 61.4972 126.401 62.8685 125.505L278.904 0.643672C281.505 -0.859761 283.616 0.360417 283.616 3.36728V13.2485L58.1562 143.557V133.676Z" fill="#455A64"/>
<path d="M258.553 17.541C257.916 17.9626 257.387 18.5284 257.009 19.1928C256.63 19.8571 256.414 20.6012 256.376 21.3649C256.376 22.7812 257.367 23.3477 258.553 22.6505C259.19 22.2265 259.719 21.6587 260.098 20.9926C260.476 20.3265 260.692 19.5808 260.73 18.8156C260.773 17.3885 259.783 16.8328 258.553 17.541Z" fill="white"/>
<path d="M265.605 13.4882C264.968 13.9098 264.439 14.4757 264.061 15.14C263.683 15.8043 263.466 16.5485 263.429 17.3122C263.429 18.7284 264.419 19.295 265.605 18.5977C266.241 18.1725 266.769 17.6043 267.147 16.9385C267.525 16.2727 267.742 15.5277 267.782 14.7629C267.782 13.3466 266.78 12.7801 265.605 13.4882Z" fill="white"/>
<path d="M272.559 9.43548C271.922 9.85706 271.393 10.4229 271.015 11.0873C270.637 11.7516 270.42 12.4957 270.383 13.2594C270.383 14.6757 271.373 15.2422 272.559 14.545C273.195 14.1198 273.724 13.5516 274.102 12.8858C274.479 12.22 274.697 11.4749 274.736 10.7101C274.768 9.29385 273.778 8.72734 272.559 9.43548Z" fill="white"/>
<g opacity="0.1">
<path d="M212.878 63.875C211.472 64.7956 210.303 66.0349 209.465 67.4924C208.628 68.9499 208.145 70.5846 208.057 72.2637C208.057 75.3469 210.233 76.6215 212.878 75.0527C214.285 74.1357 215.456 72.8989 216.296 71.4431C217.136 69.9873 217.62 68.3535 217.71 66.6749C217.721 63.5918 215.544 62.3389 212.878 63.875Z" fill="black"/>
<path d="M190.785 76.6541C189.378 77.5712 188.207 78.8079 187.367 80.2638C186.528 81.7196 186.043 83.3533 185.953 85.032C185.953 88.1151 188.13 89.3897 190.785 87.8318C192.191 86.9112 193.36 85.6719 194.198 84.2144C195.035 82.7569 195.518 81.1223 195.607 79.4431C195.607 76.36 193.452 75.1289 190.785 76.6541Z" fill="black"/>
<path d="M234.981 51.1612C233.575 52.0794 232.406 53.3167 231.569 54.7725C230.731 56.2282 230.248 57.8613 230.16 59.539C230.16 62.6221 232.336 63.8968 234.981 62.328C236.389 61.4116 237.56 60.175 238.4 58.719C239.24 57.2631 239.724 55.629 239.813 53.9502C239.813 50.8126 237.658 49.5597 234.981 51.1612Z" fill="black"/>
<path d="M257.095 38.3057C255.687 39.2228 254.516 40.4595 253.676 41.9153C252.837 43.3712 252.352 45.0049 252.263 46.6836C252.263 49.7667 254.439 51.0413 257.095 49.4725C258.502 48.5555 259.673 47.3187 260.513 45.8629C261.353 44.4071 261.837 42.7734 261.927 41.0947C261.927 38.0116 259.761 36.7587 257.095 38.3057Z" fill="black"/>
</g>
<path d="M80.5966 176.611L133.063 146.281C135.664 144.777 137.775 145.997 137.775 149.004V199.435C137.686 201.071 137.213 202.664 136.394 204.083C135.575 205.503 134.434 206.71 133.063 207.605L80.5966 237.925C77.9956 239.428 75.8843 238.208 75.8843 235.201V184.782C75.9737 183.145 76.4469 181.552 77.2655 180.133C78.0842 178.713 79.2254 177.507 80.5966 176.611Z" fill="#E0E0E0"/>
<path d="M155.688 133.175L265.605 69.6817C268.206 68.1674 270.317 69.3876 270.317 72.4053V122.825C270.228 124.462 269.755 126.054 268.936 127.474C268.117 128.893 266.976 130.1 265.605 130.996L155.688 194.488C153.087 195.992 150.976 194.772 150.976 191.765V141.345C151.065 139.709 151.539 138.116 152.357 136.696C153.176 135.277 154.317 134.07 155.688 133.175Z" fill="#E0E0E0"/>
<path d="M80.5966 253.253L164.003 205.045C166.615 203.542 168.726 204.609 168.726 207.431C168.61 209.015 168.122 210.55 167.304 211.911C166.485 213.272 165.358 214.42 164.014 215.264L80.5966 263.472C77.9956 264.976 75.8843 263.908 75.8843 261.086C76.0006 259.502 76.4878 257.967 77.3064 256.607C78.1251 255.246 79.2522 254.097 80.5966 253.253Z" fill="#E0E0E0"/>
<path d="M80.5966 271.142L164.003 222.934C166.615 221.43 168.726 222.498 168.726 225.32C168.61 226.904 168.122 228.439 167.304 229.799C166.485 231.16 165.358 232.309 164.014 233.153L80.5966 281.361C77.9956 282.864 75.8843 281.797 75.8843 278.975C76.0006 277.391 76.4878 275.856 77.3064 274.495C78.1251 273.134 79.2522 271.986 80.5966 271.142Z" fill="#E0E0E0"/>
<path d="M80.5966 289.019L164.003 240.812C166.615 239.308 168.726 240.376 168.726 243.197C168.61 244.782 168.122 246.316 167.304 247.677C166.485 249.038 165.358 250.187 164.014 251.031L80.5966 299.238C77.9956 300.742 75.8843 299.674 75.8843 296.853C76.0006 295.268 76.4878 293.734 77.3064 292.373C78.1251 291.012 79.2522 289.863 80.5966 289.019Z" fill="#E0E0E0"/>
<path d="M120.047 228.381C120.103 227.399 120.388 226.444 120.879 225.593C121.371 224.741 122.055 224.017 122.876 223.479L267.52 139.886C268.397 139.44 269.367 139.207 270.35 139.207C271.333 139.207 272.303 139.44 273.18 139.886L276.368 141.727C277.19 142.265 277.873 142.989 278.363 143.841C278.853 144.693 279.135 145.648 279.187 146.629V257.622C279.133 258.603 278.85 259.558 278.361 260.409C277.871 261.261 277.189 261.985 276.368 262.524L131.746 346.117C130.869 346.563 129.9 346.796 128.916 346.796C127.933 346.796 126.964 346.563 126.087 346.117L122.898 344.276C122.076 343.738 121.391 343.014 120.9 342.163C120.408 341.311 120.124 340.356 120.069 339.374L120.047 228.381Z" fill="white"/>
<path opacity="0.4" d="M120.863 225.592L128.895 230.233L278.349 143.84C277.871 142.978 277.187 142.248 276.357 141.716L273.223 139.886C272.35 139.44 271.384 139.208 270.404 139.208C269.425 139.208 268.459 139.44 267.586 139.886L122.876 223.479C122.038 224.002 121.345 224.729 120.863 225.592Z" fill="white"/>
<path opacity="0.1" d="M120.047 228.381V339.374C120.102 340.356 120.386 341.311 120.878 342.163C121.369 343.014 122.054 343.738 122.876 344.276L126.065 346.117C126.31 346.26 126.569 346.376 126.838 346.466C127.216 346.594 127.606 346.685 128.002 346.738C128.746 346.83 129.499 346.8 130.233 346.651C130.421 346.617 130.607 346.57 130.788 346.51L131.126 346.379C130.911 346.471 130.679 346.519 130.445 346.519C130.212 346.519 129.98 346.471 129.765 346.379C129.464 346.178 129.224 345.898 129.073 345.569C128.921 345.24 128.863 344.876 128.906 344.516V233.502C128.877 232.997 129.002 232.495 129.264 232.063C129.527 231.632 129.914 231.29 130.375 231.083L128.906 230.233L120.863 225.592C120.359 226.437 120.078 227.397 120.047 228.381Z" fill="black"/>
<path opacity="0.2" d="M128.906 230.233L195.89 255.29C198.206 256.155 200.747 256.204 203.095 255.429C205.443 254.655 207.458 253.104 208.807 251.031L219.56 234.536L278.893 143.535L221.704 235.157L279.187 257.676C279.139 258.677 278.836 259.648 278.305 260.498L221.551 235.441L209.014 255.432C207.625 257.653 205.483 259.299 202.981 260.067C200.478 260.835 197.783 260.675 195.389 259.615L186.487 255.683L129.765 346.401C129.464 346.2 129.224 345.919 129.073 345.591C128.921 345.262 128.863 344.897 128.906 344.538V342.696L186.236 255.617L128.906 230.233Z" fill="black"/>
<path d="M248.247 102.812V357.633C248.247 360.64 250.358 361.86 252.959 360.356L367.316 294.26C368.687 293.364 369.829 292.157 370.647 290.738C371.466 289.318 371.939 287.726 372.028 286.089V31.2679C372.028 28.2611 369.917 27.0409 367.316 28.5443L252.959 94.6409C251.587 95.5354 250.445 96.7417 249.626 98.1615C248.807 99.5813 248.335 101.175 248.247 102.812Z" fill="#FAFAFA" stroke="#E0E0E0" stroke-width="1.16981" stroke-miterlimit="10"/>
<path d="M254.875 107.551C254.911 107.147 255.042 106.758 255.255 106.414C255.469 106.07 255.759 105.78 256.104 105.568L269.164 98.0399C269.838 97.6477 270.383 97.9092 270.383 98.6173C270.348 99.0201 270.22 99.4091 270.008 99.7534C269.796 100.098 269.507 100.388 269.164 100.6L256.104 108.128C255.43 108.52 254.875 108.259 254.875 107.551Z" fill="#455A64"/>
<path d="M254.875 112.628C254.91 112.224 255.04 111.834 255.254 111.49C255.468 111.146 255.759 110.856 256.104 110.645L269.164 103.117C269.838 102.725 270.383 102.986 270.383 103.683C270.35 104.088 270.222 104.479 270.01 104.825C269.799 105.172 269.509 105.463 269.164 105.677L256.104 113.194C255.43 113.586 254.875 113.336 254.875 112.628Z" fill="#455A64"/>
<path d="M254.875 117.704C254.91 117.301 255.04 116.911 255.254 116.567C255.468 116.222 255.759 115.933 256.104 115.722L269.164 108.194C269.838 107.801 270.383 108.052 270.383 108.76C270.35 109.163 270.222 109.553 270.01 109.898C269.798 110.242 269.508 110.532 269.164 110.743L256.104 118.271C255.43 118.707 254.875 118.413 254.875 117.704Z" fill="#455A64"/>
<path d="M363.192 52.3596V50.3223C363.192 50.2976 363.187 50.273 363.175 50.2511C363.164 50.2291 363.147 50.2107 363.126 50.1974C363.105 50.1842 363.081 50.1767 363.056 50.1757C363.031 50.1746 363.007 50.1801 362.985 50.1916L361.418 50.8997C361.393 50.9119 361.366 50.9185 361.338 50.9189C361.311 50.9193 361.284 50.9136 361.259 50.9021C361.233 50.8906 361.211 50.8737 361.194 50.8525C361.176 50.8314 361.163 50.8066 361.156 50.7799C361.074 50.5083 360.957 50.2484 360.808 50.0064C360.779 49.9472 360.763 49.8819 360.763 49.8157C360.763 49.7495 360.779 49.6842 360.808 49.6251L361.896 47.5115C361.923 47.458 361.928 47.396 361.91 47.339C361.891 47.282 361.852 47.2344 361.799 47.2065L360.71 46.5528C360.659 46.5266 360.6 46.5199 360.544 46.534C360.488 46.548 360.439 46.5817 360.406 46.6291L359.1 48.5901C359.061 48.6427 359.01 48.685 358.951 48.7135C358.892 48.742 358.827 48.7557 358.762 48.7535C358.477 48.7512 358.192 48.7804 357.913 48.8407C357.887 48.8489 357.859 48.8511 357.831 48.847C357.804 48.8428 357.777 48.8325 357.754 48.8168C357.731 48.8011 357.712 48.7804 357.698 48.7562C357.684 48.7321 357.676 48.7051 357.674 48.6772L357.5 46.9668C357.5 46.847 357.391 46.7925 357.293 46.8579L355.53 47.8711C355.474 47.9077 355.427 47.9557 355.391 48.0121C355.356 48.0685 355.332 48.1318 355.323 48.1979L355.149 50.1589C355.126 50.2981 355.061 50.427 354.964 50.5293C354.611 50.8675 354.284 51.2316 353.985 51.6187C353.943 51.6676 353.887 51.703 353.825 51.7205C353.763 51.7379 353.698 51.7366 353.636 51.7168L352.548 51.3246C352.49 51.3061 352.427 51.3079 352.37 51.3296C352.312 51.3514 352.264 51.3918 352.233 51.4444L350.937 53.6887C350.911 53.742 350.902 53.8022 350.912 53.8609C350.922 53.9196 350.95 53.9737 350.992 54.0155L351.906 54.7999C351.951 54.8446 351.983 54.9007 351.998 54.9621C352.013 55.0236 352.012 55.088 351.993 55.1486C351.825 55.5966 351.687 56.0551 351.58 56.5212C351.543 56.6533 351.467 56.7711 351.362 56.859L349.751 57.9484C349.697 57.9901 349.653 58.0427 349.621 58.1028C349.589 58.1629 349.571 58.2291 349.566 58.297V60.3234C349.561 60.3495 349.563 60.3766 349.574 60.4011C349.584 60.4255 349.602 60.4463 349.624 60.4605C349.647 60.4747 349.673 60.4817 349.7 60.4806C349.726 60.4794 349.752 60.4702 349.773 60.4541L351.34 59.746C351.366 59.7358 351.393 59.7312 351.421 59.7324C351.448 59.7336 351.475 59.7406 351.5 59.7529C351.525 59.7652 351.546 59.7827 351.564 59.804C351.581 59.8253 351.594 59.8501 351.601 59.8767C351.684 60.1483 351.801 60.4082 351.95 60.6502C351.979 60.7094 351.995 60.7747 351.995 60.8409C351.995 60.9071 351.979 60.9724 351.95 61.0315L350.861 63.1342C350.836 63.1898 350.833 63.2525 350.851 63.3106C350.869 63.3688 350.907 63.4183 350.959 63.4501L352.047 64.1038C352.099 64.13 352.158 64.1367 352.214 64.1227C352.27 64.1086 352.319 64.0749 352.352 64.0275L353.658 62.0665C353.697 62.0139 353.748 61.9716 353.807 61.9431C353.865 61.9147 353.93 61.9009 353.996 61.9031C354.281 61.9054 354.566 61.8762 354.844 61.8159C354.871 61.8077 354.899 61.8055 354.927 61.8096C354.954 61.8138 354.98 61.8241 355.004 61.8398C355.027 61.8555 355.046 61.8762 355.06 61.9004C355.074 61.9245 355.082 61.9515 355.084 61.9794L355.258 63.6898C355.258 63.8096 355.356 63.8641 355.465 63.7987L357.228 62.7855C357.283 62.7463 357.33 62.6961 357.366 62.638C357.401 62.5799 357.425 62.5152 357.435 62.4478L357.609 60.4868C357.63 60.3502 357.695 60.2241 357.794 60.1273C358.147 59.7891 358.474 59.425 358.773 59.0379C358.815 58.989 358.87 58.9536 358.932 58.9361C358.994 58.9187 359.06 58.92 359.121 58.9398L360.21 59.332C360.268 59.3505 360.331 59.3488 360.388 59.327C360.446 59.3053 360.494 59.2648 360.525 59.2122L361.82 56.9679C361.848 56.9123 361.857 56.849 361.845 56.788C361.833 56.727 361.801 56.6715 361.755 56.6302L360.852 55.8567C360.807 55.812 360.775 55.7559 360.76 55.6945C360.745 55.6331 360.746 55.5686 360.765 55.5081C360.932 55.06 361.07 54.6015 361.178 54.1354C361.209 54.0007 361.286 53.8811 361.396 53.7976L363.007 52.7082C363.059 52.6656 363.103 52.6128 363.135 52.5529C363.167 52.493 363.186 52.4272 363.192 52.3596ZM356.303 58.7873C354.659 59.746 353.332 58.9725 353.332 57.0769C353.383 56.042 353.679 55.0341 354.195 54.1362C354.712 53.2384 355.434 52.4763 356.303 51.9129C357.946 50.9651 359.274 51.7386 359.274 53.6342C359.221 54.6672 358.924 55.6729 358.408 56.5688C357.891 57.4646 357.17 58.2249 356.303 58.7873Z" fill="#37474F"/>
<path d="M310.138 102.583C323.502 94.8588 334.33 101.123 334.33 116.571C334.33 132.02 323.502 150.791 310.138 158.515C296.774 166.239 285.945 159.975 285.945 144.537C285.945 129.1 296.774 110.307 310.138 102.583Z" fill="#455A64"/>
<path d="M309.974 114.741C314.328 112.235 317.821 114.262 317.821 119.273C317.672 121.997 316.884 124.648 315.52 127.01C314.157 129.372 312.257 131.379 309.974 132.869C305.621 135.375 302.117 133.349 302.117 128.337C302.266 125.612 303.056 122.961 304.421 120.598C305.786 118.236 307.689 116.229 309.974 114.741Z" fill="white"/>
<path d="M325.461 141.454C325.461 133.229 319.682 129.884 312.565 134.003L308.048 136.574C300.931 140.692 295.152 150.736 295.152 158.94V161.195C296.496 161.625 297.898 161.842 299.309 161.838C303.127 161.708 306.845 160.581 310.094 158.569C316.31 154.747 321.567 149.548 325.461 143.372V141.454Z" fill="white"/>
<path d="M288.307 181.491L331.99 156.249C333.285 155.497 334.341 156.031 334.341 157.447C334.282 158.238 334.039 159.004 333.631 159.683C333.222 160.362 332.661 160.936 331.99 161.358L288.318 186.601C287.012 187.363 285.956 186.819 285.956 185.413C286.012 184.621 286.254 183.852 286.663 183.171C287.071 182.49 287.634 181.914 288.307 181.491Z" fill="white"/>
<path d="M283.616 199.554L336.659 168.821C337.965 168.069 339.021 168.603 339.021 170.019C338.962 170.811 338.717 171.578 338.307 172.257C337.896 172.937 337.332 173.51 336.659 173.931L283.616 204.664C282.31 205.416 281.255 204.882 281.255 203.465C281.314 202.674 281.558 201.907 281.969 201.227C282.379 200.548 282.943 199.975 283.616 199.554Z" fill="#455A64"/>
<path d="M338.074 193.595L352.929 185.01C353.713 184.564 354.344 184.771 354.344 185.479C354.285 185.913 354.127 186.328 353.881 186.691C353.636 187.053 353.31 187.355 352.929 187.571L338.074 196.155C337.301 196.602 336.659 196.395 336.659 195.698C336.719 195.262 336.877 194.846 337.123 194.482C337.368 194.117 337.693 193.814 338.074 193.595Z" fill="#37474F"/>
<path d="M263.864 231.388L285.684 218.783C286.979 218.031 288.035 218.641 288.035 220.145V235.136C287.99 235.953 287.754 236.749 287.345 237.459C286.937 238.168 286.368 238.772 285.684 239.221L263.864 251.826C262.569 252.578 261.513 251.967 261.513 250.464V235.473C261.558 234.656 261.794 233.86 262.202 233.15C262.611 232.441 263.18 231.837 263.864 231.388Z" fill="white"/>
<path d="M267.346 233.48L282.201 224.895C282.985 224.448 283.616 224.655 283.616 225.352C283.559 225.789 283.401 226.205 283.156 226.57C282.91 226.935 282.584 227.238 282.201 227.455L267.346 236.04C266.563 236.487 265.932 236.28 265.932 235.582C265.989 235.146 266.146 234.729 266.392 234.364C266.637 234 266.964 233.697 267.346 233.48Z" fill="#FAFAFA"/>
<path d="M265.932 241.04V245.398C265.932 246.302 266.563 246.662 267.346 246.215L282.201 237.63C282.613 237.362 282.956 237 283.202 236.574C283.448 236.148 283.59 235.67 283.616 235.179V230.821C283.616 229.917 282.985 229.558 282.201 230.004L267.346 238.546C266.93 238.82 266.585 239.189 266.339 239.622C266.093 240.056 265.953 240.542 265.932 241.04Z" fill="#FAFAFA"/>
<path d="M299.233 210.95L320.999 198.345C322.305 197.593 323.36 198.203 323.36 199.707V214.698C323.316 215.517 323.079 216.314 322.668 217.024C322.258 217.733 321.686 218.336 320.999 218.783L299.233 231.388C297.927 232.14 296.882 231.529 296.882 230.026V215.035C296.925 214.217 297.16 213.42 297.568 212.71C297.977 212 298.547 211.397 299.233 210.95Z" fill="white"/>
<path d="M302.716 213.042L317.571 204.457C318.343 204.01 318.975 204.217 318.975 204.914C318.917 205.349 318.76 205.765 318.517 206.129C318.274 206.494 317.95 206.797 317.571 207.017L302.716 215.602C301.932 216.049 301.301 215.842 301.301 215.133C301.36 214.699 301.518 214.284 301.763 213.922C302.009 213.559 302.335 213.258 302.716 213.042Z" fill="#FAFAFA"/>
<path d="M301.301 220.602V224.96C301.301 225.864 301.932 226.224 302.716 225.777L317.571 217.192C317.979 216.922 318.319 216.559 318.563 216.133C318.806 215.708 318.947 215.231 318.975 214.741V210.383C318.975 209.479 318.332 209.12 317.56 209.566L302.705 218.151C302.295 218.421 301.954 218.783 301.71 219.209C301.466 219.635 301.326 220.112 301.301 220.602Z" fill="#FAFAFA"/>
<path d="M334.602 190.512L356.368 177.896C357.663 177.144 358.719 177.755 358.719 179.258V194.26C358.674 195.077 358.438 195.873 358.029 196.583C357.621 197.292 357.052 197.896 356.368 198.345L334.602 210.95C333.296 211.702 332.241 211.092 332.241 209.588V194.597C332.285 193.778 332.522 192.981 332.933 192.271C333.343 191.561 333.915 190.959 334.602 190.512Z" fill="white"/>
<path d="M338.074 192.604L352.929 184.073C353.713 183.616 354.344 183.823 354.344 184.531C354.287 184.966 354.13 185.382 353.884 185.745C353.639 186.108 353.312 186.409 352.929 186.623L338.074 195.207C337.301 195.665 336.659 195.458 336.659 194.75C336.71 194.306 336.865 193.88 337.11 193.508C337.356 193.135 337.686 192.825 338.074 192.604Z" fill="#FAFAFA"/>
<path d="M336.659 200.164V204.522C336.659 205.416 337.301 205.786 338.074 205.339L352.929 196.744C353.341 196.476 353.685 196.114 353.931 195.688C354.176 195.262 354.318 194.784 354.344 194.292V189.935C354.344 189.03 353.713 188.66 352.929 189.118L338.074 197.702C337.661 197.972 337.318 198.336 337.072 198.764C336.826 199.192 336.685 199.672 336.659 200.164Z" fill="#FAFAFA"/>
<path d="M266.225 265.782L354.05 215.024C356.662 213.521 358.762 214.589 358.762 217.41C358.649 218.995 358.162 220.531 357.344 221.892C356.525 223.253 355.396 224.402 354.05 225.243L266.225 276.001C263.624 277.504 261.513 276.436 261.513 273.615C261.629 272.031 262.117 270.496 262.935 269.135C263.754 267.774 264.881 266.626 266.225 265.782Z" fill="#E0E0E0"/>
<path d="M266.225 286.231L354.05 235.473C356.662 233.97 358.762 235.038 358.762 237.859C358.649 239.444 358.162 240.98 357.344 242.341C356.525 243.702 355.396 244.85 354.05 245.692L266.225 296.46C263.624 297.964 261.513 296.896 261.513 294.064C261.629 292.479 262.117 290.945 262.935 289.584C263.754 288.223 264.881 287.074 266.225 286.231Z" fill="#E0E0E0"/>
<path d="M294.815 295.262L325.461 277.548C326.767 276.796 327.822 277.406 327.822 278.909V288.791C327.778 289.61 327.541 290.407 327.13 291.117C326.72 291.827 326.148 292.429 325.461 292.876L294.815 310.591C293.509 311.342 292.453 310.732 292.453 309.229V299.347C292.497 298.528 292.735 297.731 293.145 297.022C293.555 296.312 294.127 295.709 294.815 295.262Z" fill="white"/>
<path d="M268.141 267.296C267.503 267.72 266.974 268.288 266.596 268.954C266.218 269.62 266.002 270.366 265.964 271.131C265.964 272.536 266.955 273.114 268.141 272.406C268.778 271.982 269.307 271.414 269.685 270.748C270.063 270.082 270.28 269.336 270.317 268.571C270.35 267.165 269.36 266.588 268.141 267.296Z" fill="#FAFAFA"/>
<path d="M275.149 263.243C274.511 263.666 273.981 264.233 273.602 264.9C273.224 265.566 273.008 266.313 272.973 267.078C272.973 268.483 273.952 269.061 275.149 268.353C275.787 267.929 276.316 267.361 276.694 266.695C277.072 266.029 277.288 265.283 277.326 264.518C277.359 263.112 276.368 262.513 275.149 263.243Z" fill="#FAFAFA"/>
<path d="M282.147 259.245C281.51 259.669 280.98 260.237 280.602 260.903C280.224 261.569 280.008 262.315 279.97 263.08C279.97 264.485 280.961 265.063 282.147 264.354C282.784 263.931 283.313 263.363 283.692 262.697C284.07 262.03 284.286 261.285 284.324 260.52C284.356 259.06 283.366 258.482 282.147 259.245Z" fill="#FAFAFA"/>
<path d="M289.156 255.138C288.517 255.561 287.988 256.129 287.61 256.795C287.232 257.461 287.016 258.207 286.979 258.973C286.979 260.378 287.969 260.955 289.156 260.247C289.793 259.823 290.322 259.256 290.7 258.589C291.078 257.923 291.295 257.178 291.332 256.412C291.365 255.007 290.374 254.43 289.156 255.138Z" fill="#FAFAFA"/>
<path d="M296.153 251.085C295.516 251.509 294.987 252.077 294.609 252.743C294.231 253.409 294.014 254.155 293.977 254.92C293.977 256.325 294.967 256.903 296.153 256.195C296.791 255.771 297.32 255.203 297.698 254.537C298.076 253.871 298.292 253.125 298.33 252.36C298.362 250.954 297.372 250.377 296.153 251.085Z" fill="#FAFAFA"/>
<path d="M303.151 247.032C302.513 247.456 301.984 248.024 301.606 248.69C301.228 249.356 301.012 250.102 300.974 250.867C300.974 252.273 301.965 252.85 303.151 252.142C303.789 251.719 304.319 251.152 304.698 250.485C305.076 249.819 305.292 249.073 305.327 248.307C305.36 246.902 304.381 246.324 303.151 247.032Z" fill="#FAFAFA"/>
<path d="M310.159 242.98C309.522 243.404 308.993 243.971 308.615 244.638C308.237 245.304 308.02 246.049 307.983 246.814C307.983 248.22 308.973 248.797 310.159 248.089C310.797 247.665 311.326 247.097 311.704 246.431C312.082 245.765 312.299 245.019 312.336 244.254C312.401 242.903 311.378 242.271 310.159 242.98Z" fill="#FAFAFA"/>
<path d="M268.141 287.756C267.505 288.181 266.976 288.749 266.598 289.415C266.221 290.081 266.003 290.826 265.964 291.591C265.964 293.007 266.955 293.573 268.141 292.865C268.778 292.444 269.307 291.878 269.685 291.213C270.063 290.549 270.28 289.805 270.317 289.041C270.35 287.625 269.36 287.058 268.141 287.756Z" fill="#FAFAFA"/>
<path d="M275.149 283.703C274.511 284.126 273.982 284.694 273.604 285.36C273.225 286.026 273.009 286.772 272.973 287.538C272.973 288.954 273.952 289.521 275.149 288.813C275.786 288.391 276.316 287.825 276.694 287.161C277.072 286.496 277.288 285.752 277.326 284.989C277.359 283.572 276.368 283.006 275.149 283.703Z" fill="#FAFAFA"/>
<path d="M282.147 279.65C281.511 280.075 280.983 280.644 280.605 281.309C280.227 281.975 280.01 282.72 279.97 283.485C279.97 284.901 280.961 285.468 282.147 284.76C282.784 284.338 283.313 283.772 283.691 283.108C284.07 282.444 284.286 281.7 284.324 280.936C284.356 279.52 283.366 278.942 282.147 279.65Z" fill="#FAFAFA"/>
<path d="M289.156 275.587C288.518 276.011 287.989 276.579 287.611 277.245C287.233 277.911 287.016 278.656 286.979 279.422C286.979 280.838 287.969 281.404 289.156 280.696C289.793 280.275 290.322 279.709 290.7 279.044C291.078 278.38 291.295 277.636 291.332 276.872C291.365 275.467 290.374 274.889 289.156 275.587Z" fill="#FAFAFA"/>
<path d="M296.153 271.545C295.516 271.969 294.987 272.537 294.609 273.203C294.231 273.869 294.014 274.614 293.977 275.38C293.977 276.796 294.967 277.362 296.153 276.654C296.79 276.233 297.32 275.667 297.698 275.003C298.076 274.338 298.292 273.594 298.33 272.83C298.362 271.414 297.372 270.837 296.153 271.545Z" fill="#FAFAFA"/>
<path d="M303.151 267.492C302.513 267.916 301.984 268.484 301.606 269.15C301.228 269.816 301.012 270.562 300.974 271.327C300.974 272.743 301.965 273.31 303.151 272.602C303.791 272.18 304.322 271.613 304.7 270.946C305.078 270.28 305.293 269.533 305.327 268.767C305.36 267.361 304.381 266.784 303.151 267.492Z" fill="#FAFAFA"/>
<path d="M310.159 263.439C309.522 263.863 308.993 264.431 308.615 265.097C308.237 265.763 308.02 266.509 307.983 267.274C307.983 268.69 308.973 269.257 310.159 268.549C310.798 268.126 311.327 267.558 311.705 266.892C312.083 266.225 312.299 265.479 312.336 264.714C312.401 263.309 311.378 262.731 310.159 263.439Z" fill="#FAFAFA"/>
<path d="M408.377 309.501C404.616 309.527 400.916 308.549 397.658 306.668C389.811 302.125 385.316 292.647 385.316 280.631C385.316 259.517 398.724 235.234 415.788 225.341C425.006 220.014 434.159 219.437 441.57 223.718C449.406 228.25 453.911 237.739 453.911 249.745C453.911 270.858 440.503 295.153 423.385 305.045C418.857 307.818 413.683 309.354 408.377 309.501ZM430.861 236.094C428.212 236.282 425.651 237.124 423.406 238.546C411 245.681 400.552 264.975 400.552 280.631C400.552 286.971 402.326 291.787 405.297 293.497C408.682 295.458 413.394 293.323 415.886 291.874C428.325 284.694 438.817 265.4 438.817 249.745C438.817 243.404 437.043 238.6 434.072 236.879C433.092 236.33 431.983 236.059 430.861 236.094Z" fill="#455A64"/>
<path d="M441.483 253.122C441.483 241.258 434.017 236.879 434.017 236.879C436.988 238.6 438.762 243.415 438.762 249.745C438.762 265.4 428.271 284.694 415.832 291.874C413.34 293.323 408.638 295.458 405.243 293.497C405.243 293.497 411.544 297.419 420.25 292.658C432.853 285.784 441.483 268.778 441.483 253.122Z" fill="#37474F"/>
<path d="M429.512 104.86C429.436 102.826 428.576 100.9 427.111 99.488C425.647 98.0758 423.693 97.2867 421.66 97.2867C419.626 97.2867 417.672 98.0758 416.208 99.488C414.744 100.9 413.883 102.826 413.808 104.86V229.83C413.864 230.53 414.107 231.203 414.51 231.778C414.914 232.353 415.465 232.809 416.104 233.098C417.825 233.969 419.726 234.422 421.654 234.422C423.582 234.422 425.484 233.969 427.205 233.098C427.847 232.811 428.4 232.356 428.806 231.781C429.212 231.206 429.456 230.532 429.512 229.83V104.882V104.86Z" fill="#37474F"/>
<path d="M423.243 132.793C423.157 131.217 422.701 129.684 421.913 128.317C421.125 126.951 420.026 125.789 418.705 124.927C418.239 124.586 417.688 124.378 417.112 124.328C416.536 124.278 415.958 124.388 415.44 124.644L396.09 135.811L395.622 136.083C395.551 136.113 395.485 136.153 395.427 136.203C395.097 136.426 394.787 136.678 394.502 136.955C393.41 138.044 392.747 139.489 392.632 141.028C392.517 142.566 392.958 144.094 393.876 145.334C394.793 146.573 396.125 147.441 397.628 147.779C399.132 148.117 400.707 147.902 402.065 147.174L402.435 146.956L421.926 135.724C422.385 135.396 422.749 134.951 422.98 134.436C423.211 133.922 423.302 133.355 423.243 132.793Z" fill="#455A64"/>
<path d="M423.243 164.082C423.155 162.508 422.699 160.977 421.911 159.612C421.122 158.248 420.024 157.088 418.705 156.227C418.241 155.881 417.69 155.671 417.114 155.619C416.538 155.567 415.958 155.676 415.44 155.933L392.739 169.006L392.271 169.279C392.2 169.31 392.134 169.35 392.075 169.398C391.743 169.619 391.433 169.87 391.15 170.15C390.441 170.857 389.906 171.719 389.588 172.668C389.269 173.617 389.176 174.628 389.316 175.619C389.455 176.611 389.823 177.556 390.391 178.381C390.958 179.205 391.71 179.886 392.586 180.369C393.531 180.871 394.585 181.133 395.655 181.132C396.722 181.137 397.773 180.875 398.713 180.369C398.844 180.304 398.963 180.217 399.083 180.151L421.937 167.078C422.404 166.743 422.772 166.287 423.002 165.76C423.232 165.233 423.315 164.653 423.243 164.082Z" fill="#455A64"/>
</svg>
