<svg width="512" height="512" viewBox="0 0 512 512" fill="none" xmlns="http://www.w3.org/2000/svg">
<path d="M142.41 392.761L127.319 433.473H145.034L177.841 411.122L142.41 392.761Z" fill="#353535"/>
<path opacity="0.1" d="M142.41 392.761L127.319 433.473H145.034L177.841 411.122L142.41 392.761Z" fill="black"/>
<path d="M369.581 392.761L384.672 433.473H366.956L334.15 411.122L369.581 392.761Z" fill="#353535"/>
<path opacity="0.1" d="M369.581 392.761L384.672 433.473H366.956L334.15 411.122L369.581 392.761Z" fill="black"/>
<path d="M384 384C454.692 313.308 454.692 198.692 384 128C313.308 57.3076 198.692 57.3076 128 128C57.3076 198.692 57.3076 313.308 128 384C198.692 454.692 313.308 454.692 384 384Z" fill="#353535"/>
<path opacity="0.1" d="M253.794 425.758C349.192 425.758 426.527 348.423 426.527 253.025C426.527 157.627 349.192 80.2921 253.794 80.2921C158.396 80.2921 81.0611 157.627 81.0611 253.025C81.0611 348.423 158.396 425.758 253.794 425.758Z" fill="black"/>
<path d="M370.419 369.657C433.614 306.461 433.614 204.001 370.419 140.806C307.223 77.6105 204.763 77.6105 141.568 140.806C78.3725 204.001 78.3725 306.461 141.568 369.657C204.763 432.852 307.224 432.852 370.419 369.657Z" fill="white"/>
<path d="M414.124 220.853C340.436 265.502 219.326 338.746 151.67 378.897C132.529 362.761 117.391 342.406 107.444 319.432L331.303 111.945C352.218 122.956 370.469 138.411 384.777 157.225C399.084 176.039 409.101 197.757 414.124 220.853Z" fill="#EBEBEB"/>
<path d="M417.68 260.846C417.092 278.851 413.475 296.628 406.981 313.432L205.198 408.879C196.399 405.972 187.869 402.307 179.704 397.925C240.629 362.695 352.045 298.595 417.68 260.846Z" fill="#EBEBEB"/>
<path d="M257.551 105.151H254.429V129.682H257.551V105.151Z" fill="#C7C7C7"/>
<path d="M182.319 124.456L179.606 126.022L191.872 147.267L194.584 145.701L182.319 124.456Z" fill="#C7C7C7"/>
<path d="M126.8 178.815L125.239 181.519L146.484 193.785L148.045 191.081L126.8 178.815Z" fill="#C7C7C7"/>
<path d="M130.451 253.66H105.92V256.782H130.451V253.66Z" fill="#C7C7C7"/>
<path d="M146.466 316.654L125.222 328.919L126.783 331.623L148.027 319.358L146.466 316.654Z" fill="#C7C7C7"/>
<path d="M191.864 363.191L179.61 384.442L182.324 386.007L194.578 364.756L191.864 363.191Z" fill="#C7C7C7"/>
<path d="M257.551 380.77H254.429V405.301H257.551V380.77Z" fill="#C7C7C7"/>
<path d="M320.133 363.163L317.42 364.729L329.685 385.974L332.398 384.408L320.133 363.163Z" fill="#C7C7C7"/>
<path d="M365.495 316.623L363.934 319.327L385.178 331.592L386.739 328.888L365.495 316.623Z" fill="#C7C7C7"/>
<path d="M406.07 253.66H381.539V256.782H406.07V253.66Z" fill="#C7C7C7"/>
<path d="M385.184 178.861L363.94 191.127L365.501 193.831L386.745 181.565L385.184 178.861Z" fill="#C7C7C7"/>
<path d="M329.686 124.489L317.431 145.74L320.145 147.305L332.4 126.054L329.686 124.489Z" fill="#C7C7C7"/>
<path d="M404.853 257.311L247.899 261.692L248.09 246.347L404.896 253.142L404.853 257.311Z" fill="#353535"/>
<path d="M257.075 144.858L263.869 264.296L248.513 264.095L252.916 144.805L257.075 144.858Z" fill="#263238"/>
<path d="M255.995 260.465C258.888 260.465 261.234 258.119 261.234 255.226C261.234 252.333 258.888 249.988 255.995 249.988C253.102 249.988 250.757 252.333 250.757 255.226C250.757 258.119 253.102 260.465 255.995 260.465Z" fill="#353535"/>
<path d="M400.483 255.131C399.901 253.374 368.734 212.218 366.618 211.435C366.374 211.329 352.458 221.234 352.458 221.234C351.876 221.996 325.419 216.408 325.419 216.408L325.154 248.326L373.359 247.268C373.359 247.268 379.867 251.099 385.825 254.221C388.356 255.645 390.972 256.914 393.657 258.02C396.101 258.676 401.075 256.877 400.483 255.131Z" fill="#FFC4C0"/>
<path d="M393.689 258.052C391 256.953 388.384 255.684 385.857 254.253C379.899 251.078 373.391 247.3 373.391 247.3L362.66 247.533L345.844 220.43C349.537 221.086 352.278 221.488 352.468 221.234C352.468 221.234 366.385 211.318 366.628 211.435C368.745 212.218 399.901 253.364 400.493 255.131C401.086 256.898 396.101 258.676 393.689 258.052Z" fill="white"/>
<path d="M400.768 255.184C400.155 253.385 368.872 212.26 366.681 211.445C365.856 211.128 359.051 215.34 352.468 221.234L372.66 247.691C372.66 247.691 391.297 257.565 393.826 258.2C396.355 258.835 401.382 256.983 400.768 255.184Z" fill="#A6A6A6"/>
<path d="M398.673 255.84C393.255 249.078 372.057 221.287 367.221 214.186C367.221 214.123 367.221 214.101 367.221 214.186C372.724 220.769 393.678 248.739 398.737 255.787C398.864 255.904 398.789 255.999 398.673 255.84Z" fill="#263238"/>
<path d="M390.302 256.708C389.698 255.958 389.258 255.091 389.008 254.162C388.758 253.233 388.705 252.262 388.852 251.311C389.093 249.59 389.992 248.031 391.36 246.961C391.36 246.961 391.456 246.961 391.424 247.046C390.231 248.315 389.482 249.937 389.291 251.668C389.1 253.4 389.477 255.146 390.366 256.644C390.375 256.647 390.383 256.651 390.39 256.658C390.397 256.664 390.402 256.672 390.404 256.681C390.407 256.69 390.407 256.7 390.405 256.709C390.402 256.718 390.398 256.727 390.391 256.733C390.384 256.74 390.376 256.745 390.367 256.747C390.358 256.75 390.348 256.749 390.339 256.747C390.33 256.744 390.322 256.739 390.315 256.732C390.309 256.726 390.304 256.717 390.302 256.708Z" fill="#263238"/>
<path d="M374.999 249.363C372.883 246.633 371.401 242.686 372.354 239.257C372.354 239.119 372.586 239.183 372.597 239.257C373.169 242.635 374.102 245.941 375.38 249.12C375.413 249.171 375.423 249.232 375.41 249.29C375.398 249.349 375.362 249.4 375.311 249.432C375.261 249.464 375.2 249.475 375.141 249.462C375.083 249.45 375.032 249.414 374.999 249.363Z" fill="#263238"/>
<path d="M377.454 250.856C375.338 248.125 373.856 244.188 374.809 240.76C374.809 240.622 375.031 240.675 375.052 240.76C375.625 244.133 376.555 247.435 377.825 250.612C377.857 250.661 377.869 250.721 377.857 250.779C377.845 250.836 377.81 250.887 377.761 250.919C377.712 250.951 377.652 250.963 377.595 250.951C377.537 250.939 377.487 250.905 377.454 250.856Z" fill="#263238"/>
<path d="M379.899 252.358C377.783 249.628 376.301 245.681 377.253 242.252C377.253 242.125 377.486 242.178 377.507 242.252C378.071 245.627 379 248.931 380.28 252.104C380.314 252.155 380.326 252.217 380.314 252.276C380.302 252.336 380.267 252.388 380.217 252.422C380.166 252.455 380.104 252.468 380.045 252.456C379.985 252.444 379.933 252.409 379.899 252.358Z" fill="#263238"/>
<path d="M382.354 253.882C380.238 251.152 378.756 247.215 379.709 243.786C379.709 243.649 379.931 243.702 379.952 243.786C380.525 247.159 381.455 250.462 382.725 253.639C382.757 253.688 382.768 253.748 382.757 253.805C382.745 253.863 382.71 253.914 382.661 253.946C382.612 253.978 382.552 253.99 382.495 253.978C382.437 253.966 382.387 253.931 382.354 253.882Z" fill="#263238"/>
<path d="M362.014 220.927C359.665 217.816 364.48 214.165 366.84 217.276C369.2 220.388 364.364 224.028 362.014 220.927Z" fill="#263238"/>
<path d="M373.782 254.644C374.576 251.692 374.057 248.506 373.92 245.511C373.911 245.445 373.887 245.381 373.849 245.326C373.811 245.27 373.761 245.225 373.702 245.193C373.643 245.161 373.578 245.143 373.51 245.142C373.443 245.14 373.377 245.154 373.317 245.183C373.309 245.172 373.298 245.163 373.286 245.157C373.274 245.151 373.261 245.148 373.248 245.148C373.234 245.148 373.221 245.151 373.209 245.157C373.197 245.163 373.187 245.172 373.179 245.183C370.803 247.313 369.026 250.027 368.025 253.057C367.475 254.835 367.686 257.459 369.909 257.978C372.131 258.496 373.327 256.369 373.782 254.644ZM371.592 256.507C368.417 258.518 368.628 254.062 369.083 252.76C369.384 251.931 369.738 251.122 370.142 250.337C371.029 248.737 371.997 247.183 373.041 245.681C373.041 247.152 373.126 248.623 373.158 250.094C373.232 251.85 373.369 255.406 371.592 256.507Z" fill="#263238"/>
<path d="M363.94 236.696C362.3 238.283 363.475 240.633 364.861 241.871C367.275 243.954 370.195 245.367 373.327 245.966C373.341 245.968 373.354 245.966 373.367 245.962C373.38 245.958 373.391 245.951 373.401 245.942C373.411 245.933 373.419 245.922 373.425 245.91C373.43 245.898 373.433 245.885 373.433 245.871C373.499 245.863 373.562 245.84 373.618 245.803C373.673 245.767 373.72 245.718 373.754 245.661C373.787 245.603 373.807 245.539 373.812 245.473C373.817 245.407 373.807 245.34 373.782 245.278C372.354 242.643 371.147 239.638 368.956 237.521C367.697 236.283 365.506 235.193 363.94 236.696ZM370.808 241.723C371.539 243.003 372.205 244.315 372.988 245.564C371.314 244.814 369.679 243.981 368.089 243.067C367.33 242.61 366.602 242.104 365.909 241.553C364.85 240.685 362.342 236.981 366.12 237.045C368.237 237.087 369.951 240.199 370.83 241.723H370.808Z" fill="#263238"/>
<path d="M323.969 206.619H302.338C302.338 206.619 279.701 195.74 261.477 200.121C240.576 205.148 237.899 231.394 253.519 240.675C273.319 252.432 361.39 250.199 361.39 250.199L342.351 217.901C342.351 217.901 313.058 211.741 286.495 212.609L323.969 217.721V206.619Z" fill="#455A64"/>
<path d="M343.611 220.017C343.606 219.961 343.606 219.904 343.611 219.848V219.71C343.611 219.615 343.558 219.509 343.537 219.403C343.515 219.298 343.388 218.98 343.314 218.768C343.24 218.557 343.134 218.356 343.039 218.155C342.939 217.955 342.822 217.763 342.69 217.583C342.69 217.583 342.69 217.583 342.637 217.583C339.409 216.98 317.524 213.847 314.275 213.477C311.026 213.107 307.703 212.8 304.412 212.525C297.845 211.955 291.254 211.718 284.664 211.815H282.812C282.685 211.815 282.537 211.752 282.41 211.72L281.458 211.498C280.865 211.392 280.262 211.297 279.669 211.212C278.42 211.022 277.172 210.884 275.923 210.651C275.849 210.651 275.828 210.757 275.923 210.768C277.172 211.054 278.389 211.413 279.637 211.678L280.696 211.911C278.283 212.038 275.87 212.228 273.457 212.44C273.383 212.44 273.383 212.567 273.457 212.567C276.738 212.366 280.05 212.345 283.331 212.398C286.611 212.45 289.85 212.525 293.109 212.715C299.702 213.096 306.285 213.678 312.846 214.366C316.529 214.758 338.848 218.006 342.542 218.165H342.595C342.622 218.252 342.654 218.336 342.69 218.419L343.007 219.022C343.113 219.213 343.219 219.393 343.335 219.573L343.515 219.848L343.611 219.975C343.611 219.975 343.695 220.07 343.706 220.112C343.716 220.155 343.664 220.017 343.611 220.017Z" fill="#263238"/>
<path d="M354.521 248.199C353.357 246.316 352.299 244.358 351.241 242.358C350.182 240.357 349.124 238.452 347.992 236.505C345.822 232.621 338.055 219.573 337.282 218.631C337.282 218.578 337.134 218.631 337.155 218.705C337.525 219.763 342.383 228.378 343.505 230.346C345.738 234.209 348.087 237.987 350.405 241.807C351.061 242.866 351.749 243.924 352.415 245.046C353.082 246.167 353.802 247.162 354.416 248.305C354.416 248.326 354.564 248.263 354.521 248.199Z" fill="#263238"/>
<path d="M337.07 221.89C335.134 221.414 333.144 221.118 331.176 220.747L325.271 219.636C321.334 218.931 317.39 218.225 313.439 217.52C305.555 216.186 297.639 215.086 289.68 214.345C285.193 213.921 280.696 213.636 276.187 213.286C276.092 213.286 276.103 213.424 276.187 213.435C284.199 213.794 292.199 214.874 300.136 216.017C308.073 217.16 315.831 218.387 323.662 219.71L330.287 220.843C332.53 221.234 334.774 221.71 337.028 221.996C337.123 222.028 337.166 221.901 337.07 221.89Z" fill="#263238"/>
<path d="M359.453 360.134C357.559 359.943 310.38 338.735 309.089 336.788C308.603 336.058 311.291 329.01 314.772 320.575C315.534 318.755 316.317 316.882 317.132 314.988C322.424 302.648 328.255 289.673 328.255 289.673L359.855 303.77L347.865 328.692L345.24 334.164C345.24 334.164 359.665 350.355 360.85 352.641C362.035 354.927 361.358 360.324 359.453 360.134Z" fill="#FFC4C0"/>
<path d="M359.453 360.134C357.559 359.943 310.381 338.735 309.089 336.788C308.497 335.899 312.582 325.676 317.132 314.988L347.823 328.692L345.198 334.164C345.198 334.164 359.622 350.355 360.808 352.641C361.993 354.927 361.358 360.324 359.453 360.134Z" fill="white"/>
<path d="M359.453 360.134C357.559 359.943 310.38 338.735 309.089 336.788C308.603 336.058 311.291 329.01 314.772 320.575L345.24 334.164C345.24 334.164 359.665 350.355 360.85 352.641C362.035 354.927 361.358 360.324 359.453 360.134Z" fill="#A6A6A6"/>
<path d="M359.633 357.943C351.812 354.197 319.905 339.815 311.894 336.704C311.82 336.704 311.809 336.704 311.894 336.704C319.566 340.587 351.59 354.694 359.601 358.028C359.707 358.144 359.792 358.017 359.633 357.943Z" fill="#263238"/>
<path d="M358.575 349.583C357.706 349.165 356.759 348.933 355.796 348.9C354.832 348.867 353.872 349.035 352.976 349.392C351.357 350.017 350.044 351.246 349.315 352.821C349.315 352.821 349.378 352.906 349.41 352.821C350.38 351.374 351.795 350.282 353.441 349.709C355.086 349.137 356.873 349.115 358.532 349.646C358.539 349.645 358.546 349.642 358.552 349.638C358.558 349.635 358.563 349.629 358.567 349.624C358.571 349.618 358.574 349.611 358.575 349.604C358.576 349.597 358.576 349.59 358.575 349.583Z" fill="#263238"/>
<path d="M347.95 336.323C344.775 334.862 340.626 334.333 337.504 336.037C337.377 336.1 337.504 336.27 337.589 336.259C341.011 336.056 344.445 336.219 347.833 336.746C347.886 336.752 347.939 336.739 347.983 336.709C348.026 336.679 348.058 336.635 348.072 336.584C348.086 336.533 348.082 336.479 348.059 336.431C348.037 336.383 347.998 336.344 347.95 336.323Z" fill="#263238"/>
<path d="M349.96 338.376C346.785 336.915 342.648 336.375 339.515 338.079C339.399 338.153 339.515 338.323 339.61 338.312C343.029 338.106 346.459 338.265 349.844 338.788C349.871 338.796 349.899 338.798 349.927 338.795C349.955 338.792 349.982 338.783 350.007 338.769C350.031 338.755 350.053 338.737 350.07 338.715C350.088 338.693 350.101 338.667 350.108 338.64C350.116 338.613 350.118 338.585 350.115 338.557C350.112 338.529 350.103 338.502 350.089 338.477C350.075 338.453 350.057 338.431 350.035 338.414C350.013 338.396 349.987 338.383 349.96 338.376Z" fill="#263238"/>
<path d="M351.982 340.429C348.807 338.958 344.658 338.429 341.536 340.132C341.409 340.196 341.536 340.376 341.621 340.365C345.039 340.158 348.47 340.318 351.855 340.841C351.904 340.844 351.954 340.831 351.994 340.802C352.035 340.774 352.066 340.733 352.08 340.685C352.095 340.637 352.093 340.586 352.075 340.54C352.057 340.493 352.024 340.454 351.982 340.429Z" fill="#263238"/>
<path d="M353.992 342.482C350.817 341.011 346.68 340.482 343.547 342.185C343.431 342.249 343.547 342.418 343.642 342.418C347.061 342.212 350.491 342.371 353.876 342.894C353.931 342.91 353.989 342.903 354.039 342.875C354.088 342.847 354.125 342.801 354.14 342.746C354.156 342.692 354.149 342.633 354.121 342.583C354.093 342.534 354.047 342.497 353.992 342.482Z" fill="#263238"/>
<path d="M317.28 330.079C313.725 328.491 311.248 334.016 314.815 335.614C318.381 337.212 320.847 331.677 317.28 330.079Z" fill="#263238"/>
<path d="M355.167 329.423C354.162 327.37 351.558 327.761 349.95 328.692C347.22 330.349 344.975 332.696 343.441 335.497C343.432 335.509 343.425 335.523 343.423 335.537C343.421 335.552 343.422 335.567 343.428 335.581C343.433 335.595 343.442 335.608 343.454 335.617C343.465 335.626 343.479 335.633 343.494 335.635C343.481 335.7 343.482 335.767 343.5 335.831C343.517 335.895 343.549 335.954 343.593 336.004C343.637 336.053 343.693 336.092 343.755 336.116C343.816 336.14 343.883 336.149 343.949 336.143C346.902 335.603 350.13 335.381 352.828 333.941C354.416 333.105 356.119 331.359 355.167 329.423ZM348.256 334.396C346.817 334.703 345.357 334.936 343.928 335.296C345.198 333.973 346.415 332.597 347.812 331.402C348.482 330.817 349.189 330.276 349.929 329.782C351.093 329.052 355.389 327.803 354.162 331.391C353.474 333.359 349.981 334.037 348.256 334.396Z" fill="#263238"/>
<path d="M335.049 333.137C337.61 334.799 340.806 335.254 343.706 336.09C344.002 336.174 344.214 335.878 344.203 335.614C344.217 335.612 344.231 335.607 344.242 335.599C344.254 335.591 344.263 335.58 344.269 335.567C344.276 335.555 344.279 335.541 344.278 335.527C344.278 335.512 344.274 335.499 344.267 335.486C342.978 332.565 340.941 330.035 338.361 328.153C336.838 327.094 334.276 326.47 333.07 328.428C331.864 330.386 333.546 332.195 335.049 333.137ZM333.938 330.47C333.017 326.798 337.197 328.407 338.287 329.243C338.981 329.797 339.638 330.394 340.256 331.031C341.509 332.38 342.693 333.793 343.801 335.264C342.404 334.788 340.975 334.428 339.568 334.005C337.875 333.476 334.446 332.502 333.938 330.47Z" fill="#263238"/>
<path d="M317.852 312.088L353.357 328.153C353.357 328.153 395.689 246.961 396.747 222.102C397.689 200.936 382.989 192.788 335.367 206.471L323.725 206.619V214.662C328.837 215.34 342.499 217.488 342.499 217.488C352.437 221.234 355.633 222.779 355.474 223.107C330.731 273.143 317.852 312.088 317.852 312.088Z" fill="#455A64"/>
<path d="M361.326 214.175C359.898 216.091 358.564 218.081 357.294 220.112C349.579 216.816 341.42 214.677 333.081 213.763C330.745 213.473 328.396 213.265 326.032 213.138C325.937 213.138 325.937 213.276 326.032 213.287C334.402 213.846 342.675 215.395 350.68 217.901C352.892 218.578 355.061 219.372 357.241 220.155C355.717 222.599 354.278 225.097 352.902 227.616C350.323 232.337 348.002 237.194 345.949 242.167C344.806 244.908 343.695 247.67 342.711 250.475C342.711 250.559 342.817 250.612 342.849 250.528C347.202 240.848 351.943 231.373 357.072 222.102C358.522 219.488 360.035 216.906 361.453 214.271C361.496 214.197 361.379 214.112 361.326 214.175Z" fill="#263238"/>
<path d="M354.172 319.57C352.056 318.755 350.087 317.75 348.055 316.84L341.949 314.099C337.896 312.278 323.842 306.458 322.678 306.183C322.604 306.183 322.561 306.278 322.625 306.32C323.524 306.902 332.594 310.934 334.636 311.813C338.742 313.569 342.88 315.199 347.018 316.871C348.204 317.347 349.389 317.792 350.574 318.268C351.759 318.744 352.966 319.157 354.119 319.676C354.193 319.707 354.236 319.591 354.172 319.57Z" fill="#263238"/>
<path d="M361.157 217.901C358.352 223.192 355.961 228.812 353.527 234.315C351.093 239.818 348.743 245.31 346.447 250.845C341.882 261.879 337.649 273.041 333.747 284.329C331.514 290.679 329.43 297.134 327.398 303.579C327.398 303.664 327.514 303.706 327.546 303.579C331.313 292.182 335.388 280.89 339.653 269.714C343.917 258.539 348.415 247.427 353.188 236.452C354.529 233.376 355.89 230.304 357.273 227.235C358.659 224.166 360.099 221.118 361.4 218.017C361.4 217.827 361.22 217.721 361.157 217.901Z" fill="#263238"/>
<path d="M302.56 209.202C303.364 209.995 352.775 209.519 353.019 209.202C353.664 208.334 346.267 177.199 340.711 165.389C333.599 150.255 329.842 148.996 327.588 148.149C324.571 147.296 321.38 147.271 318.349 148.075C316.952 148.699 311.047 155.779 309.386 161.399C306.052 172.68 301.851 208.503 302.56 209.202Z" fill="#353535"/>
<path d="M335.896 152.044C357.707 167.346 376.851 188.957 375.306 196.047C373.676 203.54 359.231 212.345 346.288 214.461C343.642 214.895 334.763 195.645 337.462 194.65C339.579 193.888 349.103 190.83 350.246 189.465C351.019 188.512 335.345 167.918 330.139 157.06C324.625 145.705 330.075 147.948 335.896 152.044Z" fill="#FFC4C0"/>
<path d="M342.933 193.888C342.933 193.888 334.837 194.946 329.567 195.92C326.636 196.46 321.683 197.814 319.704 199.201C316.751 201.264 305.692 211.773 308.19 214.514C310.444 216.991 313.587 212.853 313.587 212.853C313.587 212.853 309.724 217.086 312.719 218.811C315.714 220.536 319.312 214.81 319.312 214.81C319.312 214.81 314.899 218.98 318.254 220.568C321.175 221.943 326.022 215.721 326.022 215.721C326.022 215.721 320.91 219.594 323.768 221.298C326.943 223.181 335.409 214.768 335.409 214.768C340.827 215.387 346.315 214.842 351.505 213.17C352.373 212.884 342.933 193.888 342.933 193.888Z" fill="#FFC4C0"/>
<path d="M318.127 216.207L319.048 214.895C319.62 214.024 320.242 213.186 320.91 212.387C321.577 211.625 322.276 210.895 323.027 210.175C323.778 209.456 324.636 208.746 325.376 207.974C325.381 207.965 325.387 207.957 325.395 207.951C325.403 207.945 325.413 207.94 325.423 207.939C325.433 207.937 325.443 207.938 325.453 207.941C325.463 207.944 325.471 207.949 325.479 207.956C325.486 207.964 325.491 207.972 325.494 207.982C325.497 207.992 325.498 208.002 325.496 208.012C325.495 208.022 325.49 208.032 325.484 208.04C325.478 208.048 325.47 208.054 325.461 208.059C324.714 208.814 324.007 209.609 323.344 210.44L321.365 212.842C320.72 213.636 320.032 214.366 319.365 215.139C319.037 215.519 318.72 215.922 318.413 216.313C318.135 216.707 317.827 217.078 317.492 217.424L317.418 217.371C317.618 216.962 317.855 216.573 318.127 216.207Z" fill="#263238"/>
<path d="M312.804 213.742C313.808 212.09 314.929 210.513 316.159 209.022C317.406 207.535 318.799 206.177 320.318 204.968C320.33 204.963 320.343 204.961 320.356 204.963C320.369 204.965 320.381 204.972 320.39 204.981C320.399 204.99 320.406 205.002 320.408 205.015C320.41 205.028 320.408 205.041 320.402 205.053C319.154 206.545 317.884 208.016 316.624 209.477C316 210.196 313.291 213.551 312.963 213.869C312.878 213.943 312.762 213.826 312.804 213.742Z" fill="#263238"/>
<path d="M323.08 218.663C324.062 217.132 325.143 215.669 326.318 214.281C327.635 212.975 329.05 211.772 330.551 210.683C330.563 210.677 330.576 210.676 330.589 210.678C330.602 210.68 330.614 210.686 330.624 210.696C330.633 210.705 330.639 210.717 330.641 210.73C330.644 210.743 330.642 210.756 330.636 210.768C329.313 212.069 327.969 213.339 326.72 214.715C326.107 215.382 323.821 218.176 323.175 218.758C323.143 218.811 323.048 218.737 323.08 218.663Z" fill="#263238"/>
<path d="M360.215 170.998L344.341 182.035C344.341 182.035 331.705 163.801 328.297 155.081C324.89 146.361 328.53 146.223 337.25 152.34C345.971 158.457 360.215 170.998 360.215 170.998Z" fill="#353535"/>
<path d="M356.458 168.796C352.255 172.238 347.844 175.419 343.251 178.321C343.198 178.321 343.134 178.268 343.198 178.226C344.404 177.442 350.86 172.363 356.395 168.701C356.458 168.648 356.532 168.743 356.458 168.796Z" fill="#263238"/>
<path d="M309.206 152.287C292.21 161.812 276.399 173.283 273.542 180.967C271.785 185.803 274.431 194.375 276.526 199.518C277.584 202.016 301.131 191.38 299.078 189.348C293.998 184.311 293.141 182.247 293.638 181.178C293.945 180.501 312.328 163.463 317.386 155.896C324.445 145.345 316.635 148.128 309.206 152.287Z" fill="#FFC4C0"/>
<path d="M308.909 212.503C306.687 213.847 303.851 208.101 303.851 208.101C303.803 209.217 303.364 210.28 302.613 211.106C301.226 212.493 298.432 210.927 298.432 210.927C298.139 212.073 297.508 213.105 296.623 213.89C295.152 215.086 292.115 213.89 292.115 213.89C291.26 214.791 290.111 215.358 288.876 215.488C285.564 215.699 282.611 211.583 280.706 208.979C278.801 206.376 275.838 197.232 275.097 195.539L291.67 183.178C291.67 183.178 303.523 192.396 305.322 195.772C306.793 198.64 312.254 210.493 308.909 212.503Z" fill="#FFC4C0"/>
<path d="M303.84 208.016C302.83 204.634 301.409 201.389 299.607 198.354C299.607 198.291 299.47 198.354 299.501 198.418C301.205 201.444 302.147 204.99 303.734 208.08C303.746 208.083 303.757 208.084 303.769 208.082C303.78 208.081 303.791 208.077 303.801 208.071C303.811 208.065 303.82 208.057 303.826 208.048C303.833 208.038 303.838 208.028 303.84 208.016Z" fill="#263238"/>
<path d="M298.559 210.715C298.286 209.962 297.913 209.25 297.448 208.598C297.004 207.868 296.538 207.159 296.072 206.482C295.134 205.071 294.157 203.66 293.141 202.249C293.141 202.185 292.993 202.249 293.035 202.249C293.977 203.667 294.887 205.095 295.766 206.556C296.199 207.286 296.633 208.016 297.057 208.746C297.419 209.467 297.855 210.148 298.358 210.778C298.373 210.795 298.393 210.806 298.414 210.812C298.435 210.818 298.458 210.817 298.479 210.811C298.5 210.804 298.519 210.791 298.533 210.774C298.547 210.757 298.557 210.737 298.559 210.715Z" fill="#263238"/>
<path d="M292.03 213.847C291.769 213.167 291.393 212.537 290.919 211.985L289.606 210.059C288.739 208.778 287.871 207.487 287.045 206.175C287.045 206.101 286.897 206.175 286.939 206.228C287.765 207.572 288.58 208.926 289.426 210.26C289.839 210.916 290.252 211.572 290.675 212.218C291.004 212.846 291.441 213.412 291.966 213.89L292.03 213.847Z" fill="#263238"/>
<path d="M284.675 166.574L297.734 178.564C297.734 178.564 313.894 163.293 318.434 155.102C322.974 146.911 319.397 146.297 309.968 151.176C300.538 156.055 284.675 166.574 284.675 166.574Z" fill="#353535"/>
<path d="M284.675 166.574L297.734 178.564C297.734 178.564 313.894 163.293 318.434 155.102C322.974 146.911 319.397 146.297 309.968 151.176C300.538 156.055 284.675 166.574 284.675 166.574Z" fill="#353535"/>
<path d="M300.263 175.241C296.197 171.902 292.348 168.307 288.739 164.479C288.686 164.479 288.739 164.362 288.813 164.415C289.786 165.41 295.818 170.595 300.348 175.157C300.443 175.21 300.316 175.284 300.263 175.241Z" fill="#263238"/>
<path d="M310.91 158.372C310.317 159.748 309.724 161.124 309.238 162.542C309.243 162.447 309.243 162.351 309.238 162.256C309.282 161.397 309.385 160.541 309.544 159.695C309.544 159.6 309.417 159.568 309.407 159.695C309.238 160.542 309.089 161.399 308.984 162.267C308.931 162.679 308.909 163.092 308.888 163.505C308.888 163.505 308.888 163.6 308.888 163.653C308.338 165.537 308.01 167.452 307.544 169.347C307.544 169.442 307.671 169.474 307.692 169.347C308.147 167.484 308.835 165.674 309.428 163.854C310.021 162.034 310.486 160.182 311.047 158.362C311.026 158.351 310.941 158.309 310.91 158.372Z" fill="#263238"/>
<path d="M319.767 156.605C322.572 157.282 327.408 153.007 329.292 149.546C329.419 149.303 329.07 146.795 328.784 143.715C328.615 141.852 328.477 139.768 328.477 137.863C328.477 137.471 316.497 140.72 316.497 140.72C317.167 143.11 317.544 145.573 317.619 148.054C317.619 148.317 317.59 148.58 317.534 148.837C317.538 148.879 317.538 148.922 317.534 148.964C317.302 150.456 317.058 155.949 319.767 156.605Z" fill="#FFC4C0"/>
<path d="M327.779 137.905C327.207 141.133 325.165 148.922 318.773 149.038C318.366 149.053 317.958 149.028 317.556 148.964C317.556 148.911 317.556 148.879 317.556 148.837C317.61 148.579 317.641 148.317 317.651 148.054C317.575 145.572 317.194 143.109 316.519 140.72C316.519 140.72 325.175 138.371 327.779 137.905Z" fill="#263238"/>
<path d="M327.874 122.041C329.99 125.946 330.192 138.413 327.768 141.683C324.255 146.435 317.302 148.213 312.952 143.715C308.603 139.217 308.719 123.11 311.576 120.009C315.746 115.438 324.784 116.305 327.874 122.041Z" fill="#FFC4C0"/>
<path d="M318.434 133.174C318.434 133.174 318.497 133.174 318.497 133.249C318.497 134.095 318.624 135.058 319.386 135.365C318.434 135.259 318.275 133.979 318.434 133.174Z" fill="#263238"/>
<path d="M319.143 132.286C320.487 132.159 320.656 134.857 319.408 134.984C318.159 135.111 318.011 132.402 319.143 132.286Z" fill="#263238"/>
<path d="M313.725 133.492C313.725 133.492 313.661 133.492 313.661 133.566C313.746 134.402 313.661 135.376 312.952 135.683C313.873 135.556 313.926 134.296 313.725 133.492Z" fill="#263238"/>
<path d="M312.92 132.656C311.566 132.656 311.629 135.355 312.92 135.365C314.211 135.376 314.053 132.677 312.92 132.656Z" fill="#263238"/>
<path d="M320.265 130.063C319.884 130.063 319.524 129.989 319.154 129.947C318.757 129.964 318.366 129.848 318.042 129.619C317.957 129.525 317.904 129.407 317.891 129.282C317.877 129.156 317.905 129.029 317.968 128.92C318.133 128.727 318.346 128.58 318.586 128.497C318.826 128.413 319.084 128.395 319.334 128.444C319.849 128.467 320.338 128.678 320.709 129.037C320.789 129.124 320.841 129.232 320.861 129.349C320.88 129.465 320.865 129.585 320.818 129.693C320.771 129.802 320.694 129.894 320.596 129.96C320.498 130.025 320.383 130.061 320.265 130.063Z" fill="#263238"/>
<path d="M311.555 130.762C311.915 130.668 312.268 130.551 312.613 130.412C313.02 130.358 313.394 130.163 313.672 129.862C313.739 129.754 313.768 129.627 313.755 129.5C313.741 129.374 313.686 129.255 313.598 129.164C313.387 128.995 313.133 128.89 312.864 128.862C312.596 128.834 312.325 128.883 312.084 129.005C311.581 129.137 311.144 129.449 310.857 129.883C310.802 129.988 310.778 130.108 310.79 130.226C310.801 130.344 310.846 130.457 310.92 130.55C310.994 130.643 311.094 130.712 311.206 130.75C311.319 130.787 311.44 130.791 311.555 130.762Z" fill="#263238"/>
<path d="M320.286 140.879C320.096 141.09 319.916 141.376 319.609 141.419C319.298 141.429 318.988 141.375 318.699 141.26C318.825 141.413 318.989 141.53 319.175 141.598C319.361 141.667 319.562 141.685 319.757 141.651C319.926 141.597 320.074 141.493 320.184 141.354C320.293 141.214 320.358 141.045 320.371 140.868C320.371 140.868 320.318 140.847 320.286 140.879Z" fill="#263238"/>
<path d="M319.249 138.424C319.058 138.768 318.797 139.069 318.484 139.308C318.171 139.546 317.811 139.717 317.429 139.81C317.082 139.894 316.727 139.933 316.37 139.926H316.169H315.989C315.944 139.92 315.902 139.899 315.869 139.866C315.837 139.834 315.816 139.792 315.809 139.746V139.588C315.746 138.942 315.757 137.958 315.757 137.958C315.524 138.085 314.36 138.699 314.349 138.36C314.253 135.448 314.447 132.534 314.931 129.661C314.937 129.645 314.948 129.631 314.962 129.621C314.976 129.611 314.993 129.606 315.01 129.606C315.028 129.606 315.045 129.611 315.059 129.621C315.073 129.631 315.084 129.645 315.09 129.661C315.196 132.36 314.836 135.048 314.899 137.757C315.317 137.534 315.761 137.366 316.222 137.259C316.317 137.259 316.222 139.164 316.222 139.45C316.752 139.475 317.28 139.394 317.778 139.212C318.276 139.03 318.733 138.751 319.122 138.392C319.228 138.307 319.302 138.36 319.249 138.424Z" fill="#263238"/>
<path d="M316.762 139.588C317.145 140.027 317.633 140.362 318.18 140.561C318.483 140.656 318.808 140.656 319.111 140.561C319.767 140.339 319.746 139.725 319.598 139.207C319.512 138.933 319.395 138.67 319.249 138.424C318.566 139.068 317.694 139.476 316.762 139.588Z" fill="#263238"/>
<path d="M318.18 140.54C318.483 140.635 318.808 140.635 319.111 140.54C319.767 140.318 319.746 139.704 319.598 139.186C319.244 139.22 318.912 139.372 318.655 139.618C318.398 139.863 318.231 140.188 318.18 140.54Z" fill="#FF98B9"/>
<path d="M310.698 125.587C315.111 127.894 320.223 123.004 320.223 123.004C320.675 123.854 321.391 124.535 322.263 124.945C323.134 125.355 324.115 125.473 325.059 125.28C325.059 125.28 326.678 132.095 328.488 131.862C331.26 131.513 331.006 121.999 329.916 120.221C329.498 119.673 328.971 119.217 328.368 118.882C327.765 118.547 327.1 118.34 326.413 118.274C326.018 117.187 325.229 116.288 324.202 115.755C322.085 114.528 315.831 117.258 315.831 117.258C315.359 116.408 314.691 115.682 313.883 115.141C313.69 115.011 313.473 114.92 313.244 114.876C313.015 114.831 312.779 114.833 312.551 114.881C312.323 114.93 312.107 115.023 311.916 115.157C311.724 115.291 311.562 115.462 311.439 115.66C311.853 116.127 312.151 116.685 312.307 117.29C312.878 119.269 311.248 119.459 311.026 117.628C310.921 116.944 311.067 116.244 311.439 115.66C310.486 114.602 309.111 114.326 308.38 115.067C307.015 116.485 307.036 123.713 310.698 125.587Z" fill="#263238"/>
<path d="M312.307 137.207C311.047 137.291 309.915 135.82 309.788 133.926C309.661 132.032 310.56 130.402 311.82 130.317C313.079 130.232 314.201 131.703 314.338 133.598C314.476 135.492 313.566 137.111 312.307 137.207ZM311.851 130.783C310.846 130.846 310.126 132.243 310.243 133.894C310.359 135.545 311.301 136.815 312.275 136.741C313.248 136.667 314 135.28 313.873 133.63C313.746 131.979 312.846 130.709 311.851 130.783Z" fill="#353535"/>
<path d="M320.021 136.656C319.334 136.752 318.633 136.639 318.01 136.331C317.388 136.024 316.872 135.536 316.53 134.931C316.189 134.327 316.037 133.633 316.095 132.941C316.152 132.249 316.417 131.591 316.854 131.051C317.291 130.511 317.88 130.116 318.545 129.915C319.21 129.715 319.92 129.719 320.582 129.928C321.245 130.136 321.829 130.539 322.259 131.084C322.69 131.629 322.946 132.291 322.995 132.984C323.084 133.865 322.822 134.745 322.265 135.433C321.708 136.12 320.901 136.56 320.021 136.656ZM319.566 130.222C318.962 130.217 318.37 130.394 317.868 130.731C317.366 131.068 316.977 131.548 316.752 132.109C316.527 132.67 316.477 133.286 316.607 133.876C316.738 134.467 317.044 135.004 317.484 135.418C317.925 135.832 318.48 136.103 319.077 136.197C319.674 136.29 320.286 136.201 320.832 135.942C321.378 135.683 321.833 135.265 322.138 134.743C322.442 134.221 322.583 133.619 322.54 133.016C322.513 132.252 322.185 131.53 321.628 131.007C321.071 130.484 320.33 130.202 319.566 130.222Z" fill="#353535"/>
<path d="M316.698 133.122C314.931 132.635 314.19 133.259 314.19 133.259L313.873 132.921C313.873 132.921 314.783 132.116 316.815 132.677L316.698 133.122Z" fill="#353535"/>
<path d="M322.741 132.698L322.625 132.243C322.921 132.169 329.853 130.37 330.615 130.275C331.655 130.391 332.664 130.703 333.589 131.195L333.398 131.608C332.555 131.174 331.647 130.877 330.71 130.73C330.075 130.804 325.228 132.053 322.741 132.698Z" fill="#353535"/>
<path d="M327.271 132.349C327.271 132.349 329.292 127.957 331.239 128.613C333.186 129.269 332.149 135.291 330.181 136.445C329.943 136.613 329.674 136.731 329.388 136.79C329.103 136.849 328.809 136.849 328.524 136.79C328.239 136.73 327.969 136.612 327.732 136.444C327.494 136.275 327.294 136.059 327.144 135.81L327.271 132.349Z" fill="#FFC4C0"/>
<path d="M330.795 150.382C329.544 152.047 328.201 153.64 326.773 155.155C325.457 156.637 323.698 157.654 321.757 158.055C319.873 158.309 317.968 158.055 317.175 155.705C316.592 153.735 316.458 151.66 316.783 149.631C316.783 149.525 316.645 149.504 316.635 149.631C316.328 152.689 316.074 157.399 318.878 158.33C322.053 159.388 324.964 157.663 327.038 155.441C328.489 153.92 329.77 152.245 330.858 150.446C330.858 150.446 330.826 150.35 330.795 150.382Z" fill="#263238"/>
<path d="M349.696 219.425H292.919V221.975H349.696V219.425Z" fill="#263238"/>
<path d="M335.123 221.964H279.786L275.182 184.385H330.509L335.123 221.964Z" fill="#263238"/>
<path d="M308.518 203.18C308.528 203.62 308.449 204.058 308.287 204.467C308.125 204.876 307.882 205.249 307.573 205.563C307.264 205.877 306.896 206.125 306.489 206.294C306.082 206.463 305.646 206.548 305.205 206.545C304.309 206.54 303.449 206.186 302.809 205.558C302.169 204.929 301.799 204.076 301.777 203.18C301.767 202.739 301.845 202.301 302.007 201.891C302.17 201.481 302.412 201.108 302.721 200.793C303.03 200.479 303.398 200.229 303.805 200.059C304.212 199.889 304.648 199.802 305.089 199.804C305.988 199.809 306.849 200.165 307.489 200.796C308.13 201.426 308.499 202.281 308.518 203.18Z" fill="white"/>
<path d="M298.57 457.274H94.4378L58.7631 309.146H262.895L298.57 457.274Z" fill="#A6A6A6"/>
<path d="M22.4957 457.274H226.628L262.303 309.146H58.1704L22.4957 457.274Z" fill="#DBDBDB"/>
<path d="M232.702 336.979L228.152 355.901L227.877 357.065L223.167 376.717L222.892 377.881L218.183 397.513L217.897 398.677L213.177 418.318L212.902 419.493L208.288 438.733H58.4244L63.0385 419.493L63.3137 418.318L68.0336 398.677L68.3194 397.513L73.0287 377.881L73.3144 376.717L78.0238 357.065L78.299 355.901L82.8496 336.979H232.702Z" fill="white"/>
<path d="M104.798 336.979L100.248 355.901L99.9726 357.065L95.2633 376.717L94.9881 377.881L90.2787 397.513L89.993 398.677L85.2836 418.318L84.9979 419.493L80.3838 438.733H79.1879L83.8126 419.493L84.0878 418.318L88.7971 398.677L89.0829 397.513L93.7817 377.881L94.0674 376.717L98.7873 357.065L99.0625 355.901L103.592 336.979H104.798Z" fill="#EBEBEB"/>
<path d="M126.144 336.979L121.593 355.901L121.318 357.065L116.609 376.717L116.334 377.881L111.624 397.513L111.339 398.677L106.629 418.318L106.343 419.493L101.729 438.733H100.534L105.158 419.493L105.433 418.318L110.143 398.677L110.428 397.513L115.127 377.881L115.413 376.717L120.133 357.065L120.408 355.901L124.938 336.979H126.144Z" fill="#EBEBEB"/>
<path d="M147.5 336.979L142.96 355.901L142.674 357.065L137.965 376.717L137.69 377.881L132.98 397.513L132.705 398.677L127.985 418.318L127.7 419.493L123.086 438.733H121.89L126.514 419.493L126.8 418.318L131.499 398.677L131.785 397.513L136.494 377.881L136.769 376.717L141.489 357.065L141.764 355.901L146.304 336.979H147.5Z" fill="#EBEBEB"/>
<path d="M168.846 336.979L164.306 355.901L164.02 357.065L159.311 376.717L159.035 377.881L154.326 397.513L154.051 398.677L149.331 418.318L149.045 419.493L144.431 438.733H143.235L147.86 419.493L148.146 418.318L152.844 398.677L153.13 397.513L157.84 377.881L158.115 376.717L162.835 357.065L163.11 355.901L167.65 336.979H168.846Z" fill="#EBEBEB"/>
<path d="M190.202 336.979L185.662 355.901L185.376 357.065L180.677 376.717L180.392 377.881L175.682 397.513L175.407 398.677L170.687 418.318L170.412 419.493L165.798 438.733H164.591L169.216 419.493L169.502 418.318L174.211 398.677L174.486 397.513L179.196 377.881L179.471 376.717L184.191 357.065L184.466 355.901L189.006 336.979H190.202Z" fill="#EBEBEB"/>
<path d="M211.547 336.979L207.007 355.901L206.722 357.065L202.023 376.717L201.737 377.881L197.028 397.513L196.753 398.677L192.033 418.318L191.758 419.493L187.143 438.733H185.937L190.562 419.493L190.847 418.318L195.557 398.677L195.832 397.513L200.541 377.881L200.816 376.717L205.536 357.065L205.822 355.901L210.352 336.979H211.547Z" fill="#EBEBEB"/>
<path d="M228.152 355.901L227.877 357.065H78.0238L78.299 355.901H228.152Z" fill="#EBEBEB"/>
<path d="M223.167 376.717L222.892 377.881H73.0287L73.3144 376.717H223.167Z" fill="#EBEBEB"/>
<path d="M218.183 397.513L217.897 398.677H68.0336L68.3194 397.513H218.183Z" fill="#EBEBEB"/>
<path d="M213.177 418.318L212.902 419.493H63.0385L63.3137 418.318H213.177Z" fill="#EBEBEB"/>
<path d="M97.0511 378.523L94.8033 380.338L107.848 396.493L110.095 394.677L97.0511 378.523Z" fill="#C7C7C7"/>
<path d="M110.332 378.365L92.2805 394.819L94.2267 396.954L112.278 380.5L110.332 378.365Z" fill="#C7C7C7"/>
<path d="M144.424 358.278L142.176 360.093L155.221 376.248L157.468 374.433L144.424 358.278Z" fill="#C7C7C7"/>
<path d="M157.71 358.127L139.659 374.581L141.605 376.716L159.657 360.262L157.71 358.127Z" fill="#C7C7C7"/>
<path d="M84.6593 376.357L79.1456 366.716L81.6537 365.277L85.1037 371.309L97.6761 356.144L99.8985 357.986L84.6593 376.357Z" fill="#353535"/>
<path d="M111.339 437.632L105.825 427.991L108.333 426.552L111.772 432.584L124.345 417.419L126.567 419.26L111.339 437.632Z" fill="#353535"/>
<path d="M187.207 378.76C184.534 380.229 182.071 382.052 179.884 384.178C177.767 386.295 175.915 388.866 175.65 391.755C175.541 392.428 175.572 393.116 175.739 393.777C175.907 394.438 176.208 395.057 176.624 395.597C177.6 396.61 178.857 397.307 180.233 397.597C183.131 398.205 186.132 398.129 188.995 397.375C191.893 396.759 194.612 395.489 196.943 393.66C198.074 392.754 199.013 391.632 199.705 390.358C200.393 389.136 200.692 387.733 200.562 386.337C200.442 385.652 200.184 384.999 199.804 384.417C199.424 383.835 198.929 383.336 198.351 382.95C197.135 382.108 195.765 381.515 194.319 381.204C191.353 380.506 188.263 380.538 185.313 381.3C188.242 380.228 191.401 379.936 194.477 380.453C196.057 380.71 197.568 381.282 198.922 382.136C199.635 382.58 200.253 383.161 200.74 383.846C201.227 384.531 201.573 385.306 201.758 386.125C202.009 387.792 201.704 389.496 200.891 390.972C200.139 392.418 199.106 393.698 197.853 394.74C195.357 396.736 192.447 398.152 189.335 398.884C186.223 399.617 182.987 399.647 179.862 398.973C178.233 398.591 176.757 397.724 175.629 396.486C175.085 395.808 174.72 395.004 174.571 394.147C174.444 393.323 174.444 392.484 174.571 391.66C175.058 388.369 177.164 385.734 179.45 383.691C181.777 381.673 184.391 380.011 187.207 378.76Z" fill="#353535"/>
<path d="M100.11 342.249H84.1936L84.6381 340.302H100.555L100.11 342.249Z" fill="#C7C7C7"/>
<path d="M92.7869 345.572H83.4316L83.8761 343.635H93.2313L92.7869 345.572Z" fill="#C7C7C7"/>
<path d="M164.803 403.397H155.12L155.564 401.46H165.248L164.803 403.397Z" fill="#C7C7C7"/>
<path d="M163.269 410.18H153.585L154.03 408.243H163.724L163.269 410.18Z" fill="#C7C7C7"/>
<path d="M169.534 406.73H154.347L154.802 404.783H169.978L169.534 406.73Z" fill="#C7C7C7"/>
<path d="M189.884 388.443H180.201L180.646 386.496H190.339L189.884 388.443Z" fill="#C7C7C7"/>
<path d="M194.615 391.766H179.429L179.884 389.829H195.059L194.615 391.766Z" fill="#C7C7C7"/>
<path d="M59.8319 352.525L69.1766 345.54C70.2269 344.757 70.9746 343.636 71.2931 342.365C71.4187 341.887 71.4431 341.388 71.3647 340.899C71.2864 340.411 71.107 339.944 70.8381 339.529C70.5209 339.079 70.0962 338.716 69.6027 338.472C69.1092 338.228 68.5626 338.111 68.0125 338.132C66.8676 338.132 65.7535 338.504 64.8376 339.191L63.864 339.921C63.8134 339.977 63.7514 340.023 63.6821 340.053C63.6128 340.084 63.5377 340.1 63.4618 340.1C63.3859 340.1 63.3109 340.084 63.2416 340.053C63.1723 340.023 63.1103 339.977 63.0597 339.921C63.02 339.854 62.9939 339.78 62.9831 339.704C62.9722 339.627 62.9768 339.549 62.9965 339.474C63.0162 339.399 63.0507 339.329 63.0979 339.268C63.1451 339.206 63.204 339.155 63.2714 339.116L64.245 338.354C65.396 337.483 66.7914 336.994 68.2347 336.958C68.9419 336.92 69.6469 337.066 70.2811 337.381C70.9152 337.696 71.4571 338.17 71.854 338.757C72.2022 339.284 72.4342 339.88 72.5345 340.504C72.6349 341.128 72.6013 341.766 72.4361 342.376C72.0258 343.987 71.0727 345.407 69.7375 346.397L61.7368 352.377H69.5576C69.6291 352.377 69.6997 352.394 69.7635 352.426C69.8273 352.458 69.8826 352.505 69.9249 352.563C69.9671 352.621 69.9952 352.688 70.0068 352.758C70.0183 352.829 70.0131 352.901 69.9915 352.969C69.9496 353.126 69.8597 353.265 69.7343 353.368C69.609 353.47 69.4546 353.531 69.293 353.541H59.9907C59.918 353.548 59.8447 353.536 59.7779 353.506C59.7111 353.477 59.6532 353.43 59.6097 353.372C59.5361 353.228 59.518 353.062 59.559 352.906C59.6 352.75 59.6972 352.614 59.8319 352.525Z" fill="#A6A6A6"/>
<path d="M55.2072 373.659C55.6809 371.521 56.6731 369.533 58.0964 367.87C58.6737 367.157 59.3898 366.57 60.2011 366.142C61.0125 365.715 61.9022 365.456 62.8163 365.383C63.5899 365.394 64.3424 365.637 64.9764 366.08C65.6104 366.523 66.0966 367.147 66.3721 367.87C67.0629 369.724 67.1591 371.747 66.6473 373.659C66.1574 375.795 65.1467 377.776 63.7053 379.426C63.1351 380.141 62.4253 380.732 61.6193 381.163C60.8133 381.594 59.9279 381.857 59.0171 381.935C58.2406 381.924 57.4856 381.678 56.8511 381.231C56.2165 380.783 55.7321 380.154 55.4612 379.426C54.7728 377.578 54.6839 375.56 55.2072 373.659ZM56.3714 373.659C55.9052 375.349 55.9755 377.143 56.5724 378.791C56.7738 379.358 57.1409 379.85 57.626 380.205C58.111 380.56 58.6916 380.761 59.2922 380.781C60.0005 380.705 60.6861 380.487 61.3081 380.14C61.93 379.792 62.4754 379.323 62.9115 378.76C64.1791 377.296 65.0692 375.545 65.5043 373.659C65.9569 371.964 65.8718 370.17 65.2609 368.526C65.0692 367.956 64.7061 367.459 64.2212 367.103C63.7363 366.746 63.1532 366.549 62.5517 366.537C61.8415 366.597 61.1519 366.806 60.5268 367.148C59.9018 367.491 59.3551 367.96 58.9218 368.526C57.6631 370.002 56.7872 371.764 56.3714 373.659Z" fill="#A6A6A6"/>
<path d="M46.7198 409.323L56.0644 402.338C57.1148 401.556 57.8625 400.434 58.181 399.163C58.3066 398.685 58.331 398.186 58.2526 397.697C58.1742 397.209 57.9949 396.742 57.7259 396.327C57.4089 395.883 56.9869 395.524 56.4977 395.282C56.0084 395.04 55.467 394.923 54.9215 394.941C53.7766 394.941 52.6626 395.312 51.7466 395.999L50.773 396.729C50.7224 396.786 50.6604 396.831 50.5911 396.862C50.5218 396.893 50.4468 396.909 50.3709 396.909C50.295 396.909 50.2199 396.893 50.1506 396.862C50.0813 396.831 50.0193 396.786 49.9687 396.729C49.929 396.663 49.9029 396.589 49.8921 396.512C49.8812 396.436 49.8858 396.358 49.9055 396.283C49.9252 396.208 49.9597 396.138 50.0069 396.076C50.0541 396.015 50.1131 395.963 50.1804 395.925L51.154 395.163C52.305 394.292 53.7004 393.803 55.1437 393.766C55.8402 393.735 56.5331 393.882 57.1571 394.193C57.781 394.505 58.3155 394.969 58.7101 395.544C59.0583 396.072 59.2903 396.667 59.3907 397.291C59.491 397.915 59.4574 398.553 59.2922 399.163C58.8819 400.774 57.9288 402.195 56.5936 403.185L48.5824 409.164H56.4137C56.4852 409.164 56.5558 409.181 56.6196 409.213C56.6834 409.246 56.7387 409.293 56.781 409.35C56.8232 409.408 56.8513 409.475 56.8629 409.546C56.8744 409.616 56.8692 409.689 56.8476 409.757C56.8057 409.913 56.7158 410.053 56.5904 410.155C56.4651 410.258 56.3107 410.318 56.1491 410.328H46.8785C46.8058 410.335 46.7325 410.323 46.6657 410.294C46.599 410.264 46.541 410.218 46.4975 410.159C46.4269 410.016 46.4105 409.853 46.4514 409.699C46.4923 409.545 46.5877 409.412 46.7198 409.323Z" fill="#A6A6A6"/>
<path d="M42.0951 430.457C42.578 428.316 43.5813 426.328 45.016 424.668C45.5905 423.95 46.3052 423.356 47.1167 422.923C47.9282 422.49 48.8194 422.227 49.7359 422.149C50.5095 422.16 51.2621 422.403 51.896 422.846C52.53 423.29 53.0163 423.913 53.2917 424.636C53.977 426.492 54.0731 428.513 53.5669 430.425C53.0725 432.559 52.0623 434.54 50.6249 436.193C50.0511 436.911 49.3363 437.504 48.5245 437.935C47.7128 438.367 46.8212 438.627 45.9049 438.701C45.1281 438.691 44.3725 438.447 43.7377 437.999C43.1028 437.551 42.6187 436.921 42.3491 436.193C41.6674 434.354 41.5786 432.348 42.0951 430.457ZM43.2592 430.457C42.7931 432.147 42.8634 433.941 43.4603 435.59C43.6642 436.154 44.0319 436.645 44.5164 437C45.0009 437.354 45.5802 437.556 46.1801 437.579C46.8859 437.507 47.5701 437.294 48.1919 436.952C48.8137 436.61 49.3603 436.147 49.7994 435.59C51.0797 434.121 51.9744 432.357 52.4028 430.457C52.8673 428.764 52.7858 426.968 52.17 425.324C51.9783 424.754 51.6151 424.257 51.1302 423.901C50.6453 423.545 50.0623 423.347 49.4608 423.335C48.7506 423.395 48.0609 423.604 47.4359 423.946C46.8108 424.289 46.2642 424.758 45.8309 425.324C44.5722 426.8 43.6962 428.563 43.2804 430.457H43.2592Z" fill="#A6A6A6"/>
<path d="M235.316 332.968C235.316 332.968 230.787 352.599 228.872 360.917C226.956 369.235 219.061 374.527 219.061 374.527H175.83C175.83 374.527 183.524 365.372 185.09 358.578L191.006 332.968H235.316Z" fill="#353535"/>
<path d="M197.208 347.286L194.943 349.668C194.9 349.717 194.839 349.747 194.774 349.752C194.745 349.754 194.716 349.747 194.691 349.732C194.666 349.717 194.647 349.694 194.636 349.668L193.472 347.297L192.414 351.689C192.4 351.738 192.372 351.783 192.332 351.815C192.292 351.847 192.243 351.866 192.191 351.869C192.168 351.872 192.145 351.869 192.123 351.86C192.102 351.852 192.082 351.838 192.068 351.82C192.053 351.802 192.043 351.78 192.039 351.757C192.034 351.735 192.036 351.711 192.043 351.689L193.186 346.736C193.192 346.705 193.205 346.676 193.223 346.651C193.241 346.625 193.265 346.604 193.292 346.588C193.308 346.572 193.327 346.559 193.348 346.55C193.369 346.541 193.391 346.536 193.414 346.536C193.436 346.536 193.459 346.541 193.48 346.55C193.501 346.559 193.52 346.572 193.535 346.588L194.837 349.223L197.335 346.588C197.373 346.555 197.422 346.537 197.472 346.537C197.523 346.537 197.571 346.555 197.61 346.588C197.615 346.609 197.615 346.631 197.61 346.651C197.615 346.683 197.615 346.715 197.61 346.747L196.467 351.699C196.454 351.749 196.425 351.793 196.385 351.825C196.345 351.858 196.296 351.877 196.245 351.879C196.222 351.88 196.2 351.876 196.18 351.867C196.16 351.857 196.142 351.843 196.129 351.826C196.115 351.808 196.106 351.787 196.102 351.765C196.099 351.743 196.1 351.721 196.107 351.699L197.208 347.286Z" fill="black"/>
<path d="M199.282 346.704C199.297 346.654 199.328 346.609 199.37 346.577C199.411 346.545 199.462 346.527 199.515 346.524H202.266C202.289 346.523 202.311 346.528 202.331 346.537C202.351 346.546 202.369 346.561 202.382 346.578C202.396 346.596 202.405 346.617 202.409 346.639C202.412 346.661 202.411 346.683 202.404 346.704C202.392 346.758 202.363 346.805 202.32 346.84C202.278 346.874 202.226 346.894 202.171 346.895H199.61L199.123 349.011H201.367C201.389 349.012 201.412 349.018 201.432 349.029C201.452 349.039 201.469 349.054 201.482 349.073C201.496 349.091 201.505 349.112 201.508 349.135C201.512 349.157 201.511 349.18 201.504 349.202C201.493 349.253 201.465 349.3 201.425 349.334C201.385 349.369 201.335 349.389 201.282 349.392H199.039L198.552 351.509H201.113C201.136 351.507 201.16 351.511 201.181 351.521C201.203 351.531 201.221 351.546 201.235 351.566C201.249 351.585 201.258 351.607 201.26 351.631C201.263 351.654 201.259 351.678 201.25 351.699C201.239 351.75 201.21 351.795 201.17 351.828C201.13 351.86 201.08 351.878 201.028 351.879H198.255C198.234 351.879 198.213 351.873 198.194 351.863C198.175 351.853 198.159 351.839 198.147 351.821C198.135 351.804 198.126 351.784 198.123 351.762C198.12 351.741 198.122 351.72 198.128 351.699L199.282 346.704Z" fill="black"/>
<path d="M203.822 346.704C203.835 346.655 203.864 346.611 203.904 346.578C203.944 346.546 203.993 346.527 204.044 346.524H206.796C206.818 346.524 206.84 346.529 206.861 346.538C206.881 346.547 206.899 346.561 206.914 346.578C206.928 346.596 206.938 346.616 206.943 346.638C206.948 346.66 206.949 346.682 206.944 346.704C206.93 346.757 206.901 346.803 206.859 346.838C206.817 346.872 206.765 346.892 206.711 346.895H204.139L203.653 349.011H205.896C205.919 349.012 205.941 349.018 205.961 349.029C205.981 349.039 205.999 349.054 206.012 349.073C206.025 349.091 206.034 349.112 206.038 349.135C206.042 349.157 206.04 349.18 206.034 349.202C206.022 349.255 205.992 349.303 205.95 349.337C205.908 349.372 205.855 349.391 205.801 349.392H203.568L203.081 351.509H205.642C205.748 351.509 205.801 351.594 205.78 351.699C205.766 351.751 205.736 351.796 205.694 351.829C205.652 351.861 205.6 351.879 205.547 351.879H202.785C202.763 351.879 202.743 351.873 202.724 351.863C202.705 351.853 202.689 351.839 202.676 351.821C202.664 351.804 202.656 351.784 202.653 351.762C202.649 351.741 202.651 351.72 202.658 351.699L203.822 346.704Z" fill="black"/>
<path d="M209.695 346.895H208.087C208.063 346.896 208.04 346.891 208.018 346.881C207.997 346.871 207.978 346.856 207.964 346.838C207.949 346.819 207.939 346.797 207.935 346.774C207.931 346.751 207.932 346.727 207.939 346.704C207.955 346.655 207.986 346.611 208.028 346.579C208.069 346.547 208.119 346.528 208.171 346.524H211.759C211.781 346.524 211.804 346.529 211.824 346.538C211.845 346.547 211.863 346.561 211.877 346.578C211.891 346.596 211.901 346.616 211.907 346.638C211.912 346.66 211.912 346.682 211.907 346.704C211.894 346.757 211.864 346.803 211.822 346.838C211.78 346.872 211.728 346.892 211.674 346.895H210.066L209.008 351.689C208.994 351.738 208.966 351.783 208.926 351.815C208.886 351.847 208.837 351.866 208.785 351.869C208.763 351.869 208.741 351.865 208.72 351.855C208.7 351.846 208.682 351.832 208.667 351.815C208.653 351.798 208.643 351.777 208.638 351.755C208.633 351.734 208.632 351.711 208.637 351.689L209.695 346.895Z" fill="black"/>
<path d="M213.368 346.704C213.381 346.655 213.41 346.611 213.45 346.578C213.49 346.546 213.539 346.527 213.59 346.524C213.612 346.524 213.635 346.529 213.655 346.538C213.675 346.547 213.693 346.561 213.708 346.578C213.722 346.596 213.732 346.616 213.737 346.638C213.743 346.66 213.743 346.682 213.738 346.704L212.606 351.689C212.588 351.74 212.556 351.785 212.512 351.817C212.469 351.849 212.416 351.867 212.362 351.869C212.34 351.87 212.318 351.866 212.298 351.856C212.277 351.847 212.26 351.833 212.246 351.815C212.233 351.797 212.224 351.777 212.22 351.755C212.216 351.733 212.218 351.71 212.225 351.689L213.368 346.704Z" fill="black"/>
<path d="M215.897 347.308L214.839 351.689C214.825 351.738 214.797 351.783 214.757 351.815C214.717 351.847 214.668 351.866 214.616 351.869C214.594 351.87 214.572 351.866 214.552 351.856C214.532 351.847 214.514 351.833 214.5 351.815C214.487 351.797 214.478 351.777 214.474 351.755C214.47 351.733 214.472 351.71 214.479 351.689L215.611 346.778C215.609 346.737 215.619 346.696 215.639 346.66C215.66 346.625 215.691 346.596 215.728 346.577C215.823 346.577 215.939 346.577 215.971 346.577L218.183 351.075L219.188 346.715C219.202 346.665 219.23 346.621 219.27 346.589C219.31 346.557 219.359 346.538 219.41 346.535C219.433 346.534 219.455 346.539 219.476 346.548C219.496 346.558 219.514 346.572 219.528 346.589C219.543 346.606 219.553 346.627 219.558 346.648C219.563 346.67 219.563 346.693 219.559 346.715L218.416 351.647C218.4 351.697 218.37 351.741 218.328 351.774C218.286 351.806 218.236 351.824 218.183 351.826C218.158 351.827 218.133 351.822 218.111 351.811C218.089 351.8 218.07 351.783 218.056 351.763L215.897 347.308Z" fill="black"/>
<path d="M223.019 349.466C222.996 349.469 222.973 349.466 222.951 349.458C222.929 349.449 222.91 349.435 222.895 349.417C222.881 349.399 222.871 349.378 222.866 349.355C222.862 349.332 222.864 349.309 222.871 349.287C222.883 349.232 222.914 349.182 222.959 349.148C223.003 349.113 223.058 349.095 223.114 349.096H224.787C224.808 349.098 224.829 349.105 224.848 349.116C224.867 349.127 224.882 349.143 224.894 349.161C224.905 349.18 224.912 349.201 224.913 349.223C224.915 349.245 224.911 349.266 224.903 349.287L224.48 351.117C224.46 351.173 224.423 351.222 224.374 351.255C223.823 351.627 223.176 351.829 222.511 351.837C222.174 351.851 221.839 351.784 221.533 351.643C221.227 351.501 220.96 351.288 220.753 351.022C220.545 350.756 220.405 350.444 220.343 350.113C220.28 349.782 220.298 349.44 220.395 349.117C220.597 348.361 221.038 347.69 221.652 347.203C222.265 346.717 223.02 346.442 223.802 346.419C224.094 346.41 224.384 346.458 224.656 346.562C224.929 346.665 225.178 346.822 225.39 347.022C225.423 347.056 225.442 347.101 225.442 347.149C225.442 347.196 225.423 347.242 225.39 347.276C225.351 347.309 225.303 347.327 225.252 347.327C225.202 347.327 225.153 347.309 225.115 347.276C224.931 347.103 224.715 346.968 224.478 346.879C224.242 346.79 223.991 346.749 223.739 346.757C223.065 346.782 222.416 347.022 221.887 347.44C221.358 347.859 220.976 348.435 220.797 349.085C220.713 349.367 220.698 349.665 220.754 349.954C220.81 350.243 220.934 350.514 221.117 350.745C221.3 350.975 221.535 351.158 221.804 351.278C222.072 351.398 222.366 351.452 222.659 351.435C223.199 351.424 223.726 351.267 224.183 350.98L224.543 349.403L223.019 349.466Z" fill="black"/>
<path d="M190.043 356.239L189.186 356.684C189.151 356.693 189.115 356.693 189.08 356.684C189.051 356.686 189.022 356.679 188.998 356.664C188.973 356.649 188.954 356.626 188.942 356.599C188.926 356.549 188.93 356.494 188.953 356.446C188.977 356.398 189.019 356.362 189.069 356.345L190.244 355.71C190.265 355.699 190.288 355.692 190.311 355.69C190.335 355.688 190.359 355.69 190.381 355.697C190.404 355.704 190.425 355.715 190.443 355.73C190.461 355.745 190.476 355.764 190.488 355.784C190.503 355.829 190.503 355.877 190.488 355.922L189.323 360.864C189.31 360.917 189.28 360.963 189.238 360.998C189.196 361.032 189.145 361.052 189.091 361.055C189.068 361.054 189.046 361.048 189.026 361.037C189.006 361.027 188.988 361.012 188.975 360.993C188.962 360.975 188.953 360.954 188.949 360.931C188.945 360.909 188.947 360.886 188.953 360.864L190.043 356.239Z" fill="black"/>
<path d="M195.017 356.038L193.303 357.456C193.621 357.522 193.906 357.698 194.107 357.954C194.237 358.137 194.326 358.347 194.366 358.568C194.406 358.79 194.397 359.017 194.34 359.234C194.205 359.735 193.915 360.181 193.512 360.508C193.11 360.834 192.614 361.026 192.096 361.055C191.875 361.061 191.656 361.015 191.455 360.922C191.255 360.828 191.08 360.689 190.943 360.515C190.879 360.451 190.943 360.324 191.006 360.25C191.023 360.232 191.043 360.217 191.066 360.208C191.089 360.198 191.114 360.192 191.138 360.192C191.163 360.192 191.188 360.198 191.211 360.208C191.233 360.217 191.254 360.232 191.271 360.25C191.382 360.385 191.523 360.492 191.683 360.564C191.843 360.635 192.017 360.669 192.191 360.663C192.579 360.641 192.95 360.497 193.25 360.25C193.583 359.983 193.815 359.61 193.906 359.192C193.954 359.021 193.961 358.841 193.928 358.667C193.895 358.493 193.822 358.328 193.715 358.187C193.611 358.046 193.472 357.934 193.314 357.86C193.155 357.786 192.98 357.753 192.805 357.763C192.778 357.763 192.751 357.756 192.727 357.743C192.703 357.73 192.683 357.712 192.668 357.689C192.642 357.644 192.635 357.59 192.647 357.54C192.658 357.489 192.689 357.444 192.731 357.414L194.382 356.038H192.329C192.305 356.039 192.282 356.035 192.26 356.025C192.239 356.015 192.22 356 192.206 355.981C192.191 355.963 192.181 355.941 192.177 355.918C192.173 355.894 192.174 355.871 192.181 355.848C192.196 355.795 192.228 355.748 192.272 355.713C192.315 355.679 192.369 355.66 192.424 355.657H194.922C194.945 355.656 194.969 355.661 194.99 355.671C195.012 355.681 195.03 355.696 195.045 355.714C195.059 355.733 195.069 355.755 195.074 355.778C195.078 355.801 195.077 355.825 195.07 355.848C195.076 355.876 195.076 355.905 195.07 355.933L195.017 356.038Z" fill="black"/>
<path d="M197.705 357.488C197.691 357.538 197.662 357.583 197.623 357.617C197.583 357.651 197.535 357.672 197.483 357.679H196.996L196.372 360.398C196.364 360.431 196.363 360.465 196.37 360.497C196.377 360.53 196.391 360.561 196.411 360.587C196.432 360.613 196.458 360.635 196.487 360.65C196.517 360.665 196.55 360.673 196.583 360.674C196.606 360.675 196.629 360.681 196.649 360.691C196.669 360.702 196.687 360.717 196.701 360.735C196.715 360.753 196.725 360.774 196.731 360.796C196.736 360.818 196.736 360.842 196.731 360.864C196.714 360.914 196.683 360.959 196.642 360.993C196.601 361.026 196.551 361.048 196.499 361.055C196.417 361.061 196.334 361.046 196.259 361.013C196.184 360.98 196.119 360.928 196.068 360.863C196.018 360.798 195.985 360.722 195.971 360.641C195.957 360.559 195.964 360.476 195.991 360.398L196.615 357.679H196.149C195.969 357.679 195.991 357.583 196.012 357.488C196.013 357.461 196.02 357.435 196.032 357.411C196.044 357.386 196.061 357.365 196.082 357.348C196.103 357.331 196.128 357.319 196.154 357.312C196.18 357.305 196.207 357.304 196.234 357.308H196.731L197.06 355.911C197.075 355.863 197.105 355.821 197.144 355.789C197.184 355.757 197.231 355.737 197.282 355.731C197.305 355.731 197.327 355.736 197.348 355.745C197.369 355.754 197.387 355.768 197.402 355.785C197.417 355.802 197.428 355.822 197.435 355.844C197.442 355.866 197.444 355.889 197.44 355.911L197.112 357.308H197.599C197.637 357.318 197.669 357.343 197.689 357.376C197.709 357.41 197.715 357.45 197.705 357.488Z" fill="black"/>
<path d="M201.758 358.779C201.792 358.645 201.792 358.504 201.759 358.37C201.726 358.235 201.662 358.11 201.57 358.006C201.478 357.902 201.363 357.822 201.234 357.772C201.104 357.723 200.965 357.705 200.827 357.721C200.504 357.715 200.188 357.815 199.928 358.007C199.668 358.198 199.478 358.469 199.388 358.779L198.901 360.896C198.887 360.921 198.867 360.943 198.843 360.959C198.819 360.976 198.792 360.987 198.763 360.991C198.738 360.993 198.713 360.988 198.691 360.977C198.669 360.966 198.65 360.949 198.636 360.928C198.632 360.907 198.632 360.885 198.636 360.864C198.632 360.843 198.632 360.822 198.636 360.801L199.113 358.684V358.621L199.758 355.784C199.775 355.735 199.806 355.691 199.847 355.659C199.889 355.627 199.939 355.608 199.991 355.604C200.013 355.604 200.036 355.609 200.056 355.618C200.076 355.627 200.095 355.641 200.109 355.658C200.123 355.676 200.133 355.696 200.138 355.718C200.144 355.74 200.144 355.762 200.139 355.784L199.684 357.763C200.037 357.422 200.505 357.225 200.996 357.213C201.185 357.193 201.375 357.22 201.55 357.291C201.726 357.363 201.881 357.476 202.002 357.621C202.124 357.767 202.207 357.94 202.246 358.125C202.285 358.31 202.277 358.502 202.224 358.684L201.737 360.801C201.725 360.854 201.696 360.902 201.654 360.936C201.611 360.971 201.559 360.99 201.504 360.991C201.482 360.99 201.459 360.985 201.439 360.974C201.419 360.963 201.402 360.948 201.389 360.93C201.375 360.911 201.366 360.89 201.363 360.868C201.359 360.845 201.36 360.822 201.367 360.801L201.758 358.779Z" fill="black"/>
<path d="M203.579 358.388C203.588 358.348 203.611 358.312 203.644 358.287C203.677 358.262 203.717 358.249 203.758 358.25H205.388C205.405 358.25 205.423 358.253 205.438 358.261C205.454 358.268 205.468 358.278 205.479 358.291C205.49 358.305 205.498 358.32 205.503 358.337C205.507 358.353 205.508 358.371 205.505 358.388C205.496 358.43 205.473 358.468 205.441 358.497C205.409 358.526 205.368 358.543 205.325 358.547H203.695C203.675 358.548 203.656 358.544 203.638 358.536C203.62 358.528 203.605 358.515 203.593 358.499C203.581 358.483 203.574 358.465 203.571 358.445C203.569 358.426 203.571 358.406 203.579 358.388Z" fill="black"/>
<path d="M207.759 356.239L206.902 356.684C206.867 356.693 206.83 356.693 206.796 356.684C206.767 356.686 206.738 356.679 206.713 356.664C206.688 356.649 206.669 356.626 206.658 356.599C206.641 356.549 206.645 356.494 206.669 356.446C206.693 356.398 206.735 356.362 206.785 356.345L207.96 355.71C207.981 355.699 208.004 355.692 208.027 355.69C208.051 355.688 208.074 355.69 208.097 355.697C208.119 355.704 208.141 355.715 208.159 355.73C208.177 355.745 208.192 355.764 208.203 355.784C208.214 355.83 208.214 355.877 208.203 355.922L207.071 360.832C207.057 360.885 207.028 360.932 206.986 360.966C206.944 361 206.892 361.02 206.838 361.023C206.815 361.022 206.793 361.016 206.773 361.006C206.753 360.995 206.736 360.98 206.722 360.962C206.709 360.943 206.7 360.922 206.696 360.9C206.693 360.877 206.694 360.854 206.7 360.832L207.759 356.239Z" fill="black"/>
<path d="M209.029 358.377C209.188 357.686 209.511 357.044 209.971 356.504C210.157 356.274 210.389 356.085 210.651 355.947C210.912 355.808 211.199 355.724 211.495 355.7C211.742 355.712 211.98 355.798 212.179 355.947C212.377 356.096 212.525 356.301 212.606 356.536C212.825 357.136 212.859 357.789 212.701 358.409C212.541 359.098 212.214 359.738 211.749 360.271C211.563 360.504 211.333 360.696 211.071 360.836C210.809 360.977 210.521 361.062 210.225 361.086C209.972 361.086 209.725 361.007 209.519 360.861C209.312 360.716 209.156 360.51 209.071 360.271C208.859 359.66 208.844 358.997 209.029 358.377ZM209.41 358.377C209.255 358.924 209.277 359.505 209.473 360.039C209.539 360.22 209.658 360.378 209.815 360.491C209.971 360.605 210.158 360.668 210.352 360.674C210.58 360.651 210.801 360.583 211.003 360.474C211.205 360.365 211.382 360.217 211.526 360.039C211.938 359.563 212.226 358.992 212.362 358.377C212.515 357.83 212.489 357.248 212.288 356.716C212.225 356.532 212.107 356.373 211.95 356.259C211.792 356.146 211.604 356.083 211.41 356.081C211.181 356.099 210.958 356.165 210.755 356.274C210.553 356.383 210.376 356.534 210.235 356.716C209.834 357.194 209.557 357.765 209.431 358.377H209.41Z" fill="black"/>
<path d="M217.389 359.711H214.955L214.183 360.97C214.162 361.006 214.133 361.036 214.098 361.058C214.063 361.081 214.023 361.094 213.981 361.097H213.918C213.896 361.086 213.878 361.071 213.863 361.052C213.848 361.033 213.838 361.011 213.833 360.988C213.827 360.965 213.828 360.94 213.833 360.917C213.839 360.894 213.85 360.872 213.865 360.854L216.871 355.89C216.895 355.856 216.926 355.828 216.963 355.808C217 355.787 217.04 355.776 217.082 355.774C217.156 355.774 217.23 355.774 217.23 355.89L217.95 360.854C217.95 360.905 217.935 360.956 217.907 360.999C217.879 361.042 217.839 361.076 217.791 361.097H217.717C217.682 361.094 217.65 361.08 217.623 361.057C217.596 361.034 217.578 361.004 217.569 360.97L217.389 359.711ZM215.177 359.34H217.294L216.881 356.462L215.177 359.34Z" fill="black"/>
<path d="M224.247 356.462L221.993 358.843C221.971 358.869 221.943 358.891 221.912 358.905C221.881 358.92 221.847 358.928 221.813 358.927C221.739 358.927 221.696 358.927 221.675 358.843L220.5 356.472L219.495 360.864C219.482 360.917 219.452 360.963 219.41 360.998C219.368 361.032 219.316 361.052 219.262 361.055C219.239 361.056 219.215 361.051 219.194 361.041C219.172 361.031 219.154 361.016 219.139 360.998C219.125 360.979 219.115 360.957 219.11 360.934C219.106 360.911 219.107 360.887 219.114 360.864L220.257 355.911C220.281 355.855 220.321 355.806 220.373 355.774C220.393 355.76 220.416 355.751 220.44 355.746C220.464 355.741 220.488 355.741 220.512 355.746C220.535 355.751 220.558 355.761 220.578 355.775C220.598 355.788 220.615 355.806 220.627 355.827L221.919 358.462L224.427 355.827C224.456 355.787 224.5 355.759 224.549 355.749C224.598 355.74 224.648 355.748 224.691 355.774C224.694 355.795 224.694 355.816 224.691 355.837C224.702 355.868 224.702 355.902 224.691 355.933L223.548 360.885C223.537 360.937 223.509 360.983 223.469 361.018C223.429 361.052 223.379 361.072 223.326 361.076C223.303 361.077 223.279 361.072 223.258 361.062C223.236 361.052 223.217 361.037 223.203 361.019C223.188 361 223.179 360.978 223.174 360.955C223.17 360.932 223.171 360.908 223.178 360.885L224.247 356.462Z" fill="black"/>
<path d="M64.5519 319.263C63.8004 319.242 63.0618 319.063 62.3837 318.739C61.7056 318.414 61.1031 317.951 60.615 317.379C59.5568 316.162 58.0646 313.368 59.5568 308.299C60.9643 303.653 64.3402 301.738 66.9647 302.235C68.9755 302.616 71.1979 304.659 70.8063 309.156C70.7958 309.325 70.7514 309.489 70.6759 309.639C70.6003 309.789 70.4951 309.923 70.3666 310.032C70.2381 310.141 70.0889 310.222 69.9281 310.272C69.7672 310.321 69.598 310.338 69.4305 310.321C69.0935 310.288 68.7826 310.125 68.5648 309.866C68.3471 309.606 68.2399 309.272 68.2664 308.934C68.4675 306.595 67.7796 304.987 66.4885 304.701C65.0281 304.426 62.9539 305.833 62.0014 308.998C61.1336 311.887 61.3135 314.289 62.52 315.676C62.7729 316.01 63.1012 316.28 63.4781 316.464C63.8551 316.648 64.2701 316.74 64.6894 316.734C64.8619 316.696 65.0403 316.695 65.2135 316.729C65.3866 316.764 65.5507 316.834 65.6955 316.935C65.8403 317.036 65.9626 317.166 66.0548 317.316C66.147 317.467 66.207 317.635 66.2312 317.81C66.2553 317.985 66.243 318.163 66.1951 318.332C66.1472 318.502 66.0646 318.661 65.9526 318.797C65.8406 318.934 65.7016 319.045 65.5444 319.126C65.3871 319.206 65.2149 319.253 65.0387 319.263C64.8765 319.272 64.714 319.272 64.5519 319.263Z" fill="#A6A6A6"/>
<path d="M80.3203 319.263C79.5614 319.249 78.8142 319.074 78.1282 318.749C77.4422 318.424 76.833 317.957 76.3411 317.379C75.2829 316.162 73.7907 313.368 75.2829 308.299C76.6798 303.653 80.0663 301.738 82.6908 302.235C84.7016 302.616 86.924 304.659 86.5324 309.156C86.5205 309.324 86.4752 309.487 86.3991 309.637C86.3231 309.787 86.2179 309.92 86.0897 310.028C85.9615 310.137 85.8129 310.219 85.6527 310.269C85.4925 310.319 85.3238 310.337 85.1566 310.321C84.8213 310.281 84.515 310.111 84.3033 309.848C84.0916 309.585 83.9915 309.249 84.0243 308.913C84.2254 306.574 83.5375 304.966 82.2464 304.68C80.7754 304.405 78.7117 305.812 77.7592 308.977C76.8809 311.866 77.0714 314.268 78.2778 315.654C78.5307 315.989 78.859 316.259 79.236 316.443C79.6129 316.627 80.0279 316.719 80.4473 316.713C80.6198 316.675 80.7982 316.673 80.9713 316.708C81.1444 316.743 81.3085 316.812 81.4533 316.914C81.5981 317.015 81.7204 317.144 81.8126 317.295C81.9048 317.446 81.9649 317.614 81.989 317.788C82.0132 317.963 82.0009 318.141 81.9529 318.311C81.905 318.481 81.8225 318.639 81.7105 318.776C81.5985 318.912 81.4595 319.024 81.3022 319.104C81.1449 319.185 80.9728 319.231 80.7965 319.242C80.6383 319.258 80.4793 319.265 80.3203 319.263Z" fill="#A6A6A6"/>
<path d="M95.9935 319.263C95.2436 319.242 94.5066 319.063 93.8302 318.738C93.1539 318.414 92.5532 317.951 92.0672 317.379C91.009 316.162 89.5168 313.368 91.009 308.299C92.4059 303.653 95.7924 301.738 98.4169 302.235C100.428 302.616 102.65 304.659 102.259 309.156C102.247 309.324 102.201 309.487 102.125 309.637C102.049 309.787 101.944 309.92 101.816 310.028C101.688 310.137 101.539 310.219 101.379 310.269C101.219 310.319 101.05 310.337 100.883 310.321C100.545 310.291 100.232 310.128 100.014 309.868C99.7954 309.608 99.6893 309.272 99.7186 308.934C99.9197 306.595 99.2318 304.987 97.9301 304.701C96.6285 304.415 94.4061 305.833 93.4536 308.998C92.5752 311.887 92.7657 314.289 93.9722 315.676C94.2197 316.003 94.5395 316.269 94.9066 316.452C95.2738 316.636 95.6783 316.732 96.0887 316.734C96.2612 316.696 96.4396 316.695 96.6128 316.729C96.7859 316.764 96.95 316.834 97.0948 316.935C97.2396 317.036 97.3619 317.166 97.4541 317.316C97.5463 317.467 97.6063 317.635 97.6305 317.81C97.6546 317.985 97.6423 318.163 97.5944 318.332C97.5465 318.502 97.4639 318.661 97.3519 318.797C97.2399 318.934 97.1009 319.045 96.9436 319.126C96.7864 319.206 96.6142 319.253 96.438 319.263C96.2899 319.271 96.1415 319.271 95.9935 319.263Z" fill="#A6A6A6"/>
<path d="M111.72 319.263C110.976 319.24 110.246 319.06 109.577 318.735C108.908 318.411 108.314 317.949 107.836 317.379C106.777 316.162 105.275 313.368 106.777 308.299C108.174 303.653 111.561 301.738 114.185 302.235C116.196 302.616 118.418 304.659 118.038 309.156C118.023 309.323 117.976 309.485 117.898 309.634C117.821 309.782 117.715 309.914 117.587 310.022C117.459 310.13 117.311 310.211 117.151 310.261C116.991 310.311 116.823 310.33 116.656 310.315C116.49 310.301 116.327 310.253 116.179 310.176C116.03 310.099 115.899 309.993 115.791 309.865C115.683 309.737 115.602 309.588 115.552 309.429C115.501 309.269 115.483 309.101 115.498 308.934C115.688 306.595 115.011 304.987 113.709 304.701C112.407 304.415 110.185 305.833 109.233 308.998C108.354 311.887 108.545 314.289 109.751 315.676C109.998 316.003 110.318 316.27 110.685 316.453C111.052 316.637 111.457 316.733 111.868 316.734C112.04 316.696 112.219 316.695 112.392 316.729C112.565 316.764 112.729 316.834 112.874 316.935C113.019 317.036 113.141 317.166 113.233 317.316C113.325 317.467 113.385 317.635 113.409 317.81C113.434 317.985 113.421 318.163 113.373 318.332C113.325 318.502 113.243 318.661 113.131 318.797C113.019 318.934 112.88 319.045 112.723 319.126C112.565 319.206 112.393 319.253 112.217 319.263C112.051 319.272 111.885 319.272 111.72 319.263Z" fill="#A6A6A6"/>
<path d="M127.446 319.263C126.69 319.235 125.949 319.048 125.271 318.715C124.592 318.381 123.992 317.908 123.509 317.326C122.451 316.109 120.958 313.316 122.451 308.246C123.847 303.6 127.234 301.685 129.859 302.182C131.869 302.563 134.092 304.606 133.711 309.104C133.696 309.27 133.649 309.433 133.571 309.581C133.494 309.73 133.388 309.861 133.26 309.969C133.132 310.077 132.984 310.158 132.824 310.208C132.664 310.259 132.496 310.277 132.33 310.262C132.163 310.248 132.001 310.2 131.852 310.123C131.704 310.046 131.572 309.94 131.464 309.812C131.357 309.684 131.275 309.535 131.225 309.376C131.175 309.216 131.156 309.048 131.171 308.881C131.361 306.543 130.684 304.934 129.382 304.648C128.081 304.362 125.858 305.781 124.906 308.945C124.027 311.834 124.207 314.236 125.424 315.623C125.671 315.951 125.99 316.218 126.358 316.402C126.725 316.585 127.13 316.681 127.541 316.681C127.713 316.643 127.892 316.642 128.065 316.676C128.238 316.711 128.402 316.781 128.547 316.882C128.692 316.983 128.814 317.113 128.906 317.263C128.998 317.414 129.058 317.582 129.083 317.757C129.107 317.932 129.094 318.11 129.047 318.28C128.999 318.449 128.916 318.608 128.804 318.744C128.692 318.881 128.553 318.992 128.396 319.073C128.239 319.153 128.066 319.2 127.89 319.21C127.743 319.235 127.595 319.253 127.446 319.263Z" fill="#A6A6A6"/>
<path d="M143.172 319.263C142.416 319.235 141.675 319.048 140.997 318.715C140.318 318.381 139.718 317.908 139.235 317.326C138.177 316.109 136.684 313.316 138.177 308.246C139.574 303.6 142.96 301.685 145.585 302.182C147.595 302.563 149.818 304.606 149.437 309.104C149.423 309.271 149.377 309.435 149.3 309.585C149.223 309.735 149.116 309.868 148.987 309.976C148.858 310.084 148.709 310.166 148.548 310.216C148.387 310.266 148.218 310.284 148.05 310.268C147.713 310.235 147.402 310.072 147.185 309.813C146.967 309.553 146.86 309.219 146.886 308.881C147.087 306.543 146.41 304.934 145.108 304.648C143.648 304.373 141.574 305.781 140.621 308.945C139.753 311.834 139.933 314.236 141.14 315.623C141.393 315.957 141.722 316.226 142.099 316.41C142.475 316.594 142.89 316.687 143.309 316.681C143.631 316.662 143.948 316.765 144.198 316.969C144.447 317.174 144.61 317.465 144.654 317.784C144.698 318.103 144.62 318.428 144.435 318.692C144.251 318.956 143.974 319.141 143.659 319.21C143.497 319.237 143.335 319.255 143.172 319.263Z" fill="#A6A6A6"/>
<path d="M158.898 319.263C158.142 319.235 157.401 319.048 156.723 318.715C156.045 318.381 155.444 317.908 154.961 317.326C153.903 316.109 152.411 313.316 153.903 308.246C155.31 303.6 158.697 301.685 161.311 302.182C163.321 302.563 165.544 304.606 165.163 309.104C165.15 309.271 165.103 309.435 165.026 309.585C164.949 309.735 164.843 309.868 164.714 309.976C164.585 310.084 164.435 310.166 164.274 310.216C164.113 310.266 163.944 310.284 163.777 310.268C163.439 310.235 163.129 310.072 162.911 309.813C162.693 309.553 162.586 309.219 162.612 308.881C162.813 306.543 162.126 304.934 160.834 304.648C159.374 304.373 157.3 305.781 156.347 308.945C155.48 311.834 155.659 314.236 156.866 315.623C157.113 315.95 157.433 316.216 157.8 316.399C158.168 316.583 158.572 316.679 158.982 316.681C159.155 316.643 159.333 316.642 159.507 316.676C159.68 316.711 159.844 316.781 159.989 316.882C160.133 316.983 160.256 317.113 160.348 317.263C160.44 317.414 160.5 317.582 160.524 317.757C160.548 317.932 160.536 318.11 160.488 318.28C160.44 318.449 160.358 318.608 160.246 318.744C160.134 318.881 159.995 318.992 159.837 319.073C159.68 319.153 159.508 319.2 159.332 319.21C159.188 319.235 159.043 319.253 158.898 319.263Z" fill="#A6A6A6"/>
<path d="M174.624 319.263C173.868 319.235 173.127 319.048 172.449 318.715C171.771 318.381 171.17 317.908 170.687 317.326C169.629 316.109 168.137 313.316 169.629 308.246C171.036 303.6 174.412 301.685 177.037 302.182C179.048 302.563 181.27 304.606 180.878 309.104C180.868 309.272 180.824 309.436 180.748 309.586C180.672 309.737 180.567 309.87 180.439 309.979C180.31 310.088 180.161 310.169 180 310.219C179.839 310.269 179.67 310.285 179.503 310.268C179.166 310.235 178.855 310.072 178.637 309.813C178.419 309.553 178.312 309.219 178.339 308.881C178.54 306.543 177.852 304.934 176.561 304.648C175.1 304.373 173.026 305.781 172.073 308.945C171.206 311.834 171.386 314.236 172.592 315.623C172.845 315.957 173.173 316.227 173.55 316.411C173.927 316.595 174.342 316.687 174.762 316.681C175.083 316.662 175.401 316.765 175.65 316.969C175.899 317.174 176.062 317.465 176.106 317.784C176.15 318.103 176.072 318.428 175.888 318.692C175.703 318.956 175.426 319.141 175.111 319.21C174.95 319.237 174.787 319.255 174.624 319.263Z" fill="#A6A6A6"/>
<path d="M190.382 319.263C189.628 319.235 188.888 319.048 188.212 318.714C187.535 318.381 186.937 317.908 186.456 317.326C185.397 316.109 183.905 313.316 185.397 308.246C186.794 303.6 190.181 301.685 192.805 302.182C194.816 302.563 197.038 304.606 196.647 309.104C196.635 309.271 196.59 309.434 196.514 309.584C196.437 309.734 196.332 309.867 196.204 309.975C196.076 310.084 195.927 310.166 195.767 310.216C195.607 310.266 195.438 310.284 195.271 310.268C194.933 310.238 194.62 310.075 194.402 309.815C194.184 309.555 194.078 309.219 194.107 308.881C194.308 306.543 193.62 304.934 192.318 304.648C191.017 304.362 188.794 305.781 187.842 308.945C186.964 311.834 187.154 314.236 188.36 315.623C188.608 315.95 188.928 316.216 189.295 316.399C189.662 316.583 190.067 316.679 190.477 316.681C190.649 316.643 190.828 316.642 191.001 316.676C191.174 316.711 191.338 316.781 191.483 316.882C191.628 316.983 191.75 317.113 191.842 317.263C191.935 317.414 191.995 317.582 192.019 317.757C192.043 317.932 192.031 318.11 191.983 318.28C191.935 318.449 191.852 318.608 191.74 318.744C191.628 318.881 191.489 318.992 191.332 319.073C191.175 319.153 191.002 319.2 190.826 319.21C190.679 319.235 190.531 319.253 190.382 319.263Z" fill="#A6A6A6"/>
<path d="M206.066 319.263C205.311 319.239 204.57 319.054 203.893 318.72C203.215 318.386 202.618 317.911 202.139 317.326C201.081 316.109 199.578 313.316 201.081 308.246C202.478 303.6 205.864 301.685 208.489 302.182C210.51 302.563 212.722 304.606 212.341 309.104C212.329 309.271 212.284 309.434 212.208 309.584C212.132 309.734 212.027 309.867 211.898 309.975C211.77 310.084 211.622 310.166 211.461 310.216C211.301 310.266 211.133 310.284 210.965 310.268C210.627 310.238 210.315 310.075 210.096 309.815C209.878 309.555 209.772 309.219 209.801 308.881C209.992 306.543 209.314 304.934 208.013 304.648C206.552 304.373 204.489 305.781 203.536 308.945C202.658 311.834 202.848 314.236 204.055 315.623C204.308 315.957 204.636 316.227 205.013 316.411C205.39 316.595 205.805 316.687 206.224 316.681C206.546 316.662 206.863 316.765 207.112 316.969C207.362 317.174 207.525 317.465 207.569 317.784C207.613 318.103 207.535 318.428 207.35 318.692C207.166 318.956 206.888 319.141 206.573 319.21C206.405 319.238 206.236 319.255 206.066 319.263Z" fill="#A6A6A6"/>
<path d="M221.792 319.263C221.047 319.236 220.317 319.054 219.647 318.73C218.976 318.406 218.38 317.946 217.897 317.379C216.839 316.162 215.347 313.368 216.839 308.299C218.236 303.653 221.622 301.738 224.247 302.235C226.258 302.616 228.48 304.659 228.099 309.156C228.087 309.324 228.042 309.487 227.966 309.637C227.89 309.787 227.784 309.92 227.656 310.028C227.528 310.137 227.38 310.219 227.219 310.269C227.059 310.319 226.89 310.337 226.723 310.321C226.555 310.307 226.392 310.261 226.242 310.184C226.092 310.106 225.959 310 225.851 309.871C225.742 309.742 225.661 309.593 225.611 309.432C225.561 309.271 225.543 309.102 225.559 308.934C225.75 306.595 225.072 304.987 223.771 304.701C222.469 304.415 220.247 305.833 219.294 308.998C218.416 311.887 218.606 314.289 219.813 315.676C220.06 316.003 220.379 316.27 220.747 316.453C221.114 316.637 221.519 316.733 221.929 316.734C222.102 316.696 222.28 316.695 222.453 316.729C222.626 316.764 222.79 316.834 222.935 316.935C223.08 317.036 223.202 317.166 223.295 317.316C223.387 317.467 223.447 317.635 223.471 317.81C223.495 317.985 223.483 318.163 223.435 318.332C223.387 318.502 223.304 318.661 223.192 318.797C223.08 318.934 222.941 319.045 222.784 319.126C222.627 319.206 222.455 319.253 222.278 319.263C222.116 319.272 221.954 319.272 221.792 319.263Z" fill="#A6A6A6"/>
<path d="M237.518 319.263C236.762 319.235 236.021 319.048 235.343 318.715C234.664 318.381 234.064 317.908 233.581 317.326C232.523 316.109 231.03 313.316 232.523 308.246C233.92 303.6 237.306 301.685 239.931 302.182C241.941 302.563 244.164 304.606 243.783 309.104C243.768 309.27 243.721 309.433 243.644 309.581C243.566 309.73 243.46 309.861 243.332 309.969C243.204 310.077 243.056 310.158 242.896 310.208C242.736 310.259 242.568 310.277 242.402 310.262C242.235 310.248 242.073 310.2 241.924 310.123C241.776 310.046 241.644 309.94 241.536 309.812C241.429 309.684 241.347 309.535 241.297 309.376C241.247 309.216 241.228 309.048 241.243 308.881C241.433 306.543 240.756 304.934 239.454 304.648C237.994 304.373 235.93 305.781 234.967 308.945C234.099 311.834 234.279 314.236 235.486 315.623C235.733 315.95 236.053 316.216 236.42 316.399C236.787 316.583 237.192 316.679 237.602 316.681C237.926 316.658 238.246 316.758 238.498 316.962C238.75 317.165 238.916 317.457 238.961 317.778C239.007 318.099 238.929 318.425 238.744 318.691C238.558 318.957 238.279 319.142 237.962 319.21C237.815 319.235 237.667 319.253 237.518 319.263Z" fill="#A6A6A6"/>
<path d="M253.244 319.263C252.488 319.235 251.747 319.048 251.069 318.715C250.39 318.381 249.79 317.908 249.307 317.326C248.249 316.109 246.756 313.316 248.249 308.246C249.646 303.6 253.032 301.685 255.657 302.182C257.667 302.563 259.89 304.606 259.509 309.104C259.496 309.271 259.449 309.435 259.372 309.585C259.295 309.735 259.188 309.868 259.059 309.976C258.93 310.084 258.781 310.166 258.62 310.216C258.459 310.266 258.29 310.284 258.122 310.268C257.785 310.235 257.474 310.072 257.257 309.813C257.039 309.553 256.932 309.219 256.958 308.881C257.159 306.543 256.472 304.934 255.18 304.648C253.72 304.373 251.656 305.781 250.693 308.945C249.826 311.834 250.005 314.236 251.212 315.623C251.465 315.957 251.793 316.227 252.17 316.411C252.547 316.595 252.962 316.687 253.381 316.681C253.703 316.662 254.02 316.765 254.27 316.969C254.519 317.174 254.682 317.465 254.726 317.784C254.77 318.103 254.692 318.428 254.507 318.692C254.323 318.956 254.046 319.141 253.731 319.21C253.569 319.237 253.407 319.255 253.244 319.263Z" fill="#A6A6A6"/>
<path d="M430.369 330.354C430.636 325.808 431.277 321.291 432.284 316.85C433.086 312.761 434.729 308.883 437.11 305.463C438.22 303.904 439.627 302.581 441.251 301.569C442.875 300.558 444.683 299.878 446.571 299.568C450.275 299.113 453.746 300.764 456.519 303.103C459.958 305.992 462.583 309.823 465.049 313.527C467.769 317.678 470.243 321.986 472.457 326.428C472.466 326.456 472.465 326.487 472.454 326.515C472.443 326.544 472.422 326.567 472.395 326.581C472.368 326.595 472.337 326.599 472.308 326.592C472.278 326.585 472.252 326.568 472.234 326.544C470.329 322.781 468.128 319.175 465.652 315.76C463.4 312.479 460.86 309.405 458.064 306.574C455.524 304.087 452.286 301.77 448.603 301.653C446.797 301.675 445.022 302.117 443.417 302.944C441.811 303.77 440.42 304.959 439.353 306.415C436.877 309.59 435.628 313.517 434.686 317.369C433.69 321.595 433.035 325.895 432.729 330.227C431.998 339.116 431.808 348.069 431.607 356.991C431.494 362.035 431.416 367.083 431.374 372.135L431.311 379.807C431.409 382.281 431.309 384.758 431.014 387.215C430.983 387.32 430.919 387.412 430.831 387.478C430.743 387.543 430.637 387.578 430.527 387.578C430.418 387.578 430.311 387.543 430.224 387.478C430.136 387.412 430.072 387.32 430.041 387.215C429.737 384.89 429.624 382.543 429.702 380.199C429.66 377.779 429.628 375.356 429.607 372.929C429.564 368.216 429.547 363.503 429.554 358.79C429.607 349.297 429.723 339.794 430.369 330.354Z" fill="#263238"/>
<path d="M443.079 323.655C443.555 321.136 444.401 317.855 445.83 315.908C448.412 312.405 451.185 313.929 448.613 317.803C446.719 320.67 445.486 323.924 445.005 327.327C445.005 327.327 449.333 333.507 454.529 336.555C454.307 334.174 453.63 330.523 454.095 327.031C455.101 319.401 459.715 319.824 458.572 325.898C457.739 329.931 457.384 334.048 457.514 338.164C459.256 339.298 461.129 340.218 463.091 340.905C462.794 340.016 462.477 338.958 462.128 337.667C460.265 330.819 464.837 328.682 464.985 332.534C465.274 335.821 465.869 339.073 466.763 342.249C469.271 343.096 471.345 343.667 472.615 344.112C475.908 345.327 478.849 347.338 481.177 349.964C483.558 347.817 485.536 345.261 487.019 342.418C485.421 341.042 482.902 339 479.399 336.524C472.827 331.888 475.166 326.036 480.32 329.677C484.077 332.301 486.987 337.169 488.31 339.667C490.093 335.318 491.103 330.69 491.294 325.994C486.13 321.157 473.377 314.405 477.219 314.405C480.679 314.405 488.426 319.475 491.262 321.432C491.19 320.103 491.045 318.778 490.828 317.464C485.971 314.289 470.181 309.326 472.7 307.939C475.462 306.384 486.458 311.474 489.802 313.093C489.182 310.928 488.198 308.885 486.892 307.05C480.171 298.066 468.075 294.965 462.794 296.679C459.059 297.886 460.149 307.368 459.344 307.05C444.37 300.965 437.554 305.23 443.079 323.655ZM479.875 322.597C480.933 321.316 485.865 325.094 484.447 327.168C483.029 329.243 478.499 324.258 479.875 322.607V322.597ZM454.138 314.511C455.429 315.337 453.513 320.131 451.513 318.681C449.82 317.453 452.836 313.696 454.138 314.522V314.511Z" fill="#353535"/>
<path d="M456.095 315.993C456.773 314.649 457.482 313.326 458.212 312.035C458.927 310.761 459.76 309.556 460.699 308.437L460.053 307.643C459.969 307.537 460.117 307.389 460.212 307.495C460.466 307.781 460.699 308.077 460.942 308.373C460.967 308.384 460.99 308.4 461.008 308.42C461.026 308.44 461.04 308.464 461.048 308.49C461.98 309.548 462.847 310.744 463.683 311.919C465.16 312.253 466.616 312.673 468.043 313.178C469.514 313.675 470.975 314.236 472.404 314.786C472.562 314.85 472.488 315.104 472.33 315.03C470.922 314.405 469.483 313.802 468.012 313.305C466.541 312.807 465.207 312.469 463.779 312.077C464.234 312.723 464.678 313.368 465.112 314.035C467.765 314.885 470.345 315.947 472.827 317.21C475.43 318.448 477.938 319.887 480.436 321.327C480.574 321.411 480.436 321.634 480.298 321.549C477.844 320.116 475.319 318.809 472.732 317.633C470.319 316.501 467.821 315.57 465.387 314.458C471.515 323.983 475.187 335.074 480.108 345.286C480.182 345.434 479.949 345.561 479.886 345.413C478.383 341.826 476.658 338.333 475.018 334.83C473.557 331.655 472.118 328.481 470.647 325.306C470.224 324.385 469.779 323.454 469.335 322.533C469.599 327.645 469.493 332.841 470.329 337.889C470.329 337.922 470.316 337.955 470.292 337.979C470.268 338.002 470.236 338.016 470.202 338.016C470.169 338.016 470.136 338.002 470.113 337.979C470.089 337.955 470.075 337.922 470.075 337.889C469.726 332.428 468.763 327.052 468.795 321.559C468.795 321.559 468.795 321.559 468.795 321.485C467.758 319.369 466.643 317.319 465.451 315.337C463.419 320.12 461.281 324.978 460.339 330.153C460.339 330.311 460.053 330.237 460.096 330.079C461.472 324.935 462.752 319.782 465.239 315.019C463.935 312.854 462.493 310.776 460.921 308.797C460.233 310.067 459.366 311.273 458.593 312.479C457.82 313.686 457.09 314.861 456.392 316.088C454.876 318.673 453.591 321.385 452.55 324.195C452.497 324.343 452.243 324.269 452.307 324.121C453.577 321.369 454.762 318.639 456.095 315.993Z" fill="#263238"/>
<path d="M412.462 330.809C415.838 326.375 419.68 320.639 425.712 319.835C431.533 319.062 436.433 323.179 439.544 327.676C442.793 332.386 444.486 337.984 445.957 343.445C447.706 349.997 449.119 356.634 450.19 363.33C450.804 367.045 451.249 370.738 451.693 374.516C452.206 378.296 452.428 382.11 452.36 385.924C452.36 386.538 451.365 386.697 451.238 386.051C450.645 382.929 450.349 379.754 449.947 376.611C449.545 373.468 449.079 370.431 448.55 367.351C447.492 361.118 446.19 354.938 444.624 348.821C443.248 343.466 441.989 337.952 439.66 332.947C437.544 328.407 434.083 323.369 429.014 321.93C422.082 319.972 416.378 326.015 412.685 330.968C412.621 331.073 412.367 330.936 412.462 330.809Z" fill="#263238"/>
<path d="M390.789 337.487C390.789 338.291 390.789 339.095 390.789 339.878C392.743 338.553 394.999 337.741 397.35 337.518C402.959 337.19 402.398 341.413 398.662 341.413C396.038 341.322 393.418 341.716 390.937 342.577C391.498 349.985 393.244 356.007 393.54 356.102C398.5 356.052 403.45 355.663 408.356 354.938C407.108 351.922 404.123 347.837 405.764 347.604C407.404 347.371 408.938 350.937 409.69 354.737C413.378 354.212 417.019 353.398 420.579 352.303C418.23 350.07 414.568 347.244 416.071 346.186C417.574 345.127 420.4 348.99 422.072 351.784C423.75 351.195 425.349 350.403 426.834 349.424C423.754 344.408 415.754 343.074 416.971 339.571C418.188 336.069 425.49 341.339 428.612 348.038C432.781 344.101 434.221 338.333 434.041 333.328C430.601 332.756 423.902 333.169 424.516 330.703C425.13 328.237 429.903 328.946 433.776 330.587C433.508 328.597 432.807 326.689 431.723 324.999C428.305 320.141 416.907 325.56 416.907 325.56C416.907 325.56 418.632 314.427 414.473 312.289C412.081 311.061 407.764 310.871 403.308 313.21C405.732 313.527 408.6 314.437 409.732 316.183C411.14 318.406 408.674 319.464 407.235 318.395C406.176 317.644 404.314 315.337 400.737 314.871C399.14 316.083 397.716 317.507 396.504 319.104C396.053 319.682 395.633 320.283 395.244 320.903C397.342 320.075 399.598 319.722 401.849 319.87C404.1 320.018 406.29 320.664 408.261 321.761C412.97 324.385 410.039 329.264 405.975 327.126C401.911 324.988 398.059 322.893 393.604 323.771C391.861 327.666 390.935 331.876 390.884 336.143C393.116 334.682 395.594 333.635 398.197 333.052C403.065 331.994 404.377 334.957 399.075 335.243C396.189 335.417 393.369 336.181 390.789 337.487ZM396.99 330.079C396.736 328.502 400.165 328.216 400.673 329.507C401.086 330.565 397.244 331.603 396.99 330.079ZM425.702 340.079C426.061 339.243 428.294 340.312 428.03 341.36C427.681 342.715 425.321 340.863 425.702 340.037V340.079ZM409.362 344.757C411.055 344.175 413.447 348.429 411.595 349.286C409.743 350.144 407.986 345.202 409.362 344.715V344.757Z" fill="#353535"/>
<path opacity="0.1" d="M390.789 337.487C390.789 338.291 390.789 339.095 390.789 339.878C392.743 338.553 394.999 337.741 397.35 337.518C402.959 337.19 402.398 341.413 398.662 341.413C396.038 341.322 393.418 341.716 390.937 342.577C391.498 349.985 393.244 356.007 393.54 356.102C398.5 356.052 403.45 355.663 408.356 354.938C407.108 351.922 404.123 347.837 405.764 347.604C407.404 347.371 408.938 350.937 409.69 354.737C413.378 354.212 417.019 353.398 420.579 352.303C418.23 350.07 414.568 347.244 416.071 346.186C417.574 345.127 420.4 348.99 422.072 351.784C423.75 351.195 425.349 350.403 426.834 349.424C423.754 344.408 415.754 343.074 416.971 339.571C418.188 336.069 425.49 341.339 428.612 348.038C432.781 344.101 434.221 338.333 434.041 333.328C430.601 332.756 423.902 333.169 424.516 330.703C425.13 328.237 429.903 328.946 433.776 330.587C433.508 328.597 432.807 326.689 431.723 324.999C428.305 320.141 416.907 325.56 416.907 325.56C416.907 325.56 418.632 314.427 414.473 312.289C412.081 311.061 407.764 310.871 403.308 313.21C405.732 313.527 408.6 314.437 409.732 316.183C411.14 318.406 408.674 319.464 407.235 318.395C406.176 317.644 404.314 315.337 400.737 314.871C399.14 316.083 397.716 317.507 396.504 319.104C396.053 319.682 395.633 320.283 395.244 320.903C397.342 320.075 399.598 319.722 401.849 319.87C404.1 320.018 406.29 320.664 408.261 321.761C412.97 324.385 410.039 329.264 405.975 327.126C401.911 324.988 398.059 322.893 393.604 323.771C391.861 327.666 390.935 331.876 390.884 336.143C393.116 334.682 395.594 333.635 398.197 333.052C403.065 331.994 404.377 334.957 399.075 335.243C396.189 335.417 393.369 336.181 390.789 337.487ZM396.99 330.079C396.736 328.502 400.165 328.216 400.673 329.507C401.086 330.565 397.244 331.603 396.99 330.079ZM425.702 340.079C426.061 339.243 428.294 340.312 428.03 341.36C427.681 342.715 425.321 340.863 425.702 340.037V340.079ZM409.362 344.757C411.055 344.175 413.447 348.429 411.595 349.286C409.743 350.144 407.986 345.202 409.362 344.715V344.757Z" fill="black"/>
<path d="M394.249 355.255C396.948 351.191 399.625 347.106 402.451 343.127C403.763 341.279 405.129 339.466 406.547 337.688L405.965 337.518L404.97 337.286C404.208 337.116 403.446 336.968 402.673 336.852C401.947 336.738 401.216 336.66 400.483 336.619C399.702 336.54 398.914 336.54 398.133 336.619C398.038 336.619 398.027 336.492 398.133 336.492C398.916 336.566 399.721 336.492 400.504 336.492C401.287 336.492 402.028 336.577 402.779 336.661C403.531 336.746 404.197 336.841 404.896 336.979L406.049 337.243C406.286 337.287 406.519 337.347 406.748 337.423C408.201 335.624 409.693 333.86 411.224 332.132C406.995 329.819 402.454 328.129 397.742 327.116C397.668 327.116 397.742 326.978 397.742 326.988C402.53 327.889 407.147 329.535 411.425 331.867C412.272 330.925 413.119 329.983 413.976 329.052C414.833 328.121 415.955 326.988 416.823 325.877C416.886 325.803 416.992 325.877 416.928 325.951C415.744 327.138 414.62 328.385 413.563 329.687C415.291 331.019 416.928 332.465 418.463 334.016C420.05 335.571 421.638 337.19 423.109 338.81C423.162 338.873 423.109 338.958 423.014 338.905C421.532 337.275 419.987 335.73 418.357 334.238C416.727 332.746 415.023 331.37 413.383 329.899L412.145 331.37C411.944 331.624 411.732 331.867 411.521 332.111C411.525 332.128 411.525 332.146 411.521 332.164L409.446 334.661C410.151 335.797 410.743 336.998 411.214 338.249C411.722 339.455 412.145 340.693 412.537 341.942C413.309 344.54 413.882 347.194 414.251 349.879C414.251 349.953 414.135 349.985 414.124 349.879C413.718 347.229 413.081 344.619 412.219 342.08C411.796 340.778 411.298 339.508 410.79 338.238C410.282 336.968 409.732 335.963 409.309 334.799L407.531 336.968L407.033 337.614C407.039 337.625 407.041 337.637 407.041 337.649C407.04 337.661 407.036 337.673 407.03 337.684C407.024 337.694 407.015 337.703 407.005 337.709C406.994 337.715 406.982 337.719 406.97 337.719C405.139 340.037 403.382 342.418 401.679 344.821C401.764 344.999 401.828 345.188 401.869 345.381C401.954 345.678 402.038 345.995 402.112 346.302C402.26 346.924 402.377 347.553 402.462 348.186C402.536 348.779 402.589 349.382 402.62 349.974C402.595 350.652 402.613 351.331 402.673 352.006C402.673 352.112 402.525 352.112 402.557 352.006C402.624 351.375 402.606 350.738 402.504 350.112C402.44 349.456 402.356 348.81 402.239 348.165C402.123 347.519 401.996 347.011 401.858 346.44C401.784 346.143 401.71 345.858 401.626 345.583C401.541 345.307 401.509 345.265 401.467 345.106C400.673 346.239 399.879 347.371 399.096 348.525C397.541 350.789 396.006 353.065 394.461 355.34C394.355 355.477 394.175 355.372 394.249 355.255Z" fill="#263238"/>
<path d="M429.268 379.331C429.332 377.215 429.66 375.161 429.882 373.098C430.104 371.034 430.337 368.949 430.559 366.865C430.84 362.834 431.377 358.826 432.168 354.864C432.864 351.448 434.567 348.319 437.057 345.879C438.345 344.588 440.038 343.781 441.851 343.593C443.671 343.536 445.459 344.087 446.931 345.159C448.614 346.398 450.065 347.924 451.217 349.667C452.454 351.393 453.568 353.204 454.55 355.086C454.55 355.16 454.476 355.202 454.434 355.086C452.583 351.943 450.13 349.195 447.216 347.001C445.919 345.936 444.336 345.277 442.666 345.106C441.851 345.094 441.041 345.242 440.284 345.544C439.526 345.845 438.836 346.294 438.253 346.863C435.932 349.1 434.314 351.965 433.596 355.107C432.748 358.763 432.146 362.472 431.797 366.208C431.501 368.396 431.212 370.593 430.929 372.802C430.644 374.982 430.453 377.225 429.998 379.384C429.978 379.47 429.928 379.547 429.857 379.599C429.786 379.652 429.699 379.677 429.61 379.671C429.522 379.664 429.439 379.627 429.376 379.564C429.314 379.502 429.275 379.419 429.268 379.331Z" fill="#263238"/>
<path d="M439.491 363.192C440.131 364.066 440.89 364.846 441.745 365.51C441.406 363.478 440.994 359.88 442.02 357.964C443.608 354.98 445.481 356.462 444.539 359.023C443.594 361.36 443.075 363.847 443.004 366.367C445.167 367.721 447.484 368.811 449.904 369.616C449.643 368.45 449.561 367.251 449.661 366.06C449.979 362.885 452.413 362.885 451.778 366.24C451.546 367.525 451.437 368.829 451.45 370.135C454.965 371.22 458.56 372.03 462.202 372.558C464.06 370.146 465.557 367.475 466.647 364.632C464.064 363.986 458.815 363.838 458.921 361.986C459.069 359.499 464.212 361.414 467.133 363.224C467.813 361.055 468.114 358.786 468.022 356.515C465.691 355.864 463.296 355.466 460.879 355.329C455.587 354.874 455.81 351.848 459.672 351.922C462.53 351.975 466.139 353.721 467.842 354.62C466.731 347.371 461.196 342.715 456.762 342.535C449.301 342.238 451.979 351.52 451.979 351.52C451.979 351.52 446.92 347.964 442.158 348.059C437.396 348.154 434.39 356.102 439.491 363.192ZM459.418 349.773C459.249 348.715 462.593 348.482 462.752 349.773C462.953 351.318 459.588 350.842 459.418 349.773ZM464.773 360.663C464.71 359.986 466.149 359.869 466.467 360.727C466.689 361.287 464.837 361.34 464.773 360.663ZM446.857 361.298C447.978 361.457 448.624 365.478 446.687 365.404C445.206 365.341 445.904 361.171 446.857 361.298Z" fill="#353535"/>
<path d="M448.412 365.764C448.603 365.267 448.762 364.706 448.92 364.251C448.783 364.769 448.645 365.309 448.55 365.806C448.549 365.817 448.546 365.828 448.541 365.838C448.535 365.848 448.527 365.856 448.518 365.863C448.509 365.869 448.498 365.873 448.487 365.875C448.476 365.877 448.465 365.876 448.454 365.873C448.443 365.869 448.434 365.864 448.425 365.856C448.417 365.848 448.411 365.839 448.407 365.828C448.403 365.818 448.401 365.807 448.402 365.796C448.403 365.784 448.407 365.774 448.412 365.764Z" fill="#263238"/>
<path d="M450.381 359.308C450.73 358.25 451.122 357.255 451.524 356.239C451.746 355.7 451.958 355.181 452.201 354.641C452.367 354.164 452.591 353.709 452.868 353.287C452.632 352.87 452.431 352.434 452.264 351.985C452.264 351.985 452.264 351.911 452.328 351.985C452.883 352.688 453.368 353.443 453.778 354.239C453.99 354.588 454.191 354.948 454.392 355.298C454.815 355.339 455.236 355.406 455.651 355.499C456.095 355.573 456.54 355.668 456.984 355.763L458.318 356.081C458.752 356.176 459.186 356.324 459.641 356.398C459.736 356.398 459.694 356.578 459.641 356.536C459.186 356.375 458.719 356.251 458.244 356.165C457.82 356.081 457.387 356.007 456.953 355.943L455.651 355.784L454.667 355.7C454.836 356.017 455.027 356.324 455.196 356.642C455.196 356.642 455.249 356.737 455.281 356.79C455.637 356.785 455.993 356.828 456.339 356.917C456.72 356.98 457.111 357.054 457.492 357.139C458.265 357.319 459.048 357.499 459.81 357.71C461.429 358.165 462.985 358.684 464.615 359.203C464.699 359.203 464.615 359.361 464.562 359.33C462.977 358.801 461.367 358.356 459.736 357.996C458.974 357.827 458.212 357.647 457.44 357.488L456.297 357.245C455.992 357.199 455.692 357.132 455.397 357.044C456.222 358.568 456.995 360.102 457.704 361.679C459.249 365.097 460.561 368.632 461.884 372.145C461.884 372.23 461.778 372.283 461.747 372.145C460.467 368.65 458.982 365.233 457.302 361.912L456.402 360.102C456.368 360.224 456.34 360.348 456.318 360.473L456.095 361.721C455.958 362.547 455.82 363.383 455.693 364.219C455.339 365.926 455.138 367.662 455.09 369.404C455.09 369.51 454.931 369.5 454.953 369.404C455.08 368.579 455.08 367.711 455.132 366.875C455.185 366.039 455.249 365.129 455.355 364.261C455.461 363.393 455.556 362.589 455.693 361.753L455.916 360.504C455.938 360.193 456.017 359.888 456.148 359.605C455.715 358.726 455.281 357.848 454.836 356.97C454.392 356.091 454 355.34 453.577 354.525C453.397 354.176 453.206 353.827 453.016 353.467C452.872 353.895 452.706 354.315 452.518 354.726C452.328 355.192 452.137 355.668 451.936 356.134C451.513 357.192 451.111 358.25 450.719 359.308C450.148 360.801 449.524 362.335 449.068 363.891C449.492 362.367 449.873 360.769 450.381 359.308Z" fill="#263238"/>
<path d="M448.92 364.251C448.92 364.124 448.994 364.007 449.037 363.891C448.994 364.007 448.963 364.124 448.92 364.251Z" fill="#263238"/>
<path d="M412.198 379.934L413.108 393.343L415.457 427.906H466.678L469.017 393.343L469.927 379.934H412.198Z" fill="#37474F"/>
<path d="M412.198 379.934L413.108 393.343H469.017L469.927 379.934H412.198Z" fill="#263238"/>
<path d="M408.557 385.353H473.568V374.516H408.557V385.353Z" fill="#37474F"/>
<path d="M462.53 427.906H453.534V433.579H462.53V427.906Z" fill="#37474F"/>
<path d="M462.53 427.906H453.534V430.743H462.53V427.906Z" fill="#263238"/>
<path d="M428.58 427.906H419.595V433.579H428.58V427.906Z" fill="#37474F"/>
<path d="M428.58 427.906H419.595V430.743H428.58V427.906Z" fill="#263238"/>
<path d="M399.837 104.844C399.337 109.681 397.502 114.282 394.536 118.135C391.571 121.988 387.592 124.941 383.045 126.663C378.498 128.384 373.562 128.807 368.788 127.885C364.015 126.962 359.592 124.73 356.014 121.438L342.891 123.364L349.452 112.019C347.811 108.026 347.193 103.687 347.653 99.3941C347.984 95.946 348.994 92.5974 350.625 89.5416C352.257 86.4859 354.477 83.7834 357.158 81.5903C359.84 79.3972 362.929 77.7567 366.247 76.7637C369.566 75.7706 373.048 75.4446 376.494 75.8044C379.939 76.1642 383.279 77.2028 386.32 78.8601C389.362 80.5175 392.046 82.7608 394.216 85.4606C396.386 88.1605 398 91.2634 398.965 94.5903C399.93 97.9172 400.226 101.402 399.837 104.844Z" fill="white"/>
<path d="M399.837 104.844C399.329 109.681 397.499 114.283 394.546 118.147C393.806 119.103 393.011 120.015 392.165 120.877C391.29 121.717 390.364 122.502 389.392 123.227C387.452 124.695 385.315 125.882 383.042 126.751C379.662 128.086 376.036 128.684 372.406 128.508C371.188 128.476 369.975 128.349 368.777 128.127C363.936 127.238 359.439 125.017 355.791 121.713L356.109 121.809L342.997 123.83L342.044 123.967L342.531 123.131L349.05 111.765V112.21C347.14 107.516 346.613 102.372 347.532 97.3882C348.451 92.404 350.777 87.7869 354.236 84.0823C357.695 80.3777 362.141 77.7403 367.051 76.4818C371.96 75.2232 377.127 75.396 381.942 76.9797C385.733 78.269 389.189 80.3876 392.059 83.1813C394.903 85.973 397.08 89.3714 398.427 93.1226C399.774 96.8737 400.256 100.881 399.837 104.844ZM399.837 104.844C400.254 100.895 399.759 96.9019 398.39 93.1736C397.021 89.4453 394.814 86.0809 391.941 83.3392C389.067 80.5975 385.603 78.5517 381.815 77.3593C378.026 76.1669 374.015 75.8596 370.089 76.4612C366.201 77.0269 362.494 78.4749 359.252 80.6943C356.05 82.9477 353.374 85.8686 351.41 89.2558C349.474 92.6541 348.334 96.4478 348.077 100.351C347.821 104.254 348.454 108.164 349.929 111.787L350.013 112.019L349.897 112.231L343.293 123.555L342.817 122.867L355.95 121.025H356.141L356.268 121.152C359.771 124.436 364.122 126.676 368.829 127.619C370 127.864 371.19 128.009 372.385 128.052C373.58 128.137 374.779 128.137 375.973 128.052C378.369 127.868 380.727 127.348 382.979 126.507C385.249 125.686 387.388 124.538 389.328 123.1C390.298 122.383 391.224 121.609 392.101 120.782C392.953 119.932 393.748 119.027 394.482 118.073C397.452 114.241 399.306 109.663 399.837 104.844Z" fill="#263238"/>
<path d="M370.671 117.078L359.474 105.744L363.231 102.019L369.782 108.644L383.381 87.3297L387.836 90.1765L370.671 117.078Z" fill="#353535"/>
</svg>
